<svg width="452" height="452" viewBox="0 0 452 452" fill="none" xmlns="http://www.w3.org/2000/svg">
<g clip-path="url(#clip0_101_1718)">
<path d="M226 402.605C325.104 402.605 405.444 322.266 405.444 223.161C405.444 124.057 325.104 43.7174 226 43.7174C126.896 43.7174 46.556 124.057 46.556 223.161C46.556 322.266 126.896 402.605 226 402.605Z" fill="#52A07B"/>
<path d="M330.956 332.778C394.223 269.511 394.223 166.936 330.956 103.669C267.69 40.4025 165.114 40.4026 101.848 103.669C38.5811 166.936 38.5811 269.511 101.848 332.778C165.114 396.044 267.69 396.044 330.956 332.778Z" fill="#8BD88B"/>
<path d="M175.81 379.346C185.6 378.333 194.776 372.547 199.92 364.158C202.559 367.919 205.678 371.345 208.318 375.097C203.264 384.444 193.42 391.197 182.798 391.586C180.845 387.12 177.772 383.811 175.81 379.346Z" fill="#D22940"/>
<path d="M323.09 175.837L319.446 233.34C319.446 233.34 309.964 243.158 311.374 244.424C312.784 245.689 317.883 240.437 317.883 240.437C317.883 240.437 314.149 250.037 315.921 250.2C317.693 250.363 321.49 242.426 321.49 242.426C321.49 242.426 319.889 251.665 322.113 252.406C324.337 253.147 325.205 242.941 325.205 242.941C325.205 242.941 325.458 252.089 327.438 252.623C329.409 253.147 328.857 243.239 328.857 243.239C328.857 243.239 330.159 250.408 332.075 250.471C333.992 250.535 332.048 242.851 332.048 242.851C332.048 242.851 334.299 238.918 332.916 233.684L342.824 177.157L323.09 175.837Z" fill="#FDC78B"/>
<path d="M327.031 209.601L340.257 346.566L360.606 349.866L378.252 206.537L327.031 209.601Z" fill="#51A9BD"/>
<path d="M332.889 332.6C344.632 330.096 356.303 329.87 367.901 332.6L362.341 391.776C362.341 391.776 327.329 395.003 330.276 388.178C333.223 381.361 342.544 376.118 342.544 376.118L332.889 332.6Z" fill="#2A404B"/>
<path d="M345.518 213.272L380.539 346.34H401.15L395.59 202.035L345.518 213.272Z" fill="#75BDCB"/>
<path d="M371.047 332.6C382.79 330.096 394.46 329.87 406.059 332.6L400.499 391.775C400.499 391.775 365.487 395.003 368.434 388.178C371.381 381.361 380.702 376.118 380.702 376.118L371.047 332.6Z" fill="#2A404B"/>
<path d="M355.652 126.687C355.652 126.687 342.987 128.296 331.479 139.017C328.541 141.756 326.552 145.354 325.829 149.305L318.19 191.042C318.19 191.042 331.235 198.464 346.901 191.883L355.652 126.687Z" fill="#B62135"/>
<path d="M398.709 216.888C398.709 216.888 366.066 231.117 325.901 216.716L326.796 210.894L338.43 135.184C338.43 135.184 338.738 134.569 339.542 133.702C342.969 129.841 355.308 120.512 388.765 131.74L383.504 145.571L385.086 152.993L398.709 216.888Z" fill="#D22940"/>
<path d="M398.709 216.888C398.709 216.888 366.066 231.117 325.901 216.716L326.796 210.894C336.948 213.507 347.932 213.01 357.713 209.195C363.309 207.007 368.57 203.753 372.511 199.214C378.351 192.489 380.891 183.404 381.244 174.499C381.597 165.604 379.951 156.763 378.315 148.003C380.656 149.549 382.916 151.212 385.086 152.993L398.709 216.888Z" fill="#B62135"/>
<path d="M419.42 315.162C416.491 343.014 380.014 338.783 363.625 333.269C355.805 330.638 349.83 325.72 346.847 318.28C343.583 310.126 343.927 298.944 349.396 284.426C358.716 259.665 388.883 241.992 395.319 238.448C396.097 238.023 396.531 237.797 396.531 237.797C396.531 237.797 424.365 268.253 419.42 315.162Z" fill="#FFA109"/>
<path d="M409.467 303.364C406.538 331.217 370.061 326.977 353.672 321.471C351.204 320.64 348.908 319.582 346.847 318.28C343.583 310.126 343.927 298.944 349.396 284.426C358.716 259.665 388.883 241.992 395.319 238.448C403.003 251.547 412.531 274.292 409.467 303.364Z" fill="#FFCC4D"/>
<path d="M382.708 227.492C380.548 227.51 378.677 229.417 378.324 231.551C377.971 233.684 378.93 235.89 380.466 237.418C382.003 238.945 384.037 239.858 386.126 240.455C388.205 241.043 390.356 241.341 392.472 241.802C391.568 238.421 390.23 235.148 388.503 232.102C387.861 230.972 387.156 229.86 386.207 228.983C385.249 228.106 384.001 227.474 382.708 227.492Z" fill="#B62135"/>
<path d="M400.418 182.662L406.773 238.05C406.773 238.05 406.746 250.733 403.582 250.462C400.427 250.191 397.977 248.745 397.977 248.745C397.977 248.745 388.494 247.289 388.331 245.554C388.169 243.818 389.344 238.99 389.344 238.99C389.344 238.99 386.189 241.495 385.674 239.28C385.158 237.065 389.823 233.087 389.823 233.087L383.902 181.388L400.418 182.662Z" fill="#FDC78B"/>
<path d="M409.286 189.044C403.003 192.805 396.232 193.519 390.971 193.284C385.538 193.031 381.714 191.756 381.714 191.756L375.928 128.16C393.412 131.405 398.556 136.079 401.503 144.875C403.717 151.474 409.286 189.044 409.286 189.044Z" fill="#D22940"/>
<path d="M363.544 129.842C363.607 134.452 362.151 138.882 356.492 139.858C352.298 140.581 348.429 138.439 347.841 135.067C347.263 131.695 350.192 128.377 354.377 127.645C354.467 127.636 354.558 127.627 354.648 127.618L354.151 124.21L352.542 113.054L360.931 111.644C361.428 114.808 361.935 117.972 362.432 121.127C362.685 122.709 362.929 124.282 363.182 125.864C363.39 127.157 363.535 128.504 363.544 129.842Z" fill="#FDC78B"/>
<path d="M362.432 121.127C359.946 122.736 357.044 123.749 354.151 124.21L352.542 113.054L360.931 111.644C361.428 114.808 361.934 117.972 362.432 121.127Z" fill="#F2AB6B"/>
<path d="M380.638 100.154C378.342 95.1008 376.037 89.9841 374.916 84.5421C374.5 82.5261 374.256 80.3656 375.024 78.4581C376.136 75.6829 379.165 74.0828 382.13 73.7121C388.557 72.8985 394.949 76.9665 398.176 82.5894C401.403 88.2123 401.864 95.0646 400.897 101.474C400.327 105.244 398.926 109.402 395.455 110.984C392.345 112.394 388.539 111.12 386.044 108.796C383.531 106.455 382.048 103.264 380.638 100.154Z" fill="#6E3D1D"/>
<path d="M368.959 84.072C367.648 82.047 367.205 79.335 368.335 77.2016C369.465 75.0681 372.394 73.9201 374.473 75.1405C375.82 75.936 376.552 77.4818 376.905 79.0096C377.384 81.134 377.248 83.4482 376.227 85.3647C375.205 87.2902 373.244 88.7547 371.074 88.9084C368.895 89.0621 370.143 85.8981 368.959 84.072Z" fill="#D22940"/>
<path d="M374.039 107.522C370.64 113 363.851 116.408 357.532 115.142C357.071 114.935 356.61 114.727 356.149 114.519C346.377 110.107 337.011 105.461 327.203 101.076C323.379 95.5528 323.388 87.8145 326.697 81.9657C329.951 76.2072 336.071 72.3381 342.58 71.2081C342.688 71.1809 342.788 71.1629 342.896 71.1448C349.532 70.069 356.438 71.6781 362.296 74.9687C367.919 78.1237 372.746 82.942 375.187 88.9174C377.619 94.8929 377.447 102.044 374.039 107.522Z" fill="#6E3D1D"/>
<path d="M364.9 107.522C362.893 110.749 359.72 113.262 356.149 114.519C346.377 110.107 337.011 105.461 327.203 101.076C323.379 95.5528 323.388 87.8145 326.697 81.9657C329.951 76.2072 336.071 72.3381 342.58 71.2081C346.277 71.8137 349.884 73.1336 353.157 74.9687C358.78 78.1237 363.607 82.942 366.048 88.9174C368.479 94.8929 368.308 102.044 364.9 107.522Z" fill="#804A26"/>
<path d="M366.997 107.775C365.677 108.652 364.24 108.932 362.694 108.607C360.578 117.755 350.372 121.615 342.508 120.955C337.997 120.576 333.703 118.578 330.367 115.54C329.21 114.492 328.17 113.325 327.275 112.051C326.226 110.568 325.386 108.959 324.78 107.242C322.168 99.7835 324.31 90.8881 330.041 85.4551C331.65 92.4973 338.575 98.2196 345.735 99.2049C348.691 99.6117 351.701 99.2773 354.666 99.6298C357.622 99.9733 361.067 101.085 362.54 103.68C363.137 102.459 364.14 101.302 365.487 101.103C367.051 100.868 368.606 102.161 368.886 103.716C369.166 105.271 368.317 106.907 366.997 107.775Z" fill="#FDC78B"/>
<path d="M409.286 189.044C403.003 192.805 396.232 193.519 390.971 193.284L381.714 191.756L378.252 144.821L387.924 185.664C387.924 185.664 395.039 192.733 409.286 189.044Z" fill="#B62135"/>
<path d="M341.034 102.948C341.278 104.276 340.709 105.497 339.777 105.66C338.846 105.831 337.897 104.882 337.653 103.553C337.409 102.224 337.978 101.004 338.91 100.832C339.841 100.669 340.79 101.619 341.034 102.948Z" fill="#764119"/>
<path d="M335.881 97.5145C338.123 96.6286 340.808 96.945 342.788 98.3371C342.788 98.8976 342.815 99.5666 342.815 100.127C340.781 99.4671 338.286 99.2321 336.198 99.7112C336.143 99.0061 335.926 98.2196 335.881 97.5145Z" fill="#6E3D1D"/>
<path d="M324.211 102.948C323.966 104.276 324.536 105.497 325.467 105.66C326.398 105.831 327.347 104.882 327.592 103.553C327.836 102.224 327.266 101.004 326.335 100.832C325.404 100.669 324.455 101.619 324.211 102.948Z" fill="#764119"/>
<path d="M329.372 97.5145C327.13 96.6286 324.446 96.945 322.466 98.3371C322.466 98.8976 322.439 99.5666 322.439 100.127C324.473 99.4671 326.968 99.2321 329.056 99.7112C329.101 99.0061 329.318 98.2196 329.372 97.5145Z" fill="#6E3D1D"/>
<path d="M332.464 107.061C331.949 105.244 330.945 103.562 329.607 102.242C330.285 104.05 330.34 106.084 329.752 107.919C329.481 108.76 329.092 109.727 329.571 110.469C329.96 111.074 330.855 111.228 331.497 110.912C332.139 110.595 332.554 109.908 332.672 109.194C332.79 108.489 332.663 107.757 332.464 107.061Z" fill="#F2AB6B"/>
<path d="M333.531 113.615L342.263 111.074C342.263 111.074 343.9 115.929 340.356 116.887C336.803 117.845 333.531 113.615 333.531 113.615Z" fill="white"/>
<path d="M349.459 107.323C349.839 108.643 348.745 110.116 347.009 110.622C345.274 111.129 343.547 110.469 343.167 109.149C342.788 107.829 343.882 106.356 345.617 105.849C347.353 105.352 349.08 106.012 349.459 107.323Z" fill="#F2AB6B"/>
<path d="M330.367 115.54C329.21 114.492 328.17 113.325 327.275 112.051C328.893 111.707 330.439 112.367 330.792 113.606C330.982 114.257 330.81 114.953 330.367 115.54Z" fill="#F2AB6B"/>
<path d="M326.407 214.239L302.605 384.733H214.474L214.194 382.754L208.589 342.634L197.542 263.435L191.802 222.339L190.672 214.239H326.407Z" fill="#2A404B"/>
<path d="M326.407 214.239L302.605 384.733H214.474L214.194 382.754L228.757 379.743C262.829 372.701 288.692 344.831 293.176 310.325L300.851 251.303C302.044 242.154 295.49 233.811 286.315 232.798L191.802 222.339L190.672 214.239H326.407Z" fill="#21323B"/>
<path d="M331.452 206.103H185.627V214.239H331.452V206.103Z" fill="#2A404B"/>
<path d="M325.919 206.103H191.16L204.286 192.082H312.802L325.919 206.103Z" fill="#21323B"/>
<path d="M244.722 302.804C244.722 323.587 228.866 340.681 208.598 342.634L197.542 263.444C199.865 263.01 202.261 262.793 204.711 262.793C226.805 262.793 244.722 280.71 244.722 302.804Z" fill="#DAEDFB"/>
<path d="M297.217 391.766C303.588 391.766 308.752 386.602 308.752 380.231C308.752 373.861 303.588 368.696 297.217 368.696C290.847 368.696 285.682 373.861 285.682 380.231C285.682 386.602 290.847 391.766 297.217 391.766Z" fill="#2A404B"/>
<path d="M297.217 386.026C300.417 386.026 303.012 383.432 303.012 380.231C303.012 377.031 300.417 374.437 297.217 374.437C294.017 374.437 291.422 377.031 291.422 380.231C291.422 383.432 294.017 386.026 297.217 386.026Z" fill="#FFC509"/>
<path d="M134.145 331.18L120.395 327.329L75.7191 320.576L60.5047 326.073L58.9137 334.896C55.2886 356.049 69.5447 361.835 74.0376 363.119C66.4983 372.81 69.2826 388.819 69.2826 388.819C69.2826 388.819 121.29 393.421 144.306 396.277C147.659 396.693 151.067 396.377 154.24 395.211C154.665 395.057 155.072 394.894 155.479 394.732C167.249 389.977 174.77 378.351 174.77 365.659V362.721C174.77 338.774 134.145 331.18 134.145 331.18Z" fill="#51A9BD"/>
<path d="M76.0083 367.368L59.5646 362.721C59.5646 362.721 47.4148 359.15 43.4824 369.872C39.55 380.593 35.943 391.378 39.55 393.104C46.7006 396.522 49.3042 380.955 57.0424 381.669C64.7806 382.383 76.0083 384.887 76.0083 384.887V367.368Z" fill="#1B2930"/>
<path d="M69.9334 373.442L53.4897 368.796C53.4897 368.796 41.3399 365.225 37.4075 375.946C33.4751 386.668 29.8682 397.453 33.4751 399.179C40.6258 402.596 43.2293 387.03 50.9675 387.744C58.7058 388.458 69.9334 390.962 69.9334 390.962V373.442Z" fill="#2A404B"/>
<path d="M159.493 374.157L164.691 380.231C164.691 380.231 162.602 395.247 143.32 401.936C139.297 403.329 134.85 402.768 130.628 402.271C106.22 399.405 59.212 395.247 59.212 395.247C59.212 395.247 55.7949 375.585 66.7966 366.653L159.493 374.157Z" fill="#75BDCB"/>
<path d="M110.324 333.766L124.074 337.617C124.074 337.617 164.691 345.21 164.691 369.157V380.24L65.2869 369.872C65.2869 369.872 44.5582 366.346 48.8431 341.332L50.4342 332.509L65.6485 327.013L110.324 333.766Z" fill="#75BDCB"/>
<path d="M147.216 376.887C121.461 373.876 97.1077 363.29 77.292 346.594C80.0311 344.686 82.3725 342.092 84.1082 338.873C84.6596 337.843 83.0957 336.93 82.5442 337.96C80.8538 341.106 78.5305 343.619 75.8004 345.409C75.1857 345.129 74.4896 345.635 74.4715 346.205C70.4758 348.393 65.7298 349.125 60.8121 348.103C59.673 347.868 59.1939 349.613 60.333 349.848C65.8564 350.987 71.2171 350.137 75.6919 347.597C90.3006 359.991 107.296 369.04 125.538 374.301C105.497 372.647 85.4551 370.993 65.4225 369.329C64.2563 369.23 64.2654 371.038 65.4225 371.137C87.5434 372.963 109.664 374.789 131.776 376.624C132.201 376.661 132.463 376.444 132.572 376.145C137.381 377.257 142.272 378.107 147.207 378.677C148.374 378.83 148.364 377.022 147.216 376.887Z" fill="#51A9BD"/>
<path d="M116.553 249.531L121.742 246.25C121.742 246.25 127.274 247.56 132.355 257.902C135.519 264.348 159.502 304.838 159.502 304.838L140.726 313.308L119.672 278.197L116.553 249.531Z" fill="#FFCC4D"/>
<path d="M134.588 334.688C134.588 334.688 88.9174 350.996 50.4342 332.509L60.8302 270.115L62.0415 262.874C62.6472 257.45 65.079 253.274 68.469 250.055C73.0613 245.68 79.4074 243.077 85.3828 241.513L92.6148 241.115C92.6148 241.115 106.301 241.91 121.733 246.259L129.733 301.285L133.286 325.72L134.588 334.688Z" fill="#FFCC4D"/>
<path d="M133.286 325.72L101.772 330.638C101.772 330.638 94.0522 329.255 86.0337 315.948C79.778 305.561 66.3898 280.556 60.8302 270.115L62.0415 262.874C62.6472 257.45 65.079 253.274 68.469 250.055L81.3419 248.501C81.3419 248.501 89.6768 248.573 95.0104 260.171C100.344 271.77 111.698 294.577 111.698 294.577L128.458 298.13L129.733 301.285L133.286 325.72Z" fill="#FFA109"/>
<path d="M119.934 241.097C114.953 240.997 109.881 240.238 105.479 237.906C101.085 235.564 97.4422 231.442 96.6014 226.533C95.9144 222.474 97.171 218.271 99.2773 214.736C101.375 211.192 104.276 208.2 107.142 205.244C112.928 199.287 118.704 193.32 124.49 187.363C128.232 188.394 130.736 192.091 131.568 195.879C132.4 199.666 131.876 203.608 131.478 207.459C131.071 211.319 130.809 215.324 132.102 218.985C133.512 222.963 136.73 226.434 136.676 230.656C136.631 234.326 133.955 237.589 130.673 239.244C127.401 240.88 123.604 241.178 119.934 241.097Z" fill="#6E3D1D"/>
<path d="M105.153 220.73L96.5382 241.187C96.5382 241.187 102.098 242.082 100.841 244.595C99.5846 247.108 90.9695 247.289 84.8766 241.549L96.0048 216.788L105.153 220.73Z" fill="#FDC78B"/>
<path d="M124.87 217.34C123.92 218.515 122.836 219.564 121.624 220.458C121.235 220.748 120.838 221.028 120.422 221.281C115.992 224.02 110.568 224.78 105.379 224.427C100.986 224.129 96.5563 223.026 92.9041 220.558C89.261 218.09 86.4676 214.14 86.0789 209.755C85.7083 205.552 87.5343 201.393 90.1288 198.057C94.0612 192.995 99.8649 189.406 106.157 188.159C111.734 187.056 117.873 187.86 122.411 191.277C125.828 193.854 128.142 197.786 128.938 201.999C129.941 207.378 128.314 213.109 124.87 217.34Z" fill="#FDC78B"/>
<path d="M100.308 212.286C99.8287 215.007 100.796 217.774 102.044 220.242C103.291 222.709 104.855 225.033 105.714 227.654C106.573 230.276 106.636 233.368 105.009 235.6C103.644 237.481 101.338 238.439 99.0874 239C90.635 241.106 81.1792 238.611 74.8602 232.599C68.5413 226.597 65.5762 217.276 67.2486 208.725C68.035 204.729 69.8882 200.778 73.1607 198.365C75.9631 196.304 79.5339 195.526 82.3544 193.492C87.2089 189.985 88.9536 183.422 93.5188 179.552C96.3483 177.157 100.073 175.991 103.77 175.801C107.468 175.611 111.156 176.334 114.718 177.365C118.352 178.422 121.986 179.869 124.725 182.481C127.464 185.094 129.154 189.072 128.178 192.733C127.148 196.593 123.477 199.196 119.735 200.589C115.983 201.981 111.951 202.496 108.245 203.997C104.539 205.488 100.995 208.345 100.308 212.286Z" fill="#804A26"/>
<path d="M170.196 321.363C169.455 322.782 161.201 322.005 161.201 322.005C161.201 322.005 166.444 323.578 166.363 325.332C166.282 327.085 156.681 323.876 152.053 319.989L118.316 325.187L107.612 326.841C101.456 327.79 95.363 324.889 92.2171 319.537L63.2077 270.215C58.7058 262.558 61.7884 252.695 69.834 248.953C72.7178 247.624 75.7914 247.28 78.6932 247.786C83.4302 248.609 87.7061 251.674 89.8395 256.392L109.61 300.056L117.945 300.806L149.16 303.599C149.16 303.599 156.347 297.778 161.237 303.925C161.237 303.925 168.714 302.786 168.849 304.576C168.976 306.375 160.605 308.888 160.605 308.888C160.605 308.888 171.398 308.996 171.959 310.858C172.519 312.73 162.259 313.372 162.259 313.372C162.259 313.372 171.109 315.125 170.974 316.861C170.838 318.615 161.445 318.081 161.445 318.081C161.445 318.081 170.937 319.953 170.196 321.363Z" fill="#FFCC4D"/>
<path d="M184.588 277.275V300.553C184.588 303.952 181.831 306.718 178.422 306.718H173.197C169.816 306.691 167.086 303.934 167.086 300.553V277.275C167.086 275.34 167.71 273.451 168.876 271.905C170.033 270.359 170.666 268.47 170.666 266.535V265.414H181.008V266.535C181.008 268.47 181.632 270.359 182.798 271.905C183.964 273.451 184.588 275.34 184.588 277.275Z" fill="#51A9BD"/>
<path d="M179.308 277.275V300.553C179.308 303.934 176.578 306.682 173.197 306.718C169.816 306.691 167.086 303.934 167.086 300.553V277.275C167.086 275.34 167.71 273.451 168.876 271.905C170.033 270.359 170.666 268.47 170.666 266.535V265.414H175.72V266.535C175.72 268.47 176.352 270.359 177.518 271.905C178.676 273.451 179.308 275.34 179.308 277.275Z" fill="#75BDCB"/>
<path d="M182.499 260.171H169.175V265.414H182.499V260.171Z" fill="#2A404B"/>
<path d="M164.691 277.275V300.553C164.691 303.952 161.934 306.718 158.525 306.718H153.3C149.919 306.691 147.189 303.934 147.189 300.553V277.275C147.189 275.34 147.813 273.451 148.979 271.905C150.136 270.359 150.769 268.47 150.769 266.535V265.414H161.111V266.535C161.111 268.47 161.735 270.359 162.901 271.905C164.067 273.451 164.691 275.34 164.691 277.275Z" fill="#51A9BD"/>
<path d="M159.411 277.275V300.553C159.411 303.934 156.681 306.682 153.3 306.718C149.919 306.691 147.189 303.934 147.189 300.553V277.275C147.189 275.34 147.813 273.451 148.979 271.905C150.136 270.359 150.769 268.47 150.769 266.535V265.414H155.822V266.535C155.822 268.47 156.455 270.359 157.621 271.905C158.779 273.451 159.411 275.34 159.411 277.275Z" fill="#75BDCB"/>
<path d="M162.602 260.171H149.278V265.414H162.602V260.171Z" fill="#2A404B"/>
<path d="M195.77 279.788H175.494V327.022H195.77V279.788Z" fill="#B62135"/>
<path d="M184.913 279.788H139.704V327.022H184.913V279.788Z" fill="#D22940"/>
<path d="M170.196 321.363C169.455 322.782 161.201 322.005 161.201 322.005C161.201 322.005 164.781 322.439 164.7 324.183C164.618 325.928 156.681 323.867 152.053 319.98L118.316 325.178L117.945 300.797L149.16 303.59C149.16 303.59 155.94 299.143 161.237 303.916C161.237 303.916 168.714 302.777 168.849 304.567C168.976 306.366 160.605 308.879 160.605 308.879C160.605 308.879 171.398 308.987 171.959 310.849C172.519 312.721 162.259 313.363 162.259 313.363C162.259 313.363 171.109 315.116 170.974 316.852C170.838 318.606 161.445 318.072 161.445 318.072C161.445 318.072 170.937 319.953 170.196 321.363Z" fill="#FDC78B"/>
<path d="M198.627 308.725C198.627 308.725 198.256 305.516 192.66 308.725C187.065 311.934 198.998 311.934 198.627 308.725Z" fill="#FDC78B"/>
<path d="M198.627 305.67C198.627 305.67 198.256 302.46 192.66 305.67C187.065 308.879 198.998 308.879 198.627 305.67Z" fill="#FDC78B"/>
<path d="M198.627 302.614C198.627 302.614 198.256 299.405 192.66 302.614C187.065 305.823 198.998 305.823 198.627 302.614Z" fill="#FDC78B"/>
<path d="M198.627 299.558C198.627 299.558 198.256 296.349 192.66 299.558C187.065 302.759 198.998 302.759 198.627 299.558Z" fill="#FDC78B"/>
<path d="M111.508 208.254C111.264 209.583 111.834 210.804 112.765 210.976C113.696 211.147 114.645 210.198 114.889 208.869C115.133 207.54 114.564 206.32 113.633 206.157C112.693 205.976 111.743 206.926 111.508 208.254Z" fill="#764119"/>
<path d="M116.661 202.821C114.419 201.936 111.734 202.252 109.755 203.644C109.755 204.205 109.728 204.874 109.728 205.434C111.762 204.774 114.257 204.539 116.345 205.018C116.399 204.313 116.607 203.527 116.661 202.821Z" fill="#6E3D1D"/>
<path d="M128.323 208.254C128.567 209.583 127.997 210.804 127.066 210.976C126.135 211.147 125.186 210.198 124.942 208.869C124.698 207.54 125.267 206.32 126.198 206.157C127.13 205.976 128.079 206.926 128.323 208.254Z" fill="#764119"/>
<path d="M123.17 202.821C125.412 201.936 128.097 202.252 130.077 203.644C130.077 204.205 130.104 204.874 130.104 205.434C128.07 204.774 125.575 204.539 123.486 205.018C123.432 204.313 123.215 203.527 123.17 202.821Z" fill="#6E3D1D"/>
<path d="M120.069 212.368C120.585 210.551 121.588 208.869 122.926 207.549C122.248 209.357 122.194 211.391 122.781 213.226C123.052 214.067 123.441 215.034 122.962 215.776C122.573 216.381 121.678 216.535 121.037 216.219C120.395 215.902 119.979 215.215 119.861 214.501C119.744 213.796 119.879 213.064 120.069 212.368Z" fill="#F2AB6B"/>
<path d="M119.003 218.922L110.27 216.381C110.27 216.381 108.634 221.236 112.177 222.194C115.73 223.152 119.003 218.922 119.003 218.922Z" fill="white"/>
<path d="M103.074 212.63C102.694 213.95 103.788 215.423 105.524 215.929C107.26 216.436 108.986 215.776 109.366 214.456C109.746 213.136 108.652 211.663 106.916 211.156C105.18 210.65 103.463 211.31 103.074 212.63Z" fill="#F2AB6B"/>
<path d="M124.87 217.34C123.92 218.515 122.836 219.564 121.624 220.458C121.371 219.961 121.299 219.428 121.443 218.913C121.787 217.701 123.288 217.041 124.87 217.34Z" fill="#F2AB6B"/>
<path d="M255.877 403.979C256.121 402.994 256.365 402.009 256.591 401.023C255.904 400.382 255.226 399.722 254.566 399.053C254.801 398.076 255.027 397.1 255.244 396.124C254.584 395.464 253.943 394.804 253.31 394.126C253.536 393.159 253.753 392.182 253.952 391.215C253.319 390.546 252.704 389.877 252.098 389.19C252.306 388.223 252.514 387.265 252.704 386.297C252.108 385.619 251.511 384.932 250.941 384.236C251.14 383.278 251.33 382.32 251.511 381.361C250.941 380.674 250.381 379.978 249.829 379.273C241.693 382.039 233.06 383.052 224.337 382.103C223.894 382.916 223.433 383.73 222.972 384.534C223.315 385.447 223.677 386.351 224.047 387.255C223.586 388.069 223.116 388.883 222.646 389.687C223.026 390.6 223.415 391.513 223.812 392.417C223.342 393.231 222.863 394.045 222.366 394.849C222.773 395.762 223.189 396.675 223.622 397.579C223.134 398.393 222.646 399.206 222.14 400.002C222.574 400.924 223.026 401.837 223.487 402.75C222.99 403.564 222.483 404.377 221.968 405.173C222.429 406.095 222.908 407.008 223.396 407.921C234.48 409.006 245.463 407.623 255.877 403.979Z" fill="#D22940"/>
<path d="M237.815 388.277C241.567 387.861 245.138 390.618 245.942 394.903C246.747 399.17 243.908 403.518 239.442 404.061C234.977 404.603 231.162 401.014 231.08 396.63C230.99 392.227 234.064 388.711 237.815 388.277Z" fill="#FFC509"/>
<path d="M237.092 386.035C239.027 392.363 241.359 398.601 244.089 404.694C242.86 405.254 241.612 405.778 240.356 406.276C237.806 400.056 235.646 393.701 233.892 387.274C234.968 386.885 236.043 386.469 237.092 386.035Z" fill="#5AAC40"/>
<path d="M170.567 393.511L170.91 396.865C171.037 398.131 172.176 399.062 173.441 398.926L174.174 398.854C175.439 398.727 176.37 397.588 176.235 396.323L175.891 392.969C175.765 391.703 174.626 390.772 173.36 390.908L172.628 390.98C171.362 391.107 170.44 392.237 170.567 393.511Z" fill="#5AAC40"/>
<path d="M185.618 386.523L175.81 392.155L176.027 394.262L176.108 395.03L176.325 397.136L187.065 400.68C189.722 401.557 192.57 401.864 195.391 401.575L213.398 399.74C215.034 399.577 216.228 398.212 216.074 396.693L215.496 391.016L215.414 390.248L214.836 384.571C214.682 383.052 213.236 381.958 211.599 382.13L193.592 383.965C190.771 384.254 188.05 385.131 185.618 386.523Z" fill="#FFC509"/>
<path d="M207.446 382.576L194.377 383.905L196.168 401.506L209.236 400.177L207.446 382.576Z" fill="#D22940"/>
<path d="M203.066 385.981C204.937 386.37 206.618 387.057 207.992 387.943L208.942 397.254C206.844 398.366 203.78 398.727 200.543 398.058C198.672 397.67 196.991 396.983 195.617 396.106L194.667 386.785C196.774 385.683 199.829 385.321 203.066 385.981Z" fill="#5AAC40"/>
<path d="M285.682 391.676C285.293 394.533 284.579 397.1 284.19 399.957C280.9 401.792 277.022 402.542 273.279 402.081C269.537 401.62 265.749 399.64 263.001 397.064C263.561 393.909 264.122 390.754 264.682 387.599C265.803 388.81 266.599 389.606 267.72 390.817C269.067 389.895 270.45 388.955 271.788 388.033C272.872 389.289 274.292 390.257 275.367 391.504C276.615 390.673 277.555 389.796 278.812 388.964C279.716 390.239 280.141 391.314 281.045 392.598C282.41 392.228 284.335 392.065 285.682 391.676Z" fill="#2A404B"/>
</g>
<defs>
<clipPath id="clip0_101_1718">
<rect width="452" height="452" fill="white"/>
</clipPath>
</defs>
</svg>
