<svg width="136" height="38" viewBox="0 0 136 38" fill="none" xmlns="http://www.w3.org/2000/svg">
<path d="M19.8203 26.1602V28H10.7852V26.1602H19.8203ZM11.2422 10.9375V28H8.98047V10.9375H11.2422ZM18.625 18.2734V20.1133H10.7852V18.2734H18.625ZM19.7031 10.9375V12.7891H10.7852V10.9375H19.7031ZM27.1328 26.4531C27.6484 26.4531 28.125 26.3477 28.5625 26.1367C29 25.9258 29.3594 25.6367 29.6406 25.2695C29.9219 24.8945 30.082 24.4688 30.1211 23.9922H32.1836C32.1445 24.7422 31.8906 25.4414 31.4219 26.0898C30.9609 26.7305 30.3555 27.25 29.6055 27.6484C28.8555 28.0391 28.0312 28.2344 27.1328 28.2344C26.1797 28.2344 25.3477 28.0664 24.6367 27.7305C23.9336 27.3945 23.3477 26.9336 22.8789 26.3477C22.418 25.7617 22.0703 25.0898 21.8359 24.332C21.6094 23.5664 21.4961 22.7578 21.4961 21.9062V21.4141C21.4961 20.5625 21.6094 19.7578 21.8359 19C22.0703 18.2344 22.418 17.5586 22.8789 16.9727C23.3477 16.3867 23.9336 15.9258 24.6367 15.5898C25.3477 15.2539 26.1797 15.0859 27.1328 15.0859C28.125 15.0859 28.9922 15.2891 29.7344 15.6953C30.4766 16.0938 31.0586 16.6406 31.4805 17.3359C31.9102 18.0234 32.1445 18.8047 32.1836 19.6797H30.1211C30.082 19.1562 29.9336 18.6836 29.6758 18.2617C29.4258 17.8398 29.082 17.5039 28.6445 17.2539C28.2148 16.9961 27.7109 16.8672 27.1328 16.8672C26.4688 16.8672 25.9102 17 25.457 17.2656C25.0117 17.5234 24.6562 17.875 24.3906 18.3203C24.1328 18.7578 23.9453 19.2461 23.8281 19.7852C23.7188 20.3164 23.6641 20.8594 23.6641 21.4141V21.9062C23.6641 22.4609 23.7188 23.0078 23.8281 23.5469C23.9375 24.0859 24.1211 24.5742 24.3789 25.0117C24.6445 25.4492 25 25.8008 25.4453 26.0664C25.8984 26.3242 26.4609 26.4531 27.1328 26.4531ZM34.0469 21.8008V21.5312C34.0469 20.6172 34.1797 19.7695 34.4453 18.9883C34.7109 18.1992 35.0938 17.5156 35.5938 16.9375C36.0938 16.3516 36.6992 15.8984 37.4102 15.5781C38.1211 15.25 38.918 15.0859 39.8008 15.0859C40.6914 15.0859 41.4922 15.25 42.2031 15.5781C42.9219 15.8984 43.5312 16.3516 44.0312 16.9375C44.5391 17.5156 44.9258 18.1992 45.1914 18.9883C45.457 19.7695 45.5898 20.6172 45.5898 21.5312V21.8008C45.5898 22.7148 45.457 23.5625 45.1914 24.3438C44.9258 25.125 44.5391 25.8086 44.0312 26.3945C43.5312 26.9727 42.9258 27.4258 42.2148 27.7539C41.5117 28.0742 40.7148 28.2344 39.8242 28.2344C38.9336 28.2344 38.1328 28.0742 37.4219 27.7539C36.7109 27.4258 36.1016 26.9727 35.5938 26.3945C35.0938 25.8086 34.7109 25.125 34.4453 24.3438C34.1797 23.5625 34.0469 22.7148 34.0469 21.8008ZM36.2148 21.5312V21.8008C36.2148 22.4336 36.2891 23.0312 36.4375 23.5938C36.5859 24.1484 36.8086 24.6406 37.1055 25.0703C37.4102 25.5 37.7891 25.8398 38.2422 26.0898C38.6953 26.332 39.2227 26.4531 39.8242 26.4531C40.418 26.4531 40.9375 26.332 41.3828 26.0898C41.8359 25.8398 42.2109 25.5 42.5078 25.0703C42.8047 24.6406 43.0273 24.1484 43.1758 23.5938C43.332 23.0312 43.4102 22.4336 43.4102 21.8008V21.5312C43.4102 20.9062 43.332 20.3164 43.1758 19.7617C43.0273 19.1992 42.8008 18.7031 42.4961 18.2734C42.1992 17.8359 41.8242 17.4922 41.3711 17.2422C40.9258 16.9922 40.4023 16.8672 39.8008 16.8672C39.207 16.8672 38.6836 16.9922 38.2305 17.2422C37.7852 17.4922 37.4102 17.8359 37.1055 18.2734C36.8086 18.7031 36.5859 19.1992 36.4375 19.7617C36.2891 20.3164 36.2148 20.9062 36.2148 21.5312Z" fill="#8BD88B"/>
<path d="M61.7617 10.9375V28H59.4883L50.8984 14.8398V28H48.6367V10.9375H50.8984L59.5234 24.1328V10.9375H61.7617ZM73.1992 25.0703V15.3203H75.3789V28H73.3047L73.1992 25.0703ZM73.6094 22.3984L74.5117 22.375C74.5117 23.2188 74.4219 24 74.2422 24.7188C74.0703 25.4297 73.7891 26.0469 73.3984 26.5703C73.0078 27.0938 72.4961 27.5039 71.8633 27.8008C71.2305 28.0898 70.4609 28.2344 69.5547 28.2344C68.9375 28.2344 68.3711 28.1445 67.8555 27.9648C67.3477 27.7852 66.9102 27.5078 66.543 27.1328C66.1758 26.7578 65.8906 26.2695 65.6875 25.668C65.4922 25.0664 65.3945 24.3438 65.3945 23.5V15.3203H67.5625V23.5234C67.5625 24.0938 67.625 24.5664 67.75 24.9414C67.8828 25.3086 68.0586 25.6016 68.2773 25.8203C68.5039 26.0312 68.7539 26.1797 69.0273 26.2656C69.3086 26.3516 69.5977 26.3945 69.8945 26.3945C70.8164 26.3945 71.5469 26.2188 72.0859 25.8672C72.625 25.5078 73.0117 25.0273 73.2461 24.4258C73.4883 23.8164 73.6094 23.1406 73.6094 22.3984ZM83.9922 15.3203V16.9844H77.1367V15.3203H83.9922ZM79.457 12.2383H81.625V24.8594C81.625 25.2891 81.6914 25.6133 81.8242 25.832C81.957 26.0508 82.1289 26.1953 82.3398 26.2656C82.5508 26.3359 82.7773 26.3711 83.0195 26.3711C83.1992 26.3711 83.3867 26.3555 83.582 26.3242C83.7852 26.2852 83.9375 26.2539 84.0391 26.2305L84.0508 28C83.8789 28.0547 83.6523 28.1055 83.3711 28.1523C83.0977 28.207 82.7656 28.2344 82.375 28.2344C81.8438 28.2344 81.3555 28.1289 80.9102 27.918C80.4648 27.707 80.1094 27.3555 79.8438 26.8633C79.5859 26.3633 79.457 25.6914 79.457 24.8477V12.2383ZM88.7031 17.3125V28H86.5352V15.3203H88.6445L88.7031 17.3125ZM92.6641 15.25L92.6523 17.2656C92.4727 17.2266 92.3008 17.2031 92.1367 17.1953C91.9805 17.1797 91.8008 17.1719 91.5977 17.1719C91.0977 17.1719 90.6562 17.25 90.2734 17.4062C89.8906 17.5625 89.5664 17.7812 89.3008 18.0625C89.0352 18.3438 88.8242 18.6797 88.668 19.0703C88.5195 19.4531 88.4219 19.875 88.375 20.3359L87.7656 20.6875C87.7656 19.9219 87.8398 19.2031 87.9883 18.5312C88.1445 17.8594 88.3828 17.2656 88.7031 16.75C89.0234 16.2266 89.4297 15.8203 89.9219 15.5312C90.4219 15.2344 91.0156 15.0859 91.7031 15.0859C91.8594 15.0859 92.0391 15.1055 92.2422 15.1445C92.4453 15.1758 92.5859 15.2109 92.6641 15.25ZM97.0234 15.3203V28H94.8438V15.3203H97.0234ZM94.6797 11.957C94.6797 11.6055 94.7852 11.3086 94.9961 11.0664C95.2148 10.8242 95.5352 10.7031 95.957 10.7031C96.3711 10.7031 96.6875 10.8242 96.9062 11.0664C97.1328 11.3086 97.2461 11.6055 97.2461 11.957C97.2461 12.293 97.1328 12.582 96.9062 12.8242C96.6875 13.0586 96.3711 13.1758 95.957 13.1758C95.5352 13.1758 95.2148 13.0586 94.9961 12.8242C94.7852 12.582 94.6797 12.293 94.6797 11.957Z" fill="black"/>
</svg>
