<svg width="443" height="443" viewBox="0 0 443 443" fill="none" xmlns="http://www.w3.org/2000/svg">
<path d="M347.649 233.939L347.525 232.221C347.525 232.221 348.295 232.167 349.58 232.167C350.874 232.15 352.717 232.212 354.914 232.38C359.308 232.699 365.147 233.585 370.8 235.215C376.479 236.766 381.884 239.185 385.764 241.258C387.705 242.321 389.317 243.189 390.372 243.951C391.444 244.66 392.064 245.068 392.064 245.068L391.098 246.494C391.098 246.494 390.496 246.095 389.45 245.413C388.431 244.678 386.845 243.827 384.958 242.791C381.166 240.762 375.886 238.405 370.33 236.881C364.802 235.286 359.078 234.418 354.781 234.108C352.628 233.948 350.838 233.886 349.589 233.904C348.331 233.895 347.649 233.939 347.649 233.939Z" fill="#108F6E"/>
<path d="M393.818 254.264C392.516 253.245 391.727 251.845 391.435 250.366C391.16 248.868 391.284 247.424 392.161 246.157C393.003 244.935 394.447 244.155 396.007 244.146C397.566 244.12 399.338 244.722 400.871 245.927C402.35 247.194 403.192 248.895 403.422 250.446C403.644 252.014 403.21 253.467 402.129 254.521C401.048 255.567 399.551 256.036 398.053 255.983C396.529 255.948 395.067 255.336 393.818 254.264Z" fill="#FCE300"/>
<path d="M394.429 250.738C394.429 250.738 395.121 251.084 396.104 251.385C397.096 251.677 398.257 252.076 399.382 251.952C399.391 250.835 398.957 249.542 398.399 248.656C397.849 247.761 397.3 247.132 397.3 247.132C398.975 246.707 400.295 245.918 401.181 245.227C402.076 244.536 402.528 243.933 402.528 243.933C400.543 242.915 398.78 242.454 397.282 242.339C395.794 242.215 394.456 242.569 393.446 242.95C391.399 243.756 390.38 244.979 390.38 244.979C390.38 244.979 389.716 246.441 389.654 248.55C389.61 249.622 389.769 250.773 390.097 252.12C390.442 253.458 391.054 254.858 392.126 256.24C392.126 256.24 392.64 255.682 393.189 254.725C393.756 253.777 394.341 252.413 394.429 250.738Z" fill="#108F6E"/>
<path d="M224.096 394.917C322.02 394.917 401.402 388.257 401.402 380.041C401.402 371.825 322.02 365.165 224.096 365.165C126.172 365.165 46.7897 371.825 46.7897 380.041C46.7897 388.257 126.172 394.917 224.096 394.917Z" fill="#EDEDED"/>
<path d="M103.494 230.112L102.865 231.858C102.865 231.858 102.156 231.601 100.862 231.202C99.5687 230.794 97.7081 230.254 95.4576 229.678C90.9568 228.517 84.8611 227.259 78.6945 226.515C72.528 225.735 66.3171 225.549 61.6745 225.629C59.3531 225.744 57.4128 225.762 56.0661 225.904C54.7194 226.037 53.9485 226.116 53.9485 226.116L53.7625 224.273C53.7625 224.273 54.551 224.194 55.9243 224.061C57.2976 223.91 59.2734 223.892 61.6302 223.777C66.3525 223.697 72.6697 223.892 78.916 224.681C85.1712 225.434 91.3466 226.71 95.9184 227.888C98.2042 228.473 100.1 229.022 101.42 229.439C102.732 229.837 103.494 230.112 103.494 230.112Z" fill="#108F6E"/>
<path d="M45.1063 220.499C47.1441 220.162 49.0933 220.508 50.5374 221.349C51.9905 222.271 52.9385 223.653 53.1157 225.257C53.284 226.869 52.6727 228.402 51.6095 229.572C50.5552 230.821 49.049 231.733 47.2681 232.026C46.3732 232.141 45.5138 232.212 44.6898 232.097C43.8659 231.99 43.0773 231.733 42.3597 231.361C40.9332 230.608 39.7903 229.377 39.3561 227.817C38.922 226.258 39.303 224.663 40.3396 223.316C40.8623 222.643 41.5357 222.041 42.3419 221.544C43.1659 221.057 44.0874 220.641 45.1063 220.499Z" fill="#FCE300"/>
<path d="M47.7731 223.503C47.7731 223.503 46.9403 223.804 45.9568 224.371C44.9645 224.894 43.8659 225.833 43.2811 226.896C44.2646 227.596 45.567 227.888 46.6568 228.136C47.7377 228.358 48.5705 228.384 48.5705 228.384C47.7731 230.006 47.5871 231.601 47.5959 232.797C47.5959 233.993 47.7908 234.781 47.7908 234.781C49.5628 234.028 50.9007 233.018 51.9373 231.937C52.9917 230.936 53.727 229.829 54.2409 228.81C55.2775 226.763 55.375 225.044 55.375 225.044C55.375 225.044 55.0206 223.37 53.5144 221.58C52.7613 220.685 51.707 219.755 50.2539 219.002C48.8009 218.319 46.9403 217.841 44.5924 217.761C44.5924 217.761 44.6987 218.567 45.1683 219.684C45.629 220.8 46.4353 222.227 47.7731 223.503Z" fill="#108F6E"/>
<path d="M223.361 116.899C223.361 116.899 208.999 109.793 206.482 94.173C203.966 78.5528 228.898 72.6255 239.238 98.479C239.238 98.479 237.368 70.4725 254.415 67.4247C271.47 64.3768 268.715 98.4524 263.541 103.848C263.541 103.848 270.708 98.6562 277.734 102.971C284.76 107.277 282.492 124.155 259.837 128.647C237.182 133.122 223.361 116.899 223.361 116.899Z" fill="#FFD200"/>
<path d="M239.016 121.231C235.038 112.434 227.799 103.015 227.729 102.927L228.127 102.625C228.198 102.723 235.463 112.177 239.468 121.028L239.016 121.231Z" fill="white"/>
<path d="M256.792 85.2659L250.847 119.708L251.336 119.793L257.281 85.3502L256.792 85.2659Z" fill="white"/>
<path d="M141.406 147.741C141.406 147.741 135.487 134.761 123.287 134.77C111.087 134.77 109.315 147.661 116.456 157.221C116.456 157.221 104.743 149.087 87.9001 149.743C71.0572 150.399 58.6178 162.838 62.2769 176.748C65.9361 190.658 84.7282 193.83 90.0973 192.368C90.0973 192.368 71.5534 205.543 78.8717 217.504C86.1901 229.465 109.137 217.504 109.137 217.504L141.406 147.741Z" fill="#BCE13E"/>
<path d="M116.775 181.533C116.562 181.444 95.8032 172.885 85.1801 171.831L85.2775 170.839C96.0424 171.911 116.943 180.523 117.156 180.611L116.775 181.533Z" fill="white"/>
<path d="M85.5256 181.471L84.9408 180.664C89.105 177.608 97.336 174.551 97.6815 174.418L98.027 175.348C97.9384 175.393 89.5835 178.502 85.5256 181.471Z" fill="white"/>
<path d="M107.215 177.679C107.1 177.36 104.353 169.775 104.114 166.701L105.106 166.621C105.337 169.572 108.127 177.262 108.154 177.342L107.215 177.679Z" fill="white"/>
<path d="M89.486 211.878L88.981 211.019C99.3206 204.985 107.525 203.762 107.605 203.753L107.746 204.737C107.676 204.755 99.6484 205.96 89.486 211.878Z" fill="white"/>
<path d="M133.963 161.314C133.635 160.96 125.918 152.543 123.81 145.694L124.758 145.402C126.795 152.029 134.61 160.552 134.69 160.641L133.963 161.314Z" fill="white"/>
<path d="M82.0879 239.876L81.2728 233.807C78.1009 233.364 74.6721 233.098 70.9775 233.089C60.9302 233.053 51.0602 234.879 42.8558 238.21L42.4926 242.507L40.4282 239.264C39.0549 239.893 37.7436 240.576 36.4855 241.302L37.7879 249.25L33.0389 243.517C29.3089 246.211 26.4294 249.285 24.6574 252.767C22.9031 256.222 22.3361 259.961 23.1512 263.922C23.8511 267.342 25.4193 270.23 27.5989 272.622C28.6887 273.818 29.9202 274.882 31.3024 275.838C32.6934 276.804 34.2262 277.637 35.8741 278.355C42.4748 281.243 51.069 282.306 60.3455 281.624L62.5427 274.651L65.5994 281.075C67.6993 280.773 69.8257 280.392 71.9432 279.923L71.3496 275.75L74.8227 279.241C75.6467 279.028 76.4618 278.807 77.2769 278.576C91.9668 274.332 101.243 267.359 106.834 261.414C112.425 255.469 114.347 250.561 114.347 250.561C114.347 250.561 105.904 238.644 85.1623 234.48L82.0879 239.876Z" fill="#FFD200"/>
<path d="M107.584 250.099L39.2783 263.001L39.4625 263.977L107.768 251.074L107.584 250.099Z" fill="white"/>
<path d="M62.339 259.651C57.4748 259.368 47.8263 255.159 47.4187 254.982L47.8174 254.069C47.9149 254.114 57.7141 258.384 62.401 258.659L62.339 259.651Z" fill="white"/>
<path d="M66.2551 267.306L65.2893 267.067C66.326 262.903 71.7128 257.348 71.9432 257.108L72.652 257.799C72.6077 257.853 67.2297 263.399 66.2551 267.306Z" fill="white"/>
<path d="M89.1228 254.574C83.5321 253.299 77.7022 247.38 77.4541 247.132L78.1629 246.432C78.225 246.494 84.046 252.386 89.3443 253.6L89.1228 254.574Z" fill="white"/>
<path d="M356.163 298.706L354.852 304.536C357.607 306.016 360.646 307.424 364.022 308.682C373.21 312.12 382.849 313.795 391.479 313.52L393.269 309.71L394.066 313.378C395.537 313.263 396.963 313.095 398.363 312.847L399.861 305.13L402.262 311.978C406.585 310.782 410.262 308.939 413.062 306.361C415.844 303.801 417.625 300.567 418.219 296.668C418.732 293.301 418.281 290.13 417.102 287.206C416.509 285.744 415.738 284.353 414.799 283.006C413.851 281.651 412.734 280.366 411.467 279.152C406.408 274.27 398.904 270.389 390.186 267.864L385.809 273.499L385.18 266.589C383.16 266.154 381.086 265.782 378.987 265.49L378.109 269.512L376.116 265.144C375.292 265.056 374.468 264.985 373.644 264.923C358.768 263.833 347.914 267.067 340.782 270.611C333.65 274.155 330.23 278 330.23 278C330.23 278 333.916 291.76 351.485 302.596L356.163 298.706Z" fill="#FFD200"/>
<path d="M336.441 279.72L336.274 280.698L403.135 292.065L403.301 291.087L336.441 279.72Z" fill="white"/>
<path d="M392.321 297.342C392.25 297.271 384.737 290.041 380.537 288.207L380.936 287.294C385.295 289.199 392.702 296.323 393.012 296.624L392.321 297.342Z" fill="white"/>
<path d="M371.287 286.382L370.862 285.487C370.933 285.452 377.72 282.2 379.935 278.966L380.759 279.524C378.384 282.98 371.571 286.24 371.287 286.382Z" fill="white"/>
<path d="M361.958 294.037C361.922 293.966 358.6 286.594 354.161 283.688L354.71 282.855C359.388 285.921 362.728 293.31 362.87 293.629L361.958 294.037Z" fill="white"/>
<path d="M308.001 343.687L294.874 377.793L296.833 378.547L309.961 344.441L308.001 343.687Z" fill="#BCE13E"/>
<path d="M309.965 343.688L308.005 344.443L321.133 378.549L323.093 377.795L309.965 343.688Z" fill="#BCE13E"/>
<path d="M314.893 357.244H303.544V359.344H314.893V357.244Z" fill="#BCE13E"/>
<path d="M317.374 364.74H300.93V366.84H317.374V364.74Z" fill="#BCE13E"/>
<path d="M79.6425 378.216C79.6425 378.216 79.9615 379.465 80.8298 380.652C81.6892 381.839 83.0005 383.31 83.16 383.948C83.3194 384.586 82.5486 385.162 81.8132 384.905C81.0779 384.648 75.7707 382.247 74.5215 381.29C73.2722 380.333 72.9267 379.979 72.9532 379.757C72.9798 379.536 74.5037 376.86 74.9467 376.196C75.3897 375.54 78.7122 375.558 79.6425 378.216Z" fill="#91B31E"/>
<path d="M93.4553 371.128C93.4553 371.128 94.3324 372.076 95.6614 372.705C96.9816 373.334 98.8422 373.998 99.2852 374.486C99.7282 374.973 99.3295 375.841 98.5675 375.974C97.7967 376.098 91.9934 376.532 90.434 376.284C88.8835 376.036 88.4051 375.894 88.3253 375.682C88.2456 375.469 88.3076 372.395 88.3696 371.606C88.4405 370.809 91.3732 369.241 93.4553 371.128Z" fill="#91B31E"/>
<path d="M93.7034 324.489C93.7034 324.489 96.2639 341.65 96.3702 346.142C96.4766 350.634 93.7034 371.42 93.7034 371.42H88.2899C88.2899 371.42 88.8215 361.293 88.8215 359.707C88.8215 358.121 88.2899 344.291 88.2899 344.291L88.8215 325.038C88.8127 325.047 91.9845 323.098 93.7034 324.489Z" fill="#0E1A34"/>
<path d="M81.1753 325.091C81.1753 325.091 79.4831 329.495 80.0058 338.567C80.5374 347.64 80.9715 349.757 80.9715 349.757C80.9715 349.757 74.9024 373.361 74.105 376.178C74.105 376.178 76.9225 378.207 80.0058 378.384C80.0058 378.384 86.4382 362.534 88.724 356.89C91.0099 351.255 91.6744 347.286 91.6921 342.359C91.7187 337.424 92.2415 324.125 92.2415 324.125L81.1753 325.091Z" fill="#0E1A34"/>
<path d="M89.4772 355.658L88.9987 355.516C90.6998 349.961 91.5415 343.688 91.577 336.326H92.0731C92.0377 343.733 91.1871 350.059 89.4772 355.658Z" fill="white"/>
<path d="M97.9385 322.017C97.9385 322.017 86.7748 320.085 82.7347 317.853C78.6945 315.611 79.1907 313.626 79.7489 312.191C80.3071 310.765 82.0525 307.717 82.0525 307.717L86.004 310.543L85.9066 311.429L85.2332 312.971C85.2332 312.971 86.5268 313.786 88.476 314.867C90.4252 315.948 98.3549 319.58 98.3549 319.58C98.3549 319.58 100.277 321.175 97.9385 322.017Z" fill="#FF9A5C"/>
<path d="M97.6372 321.928C98.5498 322.912 99.737 323.434 99.737 323.434C99.8256 324.187 100.26 324.506 100.508 324.48C100.756 324.453 100.756 323.319 100.756 323.319C100.969 323.842 101.828 324.365 101.943 324.046C102.058 323.727 101.943 323.204 101.943 323.204C101.943 323.204 102.289 323.665 102.554 323.665C102.811 323.665 103.13 323.434 103.015 322.85C102.9 322.274 102.554 321.397 102.2 320.936C101.855 320.475 101.651 320.005 100.898 319.837C100.145 319.66 99.8788 319.775 99.0105 319.695C98.1422 319.607 96.8309 319.695 96.8309 319.695L97.6372 321.928Z" fill="#FF9A5C"/>
<path d="M89.4151 286.559C89.4151 286.559 87.9266 283.325 83.7359 284.548C79.5451 285.771 80.8564 289.704 78.1452 291.361C75.434 293.018 71.4205 293.895 70.3661 298.529C69.3206 303.163 72.5545 303.508 70.3661 306.308C68.1777 309.108 67.398 311.11 69.7548 313.998C72.1115 316.878 76.2669 316.01 78.8629 314.61C81.4588 313.21 92.8174 307.885 92.8174 307.885C92.8174 307.885 95.4488 305.094 92.8174 302.117C90.1859 299.14 90.8947 294.604 90.8947 294.604C90.8947 294.604 91.8516 294.427 92.206 291.804C92.5604 289.182 91.7187 285.762 89.4151 286.559Z" fill="#753519"/>
<path d="M295.322 67.0525L296.783 65.9893C296.783 65.9893 301.807 72.1204 310.02 76.258C318.233 80.3956 321.051 81.9816 321.795 82.1145C322.539 82.2474 326.075 82.8587 327.297 84.4181C328.52 85.9774 328.653 86.8634 328.387 86.9254C328.112 86.9963 326.757 85.0205 326.757 85.0205C326.757 85.0205 328.112 86.7748 327.979 87.4216C327.847 88.0684 327.085 86.9609 326.81 86.6862C326.535 86.4116 325.853 85.623 325.853 85.623C325.853 85.623 327.297 87.5013 327.35 88.0772C327.404 88.6531 326.456 87.9178 325.72 87.0938C324.985 86.2787 324.17 85.8977 323.975 86.1369C323.78 86.385 323.7 87.3862 323.399 87.2001C323.098 87.0052 323.044 86.2432 322.912 85.7028C322.424 85.6939 320.209 84.8965 316.231 84.0991C312.244 83.3017 296.305 76.3023 292.672 71.7926C289.031 67.3005 295.322 67.0525 295.322 67.0525Z" fill="#FF9A5C"/>
<path d="M396.29 230.617C397.69 228.969 398.549 227.162 398.815 225.248C399.001 223.414 398.567 221.491 397.539 219.631C397.539 219.631 398.009 220.127 398.709 220.871C399.4 221.624 400.366 222.59 401.252 223.618C402.944 225.753 404.636 227.888 404.636 227.888C403.174 229.589 402.359 231.379 401.916 233.319C401.509 235.242 401.633 237.191 402.359 239.096C403.936 237.652 404.982 235.977 405.442 234.143C405.673 233.222 405.761 232.265 405.699 231.29C405.637 230.307 405.451 229.288 404.999 228.34C404.999 228.34 405.239 228.641 405.584 229.084C405.921 229.545 406.32 230.192 406.745 230.821C407.587 232.088 408.419 233.355 408.419 233.355C408.437 234.453 408.588 235.472 408.871 236.42C409.111 237.395 409.429 238.325 409.908 239.167C410.856 240.859 412.327 242.25 414.311 243.34C414.524 241.169 414.108 239.105 413.168 237.324C412.69 236.438 412.105 235.614 411.361 234.905C410.572 234.232 409.66 233.647 408.65 233.186C408.65 233.186 408.233 232.548 407.604 231.6C407.285 231.122 406.922 230.573 406.532 229.979C406.337 229.678 406.134 229.377 405.93 229.067C405.699 228.774 405.46 228.473 405.23 228.172C403.343 225.788 401.455 223.405 401.455 223.405C404.778 225.939 408.969 226.382 412.929 224.743C411.166 223.059 409.084 222.103 407.082 221.792C405.053 221.5 403.05 221.872 401.074 222.962C401.074 222.962 399.205 220.968 397.336 218.975C396.432 217.947 395.369 217.079 394.624 216.379C393.862 215.688 393.357 215.236 393.357 215.236C394.297 215.732 395.262 216.087 396.237 216.308C397.22 216.521 398.213 216.627 399.161 216.645C401.083 216.654 403.05 216.122 404.929 215.023C403.936 214.297 402.917 213.739 401.907 213.349C400.906 212.95 399.79 212.826 398.771 212.817C396.689 212.826 394.722 213.508 392.932 214.837C392.932 214.837 392.427 214.377 391.665 213.694C390.859 213.065 389.778 212.232 388.697 211.391C387.616 210.558 386.544 209.707 385.667 209.176C384.808 208.609 384.24 208.237 384.24 208.237C385.242 208.582 386.252 208.786 387.262 208.866C388.245 208.981 389.202 208.981 390.168 208.839C392.09 208.556 393.978 207.749 395.688 206.394C393.473 205.277 391.32 204.755 389.255 205.065C387.191 205.375 385.33 206.349 383.744 207.918C383.744 207.918 383.177 207.546 382.318 206.979C381.458 206.42 380.245 205.791 379.057 205.109C378.464 204.772 377.861 204.445 377.303 204.126C376.727 203.851 376.187 203.594 375.726 203.372C374.805 202.929 374.184 202.637 374.184 202.637C376.258 203.045 378.295 202.885 380.138 202.371C381.999 201.813 383.753 200.741 385.251 199.155C384.072 198.748 382.929 198.517 381.831 198.437C381.281 198.402 380.75 198.402 380.227 198.455C379.695 198.526 379.181 198.632 378.676 198.783C376.683 199.377 374.991 200.599 373.662 202.38C373.662 202.38 373.396 202.256 372.944 202.035C372.474 201.84 371.801 201.574 370.995 201.246C369.4 200.555 367.203 199.793 364.988 199.075C362.764 198.411 360.513 197.826 358.795 197.507C357.085 197.153 355.924 197.038 355.924 197.038L355.897 197.321C355.897 197.321 356.704 197.41 357.909 197.622C359.114 197.826 360.708 198.198 362.294 198.597C363.862 199.049 365.448 199.474 366.591 199.908C367.752 200.307 368.523 200.573 368.523 200.573C368.222 202.77 368.443 204.861 369.125 206.642C369.825 208.387 370.915 210.009 372.474 211.258C373.068 209.194 373.095 207.218 372.536 205.401C371.996 203.541 370.764 202.061 369.063 200.777C369.063 200.777 369.692 201.033 370.64 201.414C371.58 201.804 372.864 202.283 374.078 202.903C375.301 203.497 376.541 204.064 377.445 204.533C378.34 205.029 378.933 205.366 378.933 205.366C378.295 207.51 378.225 209.574 378.65 211.417C379.057 213.296 379.899 215.059 381.29 216.494C382.176 214.545 382.486 212.605 382.185 210.735C382.034 209.805 381.733 208.883 381.29 208.006C380.821 207.165 380.191 206.385 379.429 205.65C379.429 205.65 380.023 205.986 380.918 206.482C381.831 206.943 382.938 207.749 384.081 208.485C386.402 209.92 388.52 211.63 388.52 211.63C387.581 213.659 387.209 215.688 387.368 217.575C387.536 219.462 388.086 221.376 389.255 223.006C390.416 221.199 391.001 219.312 390.983 217.407C390.965 216.459 390.823 215.493 390.496 214.572C390.141 213.686 389.636 212.808 388.989 211.976C388.989 211.976 389.53 212.392 390.336 213.012C391.169 213.606 392.179 214.527 393.18 215.44C394.19 216.352 395.2 217.265 395.962 217.947C396.352 218.275 396.618 218.612 396.831 218.824C397.034 219.046 397.149 219.17 397.149 219.17C395.927 221.048 395.262 223.024 395.138 224.938C395.076 225.895 395.156 226.834 395.369 227.755C395.572 228.721 395.838 229.704 396.29 230.617Z" fill="#BCE13E"/>
<path d="M85.1003 106.187C83.2663 107.986 82.079 110.041 81.5652 112.256C81.0247 114.489 81.2551 116.828 82.1942 119.167C82.1942 119.167 81.7158 118.511 80.9981 117.528C80.2627 116.553 79.3502 115.215 78.4465 113.86C77.5427 112.513 76.6302 111.166 75.9568 110.156C75.6113 109.66 75.3455 109.226 75.1594 108.916C74.9733 108.615 74.867 108.438 74.867 108.438C76.7719 106.568 78.0212 104.424 78.5971 102.182C78.8895 101.057 79.0135 99.9142 78.9603 98.7536C78.9426 97.5752 78.792 96.3791 78.4465 95.183C76.4618 96.8132 75.0885 98.7536 74.3709 100.933C73.7064 103.086 73.7684 105.425 74.5037 107.853C74.5037 107.853 73.5646 106.311 72.6166 104.77C72.147 103.999 71.6597 103.237 71.3319 102.643C71.0041 102.05 70.7914 101.651 70.7914 101.651C70.9686 99.0017 70.4282 96.6892 69.365 94.6337C68.3638 92.5604 66.7247 90.8062 64.4476 89.3708C64.0401 91.9491 64.3856 94.4476 65.378 96.6272C66.4234 98.7802 68.2309 100.543 70.499 101.819C70.499 101.819 70.6054 102.014 70.8003 102.368C70.9863 102.714 71.2521 103.219 71.6154 103.786C72.3242 104.947 73.2634 106.488 74.2114 108.03C75.124 109.589 76.1606 111.078 76.9137 112.203C77.6668 113.328 78.1718 114.081 78.1718 114.081C76.3023 112.398 74.1139 111.37 71.8723 110.892C69.6308 110.413 67.2208 110.573 64.7843 111.415C65.7412 112.46 66.7601 113.319 67.8322 113.993C68.9131 114.657 70.0826 115.091 71.261 115.366C73.6266 115.898 76.0986 115.658 78.5528 114.657C78.5528 114.657 79.0046 115.331 79.6869 116.341C80.4045 117.324 81.3614 118.644 82.3183 119.956C84.1966 122.614 86.2344 125.148 86.2344 125.148C85.2332 124.377 84.1789 123.765 83.0891 123.305C82.017 122.826 80.9095 122.516 79.7755 122.365C77.4984 122.064 75.1062 122.401 72.7317 123.429C74.7873 125.325 77.0377 126.512 79.4211 126.884C81.8133 127.247 84.2675 126.849 86.6685 125.697C86.6685 125.697 87.1647 126.335 87.9178 127.3C88.6532 128.275 89.6898 129.524 90.7264 130.774C91.763 132.023 92.7996 133.281 93.5705 134.22C94.3679 135.142 94.8995 135.753 94.8995 135.753C90.7618 132.873 85.9775 132.448 81.3348 134.787C83.4789 136.541 85.818 137.569 88.1836 137.826C90.5669 138.074 93.0123 137.543 95.3513 136.276C95.3513 136.276 95.8829 136.887 96.6803 137.808C97.4689 138.739 98.5498 139.953 99.6484 141.149C100.738 142.354 101.837 143.559 102.652 144.462C103.485 145.348 104.043 145.942 104.043 145.942C99.7902 143.24 94.9704 143.062 90.4695 145.605C94.8818 148.928 99.9585 149.211 104.521 146.447C104.521 146.447 105.469 147.448 106.896 148.954C108.349 150.434 110.254 152.427 112.23 154.368C114.179 156.326 116.181 158.231 117.687 159.648C119.194 161.075 120.221 161.996 120.221 161.996L120.443 161.739C120.443 161.739 117.554 159.126 114.764 156.388C113.355 155.041 111.99 153.641 110.945 152.622C109.917 151.577 109.235 150.886 109.235 150.886C110.697 148.662 111.45 146.305 111.494 143.975C111.565 141.618 110.927 139.279 109.598 137.055C106.568 141.202 106.223 146.013 108.748 150.399C108.748 150.399 106.471 148.077 104.264 145.703C103.139 144.524 102.049 143.328 101.234 142.425C100.419 141.521 99.8699 140.918 99.8699 140.918C102.953 136.612 103.29 131.651 100.836 127.123C97.6106 131.128 97.0879 135.904 99.4092 140.404C99.4092 140.404 98.8687 139.802 98.0536 138.889C97.2562 137.968 96.193 136.745 95.1298 135.514C94.0578 134.3 93.0212 133.042 92.2503 132.103C91.4795 131.163 90.9568 130.534 90.9568 130.534C92.6136 128.443 93.5528 126.184 93.8274 123.854C94.1198 121.515 93.7211 119.132 92.6047 116.828C90.8947 118.742 89.8493 120.877 89.486 123.119C89.1316 125.351 89.424 127.735 90.5138 130.003C90.5138 130.003 89.9999 129.374 89.2202 128.435C88.4671 127.478 87.4748 126.193 86.4736 124.917C84.4447 122.383 82.5664 119.734 82.5664 119.734C84.3295 117.741 85.4193 115.526 85.8091 113.24C86.2255 110.954 86.0572 108.535 85.1003 106.187Z" fill="#91B31E"/>
<path d="M250.862 75.2924C250.047 74.8051 249.604 74.2735 249.604 74.2735C249.604 74.2735 249.32 73.6622 248.824 73.2369C248.328 72.8116 247.593 72.7053 247.593 72.7053C247.593 72.7053 248.071 74.3267 248.603 74.7431C248.869 74.9469 249.108 74.8406 249.294 74.6722C249.657 75.576 250.242 76.267 250.242 76.267C250.242 76.267 251.686 75.7797 250.862 75.2924Z" fill="#FF9A5C"/>
<path d="M224.504 369.958C294.448 369.958 351.148 313.257 351.148 243.313C351.148 173.369 294.448 116.668 224.504 116.668C154.56 116.668 97.8587 173.369 97.8587 243.313C97.8587 313.257 154.56 369.958 224.504 369.958Z" fill="#1A6652"/>
<path d="M249.976 331.984C187.451 331.984 136.763 281.296 136.763 218.771C136.763 176.633 159.79 139.873 193.937 120.381C138.756 134.052 97.8499 183.898 97.8499 243.304C97.8499 313.254 154.554 369.949 224.495 369.949C282.262 369.949 330.992 331.267 346.213 278.39C326.252 310.57 290.617 331.984 249.976 331.984Z" fill="#19614F"/>
<path d="M267.43 75.5494C267.43 75.5494 264.409 78.2694 263.399 78.2694C262.389 78.2694 252.315 75.257 250.41 74.8494C248.514 74.4507 248.612 75.0532 247.859 75.5494C247.105 76.0455 249.462 77.5606 249.462 77.5606C249.462 77.5606 258.455 82.1501 263.107 83.2487C267.758 84.3473 271.479 80.5818 271.479 80.5818C271.479 80.5818 272.702 75.7 267.43 75.5494Z" fill="#FF9A5C"/>
<path d="M231.255 78.3136C231.255 78.3136 238.325 79.0844 243.207 77.844C243.207 77.844 246.237 82.9208 247.38 84.7991L246.884 87.2179C246.884 87.2179 242.746 92.4541 235.472 92.7642C235.472 92.7731 230.156 85.4282 231.255 78.3136Z" fill="#108F6E"/>
<path d="M242.348 86.8901C240.895 86.8901 239.814 86.3142 239.752 86.2787L240.257 85.3573C240.274 85.3661 242.091 86.323 243.951 85.5168C245.599 84.808 246.84 82.9651 247.628 80.0501C248.523 76.7276 248.08 74.0785 246.335 72.3862C244.297 70.4105 241.063 70.2244 238.75 70.9244C234.028 72.3508 234.506 78.9869 234.506 79.049L233.461 79.1376C233.452 79.0667 232.903 71.5888 238.44 69.9232C241.568 68.984 245.023 69.6662 247.052 71.642C248.47 73.0242 249.896 75.6467 248.629 80.3337C247.752 83.5853 246.308 85.6585 244.341 86.4914C243.65 86.7838 242.968 86.8901 242.348 86.8901Z" fill="#108F6E"/>
<path d="M247.841 74.0696C247.841 74.0696 246.928 73.7152 246.565 74.3354C246.184 74.9821 247.708 75.4872 248.993 75.3543C250.277 75.2391 249.126 74.2999 247.841 74.0696Z" fill="#FF9A5C"/>
<path d="M247.814 74.9823C247.814 74.9823 246.919 74.6988 246.308 75.2215C245.697 75.7442 247.664 76.4885 249.17 76.3556C250.667 76.2227 249.32 75.2215 247.814 74.9823Z" fill="#FF9A5C"/>
<path d="M276.459 149.663C276.459 149.663 276.104 151.063 275.138 152.392C274.173 153.712 272.702 155.36 272.525 156.078C272.348 156.796 273.207 157.433 274.031 157.15C274.855 156.866 280.791 154.182 282.191 153.11C283.591 152.038 283.981 151.639 283.945 151.391C283.91 151.143 282.209 148.148 281.721 147.413C281.216 146.669 277.495 146.695 276.459 149.663Z" fill="#91B31E"/>
<path d="M247.637 75.8329C247.637 75.8329 246.848 75.5582 246.299 76.1252C245.75 76.6923 247.495 77.4542 248.833 77.3125C250.18 77.1619 249.551 75.9303 247.637 75.8329Z" fill="#FF9A5C"/>
<path d="M232.008 85.7029C232.008 85.7029 212.525 81.3084 211.807 81.2995C211.089 81.2907 208.662 80.8477 207.492 82.4602C207.492 82.4602 207.67 83.4525 208.75 83.9841C209.831 84.5246 211.267 83.4525 211.267 83.4525L234.808 91.7455C234.808 91.7543 236.305 87.599 232.008 85.7029Z" fill="#108F6E"/>
<path d="M209.433 84.3915C209.14 84.3915 208.874 84.3295 208.644 84.2143C207.466 83.6296 207.262 82.5575 207.253 82.5132L207.209 82.274L207.448 82.2297C207.457 82.2297 207.74 82.1765 208.183 82.1765C209.043 82.1765 210.301 82.3714 211.426 83.2752L211.674 83.4789L211.417 83.6739C211.373 83.6916 210.425 84.3915 209.433 84.3915ZM207.82 82.6727C207.944 82.9651 208.228 83.4524 208.866 83.7625C209.034 83.8422 209.22 83.8865 209.433 83.8865C209.964 83.8865 210.514 83.6207 210.833 83.4346C209.902 82.7967 208.892 82.655 208.183 82.655C208.042 82.6638 207.926 82.6727 207.82 82.6727Z" fill="#108F6E"/>
<path d="M334.279 344.069H299.176L305.103 337.247H340.206L334.279 344.069Z" fill="#FFD200"/>
<path opacity="0.79" d="M207.492 82.4601C207.492 82.4601 193.671 96.264 195.514 112.77H212.241C212.241 112.77 208.113 92.3656 211.267 83.4613C211.267 83.4613 209.858 82.1234 207.492 82.4601Z" fill="#9AE5E5"/>
<path d="M275.112 93.7655C275.112 93.7655 261.592 104.451 260.05 108.145C258.499 111.84 266.154 119.743 266.154 119.743C266.154 119.743 273.375 145.437 275.865 149.734C275.865 149.734 279.994 148.618 281.969 147.413C281.969 147.413 279.56 124.208 278.443 121.116C278.443 121.116 295.977 104.716 298.981 99.8523C301.984 95.0059 277.194 92.0821 275.112 93.7655Z" fill="#0E1A34"/>
<path d="M284.069 136.045C284.069 136.045 284.379 137.454 284.105 139.076C283.839 140.688 283.263 142.823 283.423 143.541C283.582 144.259 284.636 144.454 285.248 143.825C285.859 143.195 289.961 138.136 290.723 136.55C291.485 134.965 291.662 134.433 291.521 134.229C291.379 134.025 288.517 132.112 287.746 131.669C286.975 131.226 283.662 132.918 284.069 136.045Z" fill="#91B31E"/>
<path d="M265.897 119.761C265.72 114.046 275.28 104.841 275.688 104.451L276.033 104.814C275.936 104.911 266.234 114.259 266.402 119.752L265.897 119.761Z" fill="white"/>
<path d="M267.182 121.028L283.839 136.196C283.839 136.196 286.222 133.689 287.48 131.695C287.48 131.695 281.411 119.876 278.904 117.466C276.397 115.065 267.182 121.028 267.182 121.028Z" fill="#0E1A34"/>
<path d="M317.879 334.917C317.879 334.917 316.958 336.033 315.522 336.822C314.087 337.61 312.058 338.479 311.597 339.054C311.137 339.63 311.642 340.578 312.501 340.667C313.36 340.756 319.881 340.844 321.6 340.463C323.319 340.082 323.842 339.896 323.913 339.648C323.984 339.409 323.709 335.98 323.585 335.094C323.461 334.217 320.085 332.658 317.879 334.917Z" fill="#91B31E"/>
<path d="M204.099 115.756L203.089 115.782C203.089 115.782 203.08 115.384 202.991 114.657C202.912 113.931 202.743 112.894 202.486 111.663C201.955 109.199 200.954 105.966 199.554 102.9C198.154 99.8344 196.479 96.8929 195 94.8374C194.318 93.7742 193.635 92.9591 193.192 92.3743C192.74 91.7895 192.484 91.4529 192.484 91.4529L193.272 90.8149C193.272 90.8149 193.538 91.1516 193.99 91.7541C194.442 92.3566 195.133 93.1806 195.833 94.2703C197.339 96.3613 199.058 99.3648 200.475 102.492C201.902 105.629 202.929 108.934 203.47 111.459C203.736 112.726 203.904 113.798 203.993 114.551C204.09 115.295 204.099 115.756 204.099 115.756Z" fill="#108F6E"/>
<path d="M192.457 85.756C193.945 87.4305 194.007 89.7075 192.634 90.8062C191.252 91.9137 189.09 91.5947 187.788 90.1151C186.397 88.7152 186.237 86.5179 187.442 85.2244C188.629 83.9397 190.889 84.17 192.457 85.756Z" fill="#FCE300"/>
<path d="M191.846 87.8558C191.846 87.8558 191.473 87.5545 190.924 87.271C190.357 87.0052 189.631 86.7482 188.975 86.7837C188.931 87.4393 189.161 88.1481 189.4 88.6886C189.613 89.2468 189.843 89.6543 189.843 89.6543C187.903 89.8581 186.671 91.1517 186.671 91.1517C188.408 92.3832 190.127 92.4984 191.349 92.3744C192.581 92.2503 193.387 91.7807 193.387 91.7807C193.387 91.7807 194.043 91.1162 194.424 89.8847C194.814 88.6531 194.823 86.8989 193.564 84.7104C193.573 84.7193 192.244 85.8711 191.846 87.8558Z" fill="#108F6E"/>
<path d="M336.724 321.343C336.724 321.343 336.822 322.788 336.308 324.347C335.803 325.906 334.917 327.926 334.97 328.662C335.023 329.397 336.042 329.743 336.733 329.22C337.424 328.688 342.244 324.303 343.236 322.85C344.229 321.397 344.486 320.9 344.37 320.67C344.255 320.44 341.712 318.127 341.021 317.578C340.321 317.02 336.795 318.198 336.724 321.343Z" fill="#91B31E"/>
<path d="M176.553 97.7437C176.553 97.7437 176.943 107.649 186.184 114.764C195.425 121.878 204.099 118.972 204.099 118.972C204.099 118.972 204.701 109.838 195.46 102.723C186.228 95.5996 176.553 97.7437 176.553 97.7437Z" fill="#91B31E"/>
<path d="M180.574 100.533L180.271 100.926L203.95 119.173L204.253 118.78L180.574 100.533Z" fill="white"/>
<path d="M188.915 107.034L183.319 107.208L183.334 107.704L188.931 107.53L188.915 107.034Z" fill="white"/>
<path d="M186.197 100.456L185.713 100.567L186.967 106.024L187.451 105.913L186.197 100.456Z" fill="white"/>
<path d="M195.006 111.726L189.409 111.902L189.424 112.398L195.021 112.222L195.006 111.726Z" fill="white"/>
<path d="M192.298 105.134L191.814 105.245L193.068 110.703L193.552 110.592L192.298 105.134Z" fill="white"/>
<path d="M201.097 116.428L195.5 116.602L195.515 117.098L201.112 116.924L201.097 116.428Z" fill="white"/>
<path d="M198.395 109.826L197.911 109.937L199.165 115.395L199.649 115.283L198.395 109.826Z" fill="white"/>
<path d="M219.276 97.522C219.276 97.522 211.391 97.8321 205.72 105.186C200.05 112.54 202.371 119.459 202.371 119.459C202.371 119.459 209.645 119.938 215.316 112.584C220.986 105.23 219.276 97.522 219.276 97.522Z" fill="#BCE13E"/>
<path d="M158.824 114.711L164.034 106.338C162.28 99.1967 159.445 91.1164 154.864 82.9918C151.178 76.524 146.899 71.1194 142.283 66.5919L135.239 71.5358C135.239 71.5358 136.169 69.5334 137.153 67.5399C138.136 65.5641 139.12 63.5884 139.12 63.5884C133.609 58.6976 128.027 54.9321 123.048 52.1058C120.505 50.7059 118.272 49.5275 116.199 48.6238C114.143 47.7112 112.336 47.0733 110.909 46.7278C109.696 48.3935 108.331 51.0869 107.144 54.7018C106.524 56.5269 106.054 58.5116 105.638 60.7089C105.239 62.8884 104.876 65.3249 104.725 67.8323C104.725 67.8323 106.922 68.7183 109.129 69.6132C111.317 70.4637 113.497 71.3231 113.497 71.3231C113.497 71.3231 111.273 71.4117 109.058 71.4915C106.825 71.5535 104.601 71.6155 104.601 71.6155C104.504 82.2387 107.055 94.8464 114.046 106.621C115.304 108.774 116.642 110.786 118.033 112.682C119.415 114.578 120.824 116.376 122.286 118.033C122.286 118.033 125.396 117.838 128.497 117.652C131.589 117.439 134.69 117.227 134.69 117.227L126.884 122.924C133.219 129.126 139.563 133.29 144.294 135.921C146.66 137.242 148.626 138.163 150.009 138.765C151.382 139.359 152.188 139.669 152.188 139.669L159.489 134.61L166.789 129.551C166.789 129.551 166.834 129.09 166.834 128.187C166.843 127.283 166.825 125.972 166.736 124.297C166.559 120.966 166.107 116.252 165.009 110.741L158.824 114.711Z" fill="#91B31E"/>
<path d="M161.766 133.033C159.01 129.002 152.233 119.034 143.931 106.134C135.611 93.2338 125.741 77.4187 116.97 61.4353C123.411 78.5262 132.182 95.2273 139.926 108.588C147.67 121.976 154.412 132.05 157.238 136.178L159.507 134.61L161.766 133.033Z" fill="white"/>
<path d="M169.12 123.145L174.569 119.867C175.658 115.242 176.403 109.758 176.137 103.724C175.915 98.9132 174.994 94.5187 173.656 90.5494L168.163 91.3734C168.163 91.3734 169.297 90.4962 170.431 89.6191C171.565 88.7597 172.699 87.8914 172.699 87.8914C170.936 83.4525 168.774 79.6339 166.683 76.5683C164.592 73.5116 162.616 71.2169 161.128 70.0208C158.798 71.27 154.891 74.8406 151.612 80.4756C151.612 80.4756 152.631 81.6096 153.65 82.7437C154.669 83.8601 155.697 84.9676 155.697 84.9676C155.697 84.9676 154.386 84.3828 153.083 83.7981C151.772 83.2044 150.469 82.602 150.469 82.602C147.377 88.6711 145.198 96.6096 145.782 105.381C145.977 108.579 146.5 111.556 147.173 114.321L154.536 117.484L148.387 118.467C150.212 123.872 152.622 128.125 154.563 131.022C155.528 132.475 156.388 133.582 156.999 134.335C157.611 135.08 157.983 135.496 157.983 135.496L163.662 134.752L169.341 134.008C169.341 134.008 169.979 132.944 170.856 130.969C171.733 129.002 172.859 126.158 173.851 122.667L169.12 123.145Z" fill="#BCE13E"/>
<path d="M165.407 134.53C165.018 131.403 164.069 123.686 163.077 113.842C162.076 103.99 161.03 92.0113 160.499 80.2629C159.356 91.9847 159.515 104.132 160.056 114.082C160.579 124.04 161.474 131.802 161.881 135L163.644 134.77L165.407 134.53Z" fill="white"/>
<path d="M323.487 172.451C323.487 172.451 331.878 149.14 330.824 126.547C329.778 103.954 336.414 86.9875 347.25 88.3077C358.086 89.6278 367.522 130.517 326.278 174.896L323.487 172.451Z" fill="#BCE13E"/>
<path d="M327.111 171.6L326.27 171.069C326.42 170.83 341.491 146.536 342.076 119.743L343.068 119.761C342.483 146.837 327.262 171.352 327.111 171.6Z" fill="white"/>
<path d="M325.375 175.215C325.375 175.215 340.41 167.374 355.835 166.001C371.261 164.628 382.158 158.559 380.262 151.329C378.366 144.099 349.757 141.468 323.452 173.541L325.375 175.215Z" fill="#91B31E"/>
<path d="M326.154 173.328L325.516 172.566C325.667 172.442 340.933 159.826 359.282 156.928L359.441 157.912C341.367 160.765 326.305 173.204 326.154 173.328Z" fill="white"/>
<path d="M393.428 171.335C388.981 170.874 383.532 170.369 377.471 170.59C371.42 170.838 364.811 171.946 357.917 175.038C351.024 178.113 347.268 183.632 345.141 188.47C343.024 193.299 342.572 197.418 342.572 197.418C342.572 197.418 345.753 200.103 350.856 201.848C355.942 203.594 362.985 204.391 370.286 200.644C377.56 196.878 382.841 191.659 386.518 186.335C390.203 181.036 392.232 175.543 393.428 171.335Z" fill="#BCE13E"/>
<path d="M342.625 197.56L342.51 197.277C342.51 197.277 345.274 196.169 349.368 194.397C353.461 192.625 358.892 190.189 364.252 187.593C369.613 185.006 374.884 182.25 378.792 180.079C380.75 179.007 382.353 178.077 383.479 177.413C384.604 176.757 385.242 176.385 385.242 176.385L385.401 176.651C385.401 176.651 384.754 177.023 383.629 177.687C382.504 178.352 380.9 179.291 378.933 180.354C375.026 182.525 369.746 185.289 364.385 187.867C359.025 190.463 353.594 192.909 349.492 194.681C345.398 196.453 342.625 197.56 342.625 197.56Z" fill="white"/>
<path d="M372.155 183.765C372.138 183.694 371.996 182.879 372.226 181.426C372.448 179.973 373.059 177.918 374.503 175.366L374.769 175.525C373.36 178.024 372.767 180.044 372.545 181.471C372.43 182.179 372.412 182.737 372.421 183.118C372.43 183.499 372.466 183.703 372.466 183.703L372.155 183.765Z" fill="white"/>
<path d="M364.447 187.717L364.678 187.504C364.678 187.504 364.855 187.69 365.209 187.965C365.564 188.24 366.113 188.612 366.884 189.001C368.417 189.772 370.826 190.632 374.353 190.853L374.326 191.163C370.729 190.942 368.284 190.074 366.733 189.285C365.174 188.505 364.5 187.77 364.447 187.717Z" fill="white"/>
<path d="M350.129 194.291L350.369 194.096C350.369 194.096 350.564 194.317 350.953 194.654C351.352 194.991 351.964 195.434 352.823 195.921C354.542 196.887 357.262 197.968 361.293 198.402L361.258 198.712C357.164 198.269 354.418 197.188 352.672 196.213C350.918 195.221 350.183 194.362 350.129 194.291Z" fill="white"/>
<path d="M356.269 191.456C356.252 191.358 356.101 190.118 356.553 187.983C357.005 185.856 358.05 182.826 360.38 179.14L360.637 179.309C358.352 182.95 357.315 185.963 356.872 188.062C356.65 189.117 356.58 189.95 356.562 190.517C356.544 191.084 356.588 191.403 356.588 191.403L356.269 191.456Z" fill="white"/>
<path d="M377.507 181.019L377.728 180.797C377.728 180.797 378.145 181.196 379.066 181.612C379.988 182.02 381.432 182.454 383.505 182.507L383.496 182.817C381.343 182.755 379.864 182.312 378.916 181.887C377.968 181.47 377.542 181.054 377.507 181.019Z" fill="white"/>
<path d="M380.484 228.703C378.827 221.474 375.522 210.452 365.351 202.221C355.189 193.999 342.572 199.722 342.572 199.722C342.572 199.722 340.304 213.367 351.007 221.084C361.692 228.801 373.157 229.075 380.484 228.703Z" fill="#91B31E"/>
<path d="M342.492 199.829L342.652 199.625L374.184 223.733L374.034 223.937L342.492 199.829Z" fill="white"/>
<path d="M364.173 216.193C364.217 216.158 364.784 215.75 365.953 215.413C367.123 215.077 368.904 214.811 371.367 215.068L371.34 215.325C368.93 215.077 367.185 215.343 366.033 215.67C365.457 215.839 365.032 216.016 364.748 216.158C364.465 216.299 364.323 216.406 364.323 216.406L364.173 216.193Z" fill="white"/>
<path d="M358.396 211.869L358.635 211.958C358.635 211.958 358.564 212.162 358.493 212.525C358.422 212.897 358.352 213.446 358.343 214.155C358.334 215.591 358.582 217.69 359.645 220.402L359.406 220.499C358.325 217.735 358.068 215.608 358.077 214.155C358.086 212.711 358.369 211.931 358.396 211.869Z" fill="white"/>
<path d="M347.959 203.895L348.198 203.984C348.198 203.984 348.109 204.214 348.03 204.64C347.95 205.065 347.861 205.694 347.852 206.509C347.835 208.148 348.118 210.558 349.332 213.659L349.093 213.756C347.861 210.602 347.569 208.175 347.587 206.518C347.604 204.852 347.932 203.966 347.959 203.895Z" fill="white"/>
<path d="M352.486 207.262C352.557 207.209 353.399 206.606 355.153 206.11C356.907 205.614 359.557 205.224 363.233 205.605L363.207 205.862C359.583 205.49 356.952 205.88 355.215 206.376C354.347 206.624 353.709 206.89 353.284 207.103C352.858 207.315 352.637 207.466 352.637 207.466L352.486 207.262Z" fill="white"/>
<path d="M368.115 219.294L368.354 219.383C368.354 219.383 368.195 219.834 368.186 220.685C368.186 221.527 368.337 222.767 368.957 224.362L368.718 224.459C368.071 222.811 367.912 221.536 367.92 220.667C367.929 219.799 368.098 219.338 368.115 219.294Z" fill="white"/>
<path d="M85.5079 300.549C85.5079 300.549 85.1535 300.044 83.1068 300.957C81.0602 301.869 76.3378 308.107 74.9379 311.438C74.9379 311.438 77.7288 313.963 79.6691 315.044C79.6691 315.044 81.4146 313.591 82.398 313.059C82.398 313.059 82.4689 319.137 81.7158 322.734C80.9627 326.34 80.2273 328.538 80.2273 328.538C80.2273 328.538 86.5534 331.497 94.7754 329.884C94.7754 329.884 94.8818 321.228 95.1476 317.897C95.4134 314.565 96.9727 310.853 96.1133 307.734C95.2539 304.616 91.577 303.455 88.6 300.407L85.5079 300.549Z" fill="#FFD200"/>
<path d="M91.3998 292.664C91.3998 292.664 91.258 290.13 89.805 288.322C88.3608 286.515 85.1712 287.162 83.8688 289.917C82.9296 291.902 82.8233 293.337 82.8322 294.001C82.5664 293.789 82.1499 293.647 81.5829 294.037C80.6083 294.701 82.0791 297.032 83.5587 296.624C83.9574 297.448 84.8079 298.13 84.8079 298.13C84.8079 300.009 85.1889 300.514 85.1889 300.514C86.5622 302.179 88.1836 303.818 89.2645 303.101C90.3543 302.374 89.0519 301.364 88.6886 300.788C88.3254 300.212 88.7861 299.911 88.7861 299.911C92.0466 299.468 91.3998 292.664 91.3998 292.664Z" fill="#FF9A5C"/>
<path d="M89.0962 289.696C89.0962 289.696 88.2545 292.867 86.3584 293.567C86.3584 293.567 86.9432 292.974 87.0495 292.655C87.0495 292.655 84.6307 294.914 83.284 294.701C83.284 294.701 82.4246 294.329 82.1588 291.317C81.893 288.305 85.0649 286.586 85.0649 286.586H88.662L91.1871 289.492L91.4441 291.538C91.4529 291.521 89.8493 291.521 89.0962 289.696Z" fill="#753519"/>
<path d="M91.701 325.632C91.701 325.632 80.5374 323.7 76.4973 321.467C72.4571 319.226 72.9533 317.241 73.5114 315.806C74.0696 314.379 75.815 311.332 75.815 311.332L79.7666 314.158L79.6691 315.044L78.9958 316.586C78.9958 316.586 80.2893 317.401 82.2385 318.482C84.1877 319.562 92.1174 323.195 92.1174 323.195C92.1174 323.195 94.0312 324.79 91.701 325.632Z" fill="#FF9A5C"/>
<path d="M111.007 346.036L108.748 333.765C108.57 332.817 107.95 332.02 107.073 331.621L93.6059 325.543L94.3413 323.922L107.808 330C109.217 330.637 110.227 331.922 110.502 333.437L112.761 345.708L111.007 346.036Z" fill="#108F6E"/>
<path d="M117.368 338.744C117.368 338.744 120.106 336.875 121.479 336.68C122.853 336.485 123.243 337.956 124.217 337.708C125.192 337.46 125.98 336.662 125.98 336.662L127.938 337.699C127.938 337.699 128.133 337.158 129.507 337.699C130.88 338.239 130.091 337.655 130.88 338.239C131.66 338.824 132.838 338.735 132.838 338.735C132.838 338.735 133.813 338.452 134.796 338.735C135.771 339.019 137.233 338.257 139.492 338.735C141.751 339.214 143.798 338.257 144.967 338.735C146.137 339.214 146.73 340.924 147.705 340.463C148.68 340.002 150.248 338.735 150.248 338.735L151.816 341.473C151.816 341.473 152.401 340.206 153.189 341.473C153.969 342.74 155.732 343.52 155.732 343.52C155.732 343.52 156.122 343.768 156.707 344.716C157.292 345.673 157.761 348.304 157.761 348.304V349.483L128.328 348.304L116.004 341.473L117.368 338.744Z" fill="#753519"/>
<path d="M115.26 341.775L113 329.504C112.823 328.556 112.203 327.758 111.326 327.368L97.8587 321.29L98.5941 319.669L112.061 325.747C113.47 326.385 114.48 327.67 114.755 329.185L117.014 341.456L115.26 341.775Z" fill="#108F6E"/>
<path d="M112.938 338.744C112.938 338.744 110.449 346.479 109.793 347.79C109.137 349.102 111.37 353.815 111.37 353.815L134.831 365.351L157.761 349.492L112.938 338.744Z" fill="#108F6E"/>
<path d="M108.553 376.32C107.835 376.32 107.25 376.16 106.781 375.85C105.593 375.079 105.177 373.431 105.416 370.507C105.895 364.775 109.873 348.871 110.041 348.198L111.007 348.437C110.963 348.606 106.878 364.943 106.409 370.587C106.205 373.068 106.497 374.468 107.321 375.017C108.57 375.832 111.485 374.991 116.225 372.43C125.13 367.619 131.784 363.233 131.846 363.189L132.395 364.022C132.324 364.066 125.644 368.479 116.695 373.307C112.921 375.345 110.325 376.32 108.553 376.32Z" fill="#108F6E"/>
<path d="M157.77 354.63C157.77 354.63 156.361 356.199 156.282 357.173C156.202 358.148 157.77 357.173 157.77 357.173C157.77 357.173 158.55 358.236 159.338 357.607C160.118 356.978 159.338 356.216 159.338 356.216L159.684 354.63H157.77Z" fill="#753519"/>
<path d="M225.168 376.931L223.839 377.959C223.839 377.959 223.414 377.383 222.661 376.373C221.925 375.363 220.889 373.919 219.693 372.147C217.292 368.612 214.244 363.801 211.462 358.83C208.671 353.869 206.19 348.73 204.48 344.814C203.674 342.829 203 341.181 202.522 340.029C202.097 338.851 201.857 338.177 201.857 338.177L203.434 337.602C203.434 337.602 203.674 338.266 204.09 339.418C204.56 340.561 205.224 342.182 206.022 344.14C207.714 348.012 210.168 353.089 212.932 358.006C215.679 362.932 218.7 367.699 221.084 371.199C222.262 372.953 223.29 374.379 224.016 375.381C224.752 376.373 225.168 376.931 225.168 376.931Z" fill="#108F6E"/>
<path d="M205.605 329.769C206.092 331.346 205.898 332.959 205.375 334.314C204.834 335.661 203.815 336.769 202.433 337.265C201.051 337.761 199.554 337.522 198.243 336.707C196.922 335.9 195.921 334.439 195.372 332.667C195.239 332.224 195.15 331.781 195.088 331.338C195.053 330.895 195.062 330.451 195.097 330.026C195.177 329.176 195.39 328.378 195.717 327.687C196.382 326.305 197.525 325.339 198.96 325.056C200.404 324.772 201.866 325.189 203.053 326.039C203.647 326.464 204.17 327.005 204.595 327.634C204.808 327.944 204.994 328.281 205.153 328.644C205.339 328.998 205.49 329.371 205.605 329.769Z" fill="#FCE300"/>
<path d="M203.151 332.312C203.151 332.312 202.797 331.639 202.185 330.85C201.884 330.452 201.512 330.026 201.104 329.628C200.714 329.229 200.28 328.866 199.793 328.609C199.474 329.061 199.253 329.601 199.084 330.159C198.942 330.708 198.88 331.275 198.845 331.789C198.783 332.808 198.863 333.606 198.863 333.606C197.303 333.03 195.815 332.95 194.725 333.03C193.635 333.11 192.935 333.34 192.935 333.34C194.876 337.088 197.525 338.496 199.563 339.019C201.609 339.542 203.116 339.187 203.116 339.187C203.116 339.187 204.48 338.434 205.756 336.778C207.032 335.121 208.166 332.604 208.042 329.069C208.042 329.069 207.324 329.238 206.349 329.716C205.384 330.212 204.152 331.001 203.151 332.312Z" fill="#108F6E"/>
<path d="M162.076 357.811C162.076 357.811 160.906 360.115 161.101 360.7C161.296 361.284 162.076 360.7 162.076 360.7C162.076 360.7 163.245 361.222 163.839 360.957C164.424 360.7 165.407 359.415 165.407 359.415H163.246L162.076 357.811Z" fill="#753519"/>
<path d="M168.145 373.298C168.145 373.298 163.228 372.776 163.246 373.298C163.254 373.821 163.246 375.319 163.246 375.319C163.246 375.319 162.235 374.078 161.084 375.319C159.932 376.559 159.693 378.517 159.693 378.517C159.693 378.517 159.383 379.687 157.992 379.881C156.609 380.076 156.29 381.255 156.29 381.255C156.29 381.255 159.294 382.229 161.084 382.424C162.865 382.619 164.433 382.424 164.433 382.424C164.433 382.424 166.391 382.203 168.154 382.513C169.917 382.814 171.875 383.213 173.629 383.408C175.393 383.603 178.52 382.034 178.52 382.034C178.52 382.034 183.996 381.84 186.149 382.229C188.302 382.619 190.649 381.645 190.649 381.645L191.429 379.881C191.429 379.881 189.861 379.536 188.886 378.242C187.912 376.949 186.733 373.555 185.954 373.298C185.174 373.042 183.021 371.27 183.021 371.27C183.021 371.27 181.063 368.248 180.868 366.343C180.673 364.438 178.13 363.216 178.13 363.216C178.13 363.216 176.961 363.535 176.172 365.156C175.393 366.786 173.869 366.343 173.869 366.343C173.869 366.343 172.85 366.512 172.265 368.213C171.68 369.914 171.485 371.27 171.485 371.27C171.485 371.27 169.137 370.472 167.959 371.27C166.772 372.067 168.145 373.298 168.145 373.298Z" fill="#753519"/>
<path d="M135.531 364.005L133.85 365.078L138.245 371.964L139.926 370.892L135.531 364.005Z" fill="#108F6E"/>
<path d="M329.491 343.699L316.363 377.805L318.323 378.559L331.451 344.453L329.491 343.699Z" fill="#91B31E"/>
<path d="M331.458 343.688L329.499 344.442L342.626 378.549L344.586 377.794L331.458 343.688Z" fill="#91B31E"/>
<path d="M336.37 357.244H325.029V359.344H336.37V357.244Z" fill="#91B31E"/>
<path d="M338.868 364.74H322.424V366.84H338.868V364.74Z" fill="#91B31E"/>
<path d="M317.454 236.03C317.454 236.03 314.707 238.715 313.741 241.665C312.776 244.625 314.22 247.167 316.904 247.921C316.904 247.921 317.525 251.013 317.454 252.111C317.454 252.111 319.518 252.661 320.617 252.528C321.715 252.386 322.681 251.978 322.681 251.978V247.575C322.681 247.575 324.746 245.723 325.366 244.004C325.986 242.286 326.535 238.095 324.542 236.03C322.548 233.966 318.552 234.817 317.454 236.03Z" fill="#FF9A5C"/>
<path d="M287.613 222.678C287.613 222.678 287.542 222.989 285.957 223.476C284.371 223.963 283.236 223.511 282.785 224.796C282.333 226.081 283.236 228.57 282.253 229.093C281.27 229.625 280.968 229.997 280.968 229.997C280.968 229.997 283.458 233.169 284.291 234.524C284.291 234.524 285.425 233.621 285.797 232.035C286.169 230.449 288.747 231.211 289.341 230.679C289.935 230.147 290.564 229.323 290.564 229.323C290.564 229.323 289.722 223.804 287.613 222.678Z" fill="#91B31E"/>
<path d="M321.21 238.875C321.21 238.875 318.446 236.943 317.799 235.145C317.153 233.346 317.932 231.68 319.5 231.866C321.078 232.052 321.91 232.309 321.91 232.309C321.91 232.309 323.381 230.449 325.924 232.823C328.467 235.207 328.148 238.547 328.148 238.547C328.148 238.547 331.364 239.451 330.079 242.472C328.795 245.493 325.924 246.476 325.924 246.476C325.924 246.476 325.508 248.435 324.418 248.541C323.328 248.647 322.672 248.904 322.672 248.904L322.876 245.236C322.876 245.236 323.904 245.236 324.48 244.013C325.056 242.791 323.257 242.986 323.257 242.986C323.257 242.986 322.229 241.125 322.681 240.416C322.69 240.416 321.086 239.769 321.21 238.875Z" fill="#753519"/>
<path d="M307.601 245.963C307.601 245.963 302.658 242.082 298.458 236.925C294.258 231.769 291.68 228.083 291.68 228.083C291.68 228.083 291.68 225.939 290.821 224.14C289.961 222.342 289.873 222.678 289.359 221.996C288.845 221.314 288.845 222.554 289.501 223.768C290.147 224.982 290.147 224.982 290.147 224.982C290.147 224.982 288.464 222.297 287.844 222.386C287.223 222.475 287.959 223.361 288.287 223.83C288.615 224.3 288.73 225.133 288.73 225.133C288.73 225.133 287.516 223.272 287.108 223.6C286.692 223.928 287.551 225.044 288.234 225.93C288.916 226.816 289.031 228.207 289.447 228.942C289.447 228.942 295.295 244.111 303.623 250.632C311.952 257.153 307.601 245.963 307.601 245.963Z" fill="#FF9A5C"/>
<path d="M291.529 228.278C291.529 228.278 291.716 227.295 291.786 227.188C291.857 227.082 292.088 226.258 292.256 225.753C292.424 225.248 292.176 224.743 291.893 224.991C291.609 225.239 290.962 226.152 290.98 226.701C290.989 227.25 291.529 228.278 291.529 228.278Z" fill="#FF9A5C"/>
<path d="M330.389 261.282C330.389 261.282 334.119 265.809 335.546 266.518C336.972 267.236 340.738 264.099 342.678 260.493C344.619 256.887 345.629 254.158 345.629 254.158C345.629 254.158 348.154 252.333 348.863 250.588C348.863 250.588 349.119 249.808 348.863 249.631C348.606 249.453 347.861 250.72 347.471 251.199C347.471 251.199 348.606 249.232 348.428 248.798C348.251 248.364 346.639 250.632 346.639 250.632C346.639 250.632 347.906 248.319 347.471 248.275C347.037 248.231 345.815 250.331 345.815 250.331C345.815 250.331 345.77 248.886 345.336 248.975C344.902 249.064 345.026 250.676 345.026 250.676C345.026 250.676 344.592 252.687 344.326 253.343C344.06 253.999 338.558 260.289 337.858 260.466C337.858 260.466 335.635 257.321 333.579 256.71C331.523 256.098 330.389 261.282 330.389 261.282Z" fill="#FF9A5C"/>
<path d="M311.305 275.307C311.305 275.307 316.47 330.07 317.374 334.678C317.374 334.678 322.274 335.271 323.939 334.678C323.939 334.678 323.576 301.337 323.939 297.909C324.303 294.48 327.262 276.981 326.199 274.616C325.135 272.25 311.305 275.307 311.305 275.307Z" fill="#0E1A34"/>
<path d="M327.501 274.377C327.501 274.377 329.344 296.279 330.257 299.636C331.169 302.994 341.075 317.162 341.075 317.162L336.733 321.556C336.733 321.556 327.749 312.448 325.144 309.143C322.539 305.83 318.047 291.999 318.047 291.999C318.047 291.999 320.643 270.948 327.501 274.377Z" fill="#0E1A34"/>
<path d="M250.809 150.726C245.768 149.158 242.117 148.671 239.158 147.005C236.199 145.34 233.248 144.108 230.989 144.205C228.73 144.303 224.034 143.071 221.252 144.205C218.47 145.34 215.528 151.072 211.258 152.117C206.996 153.163 196.284 150.904 193.299 148.99C190.304 147.076 189.462 143.257 190.322 141.344C191.181 139.43 191.527 136.019 191.358 134.77C191.181 133.52 195.7 131.066 197.268 129.427C198.827 127.788 200.316 122.436 196.612 119.761C178.875 123.748 162.546 131.447 148.494 142.017C148.494 142.026 148.609 143.266 149.645 145.003C150.691 146.739 149.016 147.785 149.069 148.308C149.123 148.83 150.053 148.768 149.238 149.752C148.423 150.735 149.256 150.567 148.494 151.258C147.732 151.949 147.041 152.649 146.518 152.995C145.995 153.34 146.172 154.386 145.127 155.599C144.081 156.813 142.168 157.859 142.168 159.773C142.168 161.686 139.208 164.291 138.863 165.337C138.517 166.382 135.558 170.378 135.39 172.983C135.212 175.588 135.212 178.37 135.39 179.938C135.567 181.506 135.647 183.243 135.257 185.156C134.867 187.07 134.521 188.807 134.344 192.28C134.167 195.753 135.558 197.321 138.863 198.367C142.168 199.412 148.414 202.363 149.982 204.622C151.55 206.881 152.419 209.663 153.641 210.009C154.855 210.354 155.901 214.005 159.896 216.787C163.892 219.569 171.37 219.923 174.675 223.485C177.98 227.046 184.058 235.72 185.626 240.514C187.194 245.298 189.799 247.061 192.581 249.4C195.363 251.73 198.836 254.344 201.45 254.512C204.055 254.69 205.118 253.591 205.02 252.661C204.923 251.73 201.618 248.948 201.095 248.257C200.573 247.566 199.527 242.87 197.968 239.566C196.4 236.261 196.231 236.128 196.754 234.542C197.277 232.956 198.322 229.483 199.882 228.615C201.45 227.746 202.664 228.375 203.709 226.843C204.755 225.31 205.118 224.442 205.02 223.485C204.923 222.528 203.355 221.934 201.795 221.793C200.227 221.651 199.713 220.269 197.622 219.914C195.54 219.569 192.581 218.7 191.89 217.478C191.199 216.264 189.631 215.909 188.585 216.087C187.54 216.264 184.412 216.778 182.33 214.696C180.248 212.614 180.071 208.609 179.725 206.527C179.38 204.445 179.034 203.745 179.548 202.185C180.071 200.617 180.071 199.394 182.507 198.269C184.944 197.144 188.939 196.267 191.376 198.269C193.812 200.272 198.677 198.712 199.722 197.49C200.768 196.276 203.718 192.625 206.154 192.448C208.591 192.271 212.587 192.448 214.155 191.057C215.723 189.666 221.633 186.733 222.67 184.377C223.715 182.02 227.711 175.18 227.711 172.947C227.711 170.715 235.011 166.373 237.094 167.064C239.176 167.755 241.958 164.459 243.003 164.459C244.049 164.459 247.176 164.982 248.913 162.891C250.649 160.809 252.04 159.4 253.431 157.407C254.805 155.422 255.85 152.286 250.809 150.726Z" fill="#108F6E"/>
<path d="M239.973 314.592C239.973 314.592 234.108 310.924 229.128 308.824C224.149 306.724 220.481 299.309 219.17 297.776C217.859 296.243 216.813 282.873 219.17 280.517C221.527 278.16 223.901 274.226 225.859 271.081C227.817 267.935 228.606 265.835 227.817 264.524C227.029 263.213 227.029 255.771 227.817 254.512C228.606 253.254 232.531 250.898 234.374 251.154C236.208 251.42 241.975 249.808 244.332 251.137C246.689 252.466 255.602 257.179 259.536 257.445C263.47 257.711 267.395 261.122 270.54 259.279C273.685 257.445 278.301 259.545 280.977 263.47C283.653 267.404 286.798 271.4 291.246 273.987C295.703 276.574 295.313 278.931 297.864 279.453C300.416 279.976 306.122 281.535 309.205 283.644C312.297 285.762 311.278 288.358 308.727 291.503C306.175 294.648 303.003 299.628 300.921 302.773C298.839 305.918 299.601 310.632 300.921 311.943C302.241 313.254 301.196 318.756 299.362 320.333C297.528 321.902 293.594 324.524 292.026 327.413C290.457 330.292 290.608 332.436 286.993 333.721C283.378 335.014 275.254 338.682 270.274 339.861C265.295 341.039 261.104 341.323 257.693 344.193C254.282 347.064 253.804 354.878 250.596 356.216C247.389 357.554 237.767 363.579 234.099 363.189C230.431 362.799 230.431 362.064 232.531 359.415C234.622 356.766 239.929 352.105 242.915 347.853C245.9 343.6 241.967 339.498 244.589 337.779C247.212 336.06 247.672 330.948 248.488 329.441C249.312 327.962 249.09 319.589 239.973 314.592Z" fill="#108F6E"/>
<path d="M315.274 197.419C315.797 198.491 318.597 199.713 320.688 200.759C322.788 201.804 324.754 200.192 325.605 197.419C326.456 194.645 330.124 194.123 332.046 195.168C333.969 196.214 336.069 196.736 337.46 196.391C338.842 196.045 341.518 195.017 341.588 194.991C333.588 175.623 320.927 158.674 305.006 145.543C305.006 145.543 303.57 147.652 301.293 149.743C299.025 151.834 298.458 153.402 297.864 154.625C297.271 155.847 295.525 161.093 296.225 163.361C296.925 165.629 296.633 167.206 299.229 169.129C301.825 171.051 304.128 171.707 302.977 175.224C301.825 178.742 302.693 182.498 301.47 184.377C300.248 186.255 300.106 189.923 302.977 192.368C305.838 194.814 309.515 194.291 310.384 194.468C311.252 194.636 314.752 196.346 315.274 197.419Z" fill="#108F6E"/>
<path d="M229.128 226.834C229.128 226.834 229.128 229.235 227.383 230.812C225.638 232.38 223.892 235.18 225.638 235.525C227.383 235.871 231.051 236.394 231.928 236.916C232.805 237.448 237.342 239.893 238.564 239.016C239.787 238.139 240.664 236.048 241.887 235.871C243.11 235.694 243.455 232.602 244.509 231.609C245.555 230.626 249.223 227.126 249.577 224.335C249.923 221.536 250.277 217.345 249.577 216.299C248.877 215.254 243.987 214.554 243.464 213.154C242.941 211.754 239.822 210.709 237.448 212.108C235.074 213.508 234.028 216.654 233.674 218.922C233.319 221.199 228.951 222.856 229.128 226.834Z" fill="#108F6E"/>
<path d="M304.261 152.649L302.826 151.568C302.826 151.568 303.251 151.001 303.96 149.894C304.669 148.804 305.635 147.191 306.715 145.215C308.868 141.264 311.385 135.771 313.405 130.1C315.425 124.43 317.073 118.618 318.012 114.197C318.561 111.999 318.836 110.139 319.102 108.845C319.35 107.552 319.492 106.807 319.492 106.807L321.264 107.109C321.264 107.109 321.122 107.862 320.874 109.173C320.608 110.484 320.324 112.371 319.766 114.595C318.809 119.07 317.144 124.962 315.097 130.712C313.042 136.471 310.49 142.044 308.293 146.075C307.194 148.095 306.202 149.743 305.466 150.868C304.749 152.011 304.261 152.649 304.261 152.649Z" fill="#108F6E"/>
<path d="M327.12 100.216C326.588 104.096 323.594 106.799 320.511 106.258C317.41 105.718 315.327 102.404 315.824 98.8511C316.178 95.2716 319.013 92.5516 322.15 92.7731C325.277 92.9858 327.51 96.326 327.12 100.216Z" fill="#FCE300"/>
<path d="M323.576 101.784C323.576 101.784 323.541 100.933 323.301 99.87C323.027 98.7979 322.548 97.5221 321.76 96.6538C320.812 97.3449 320.094 98.4701 319.616 99.4181C319.111 100.366 318.827 101.137 318.827 101.137C316.302 98.7271 313.13 98.5144 313.13 98.5144C313.485 102.404 315.274 104.876 316.904 106.391C318.526 107.897 320.103 108.429 320.103 108.429C320.103 108.429 321.769 108.517 323.851 107.587C325.924 106.666 328.325 104.672 329.814 100.543C329.805 100.543 326.721 100.038 323.576 101.784Z" fill="#108F6E"/>
<path d="M280.508 64.2881C280.508 64.2881 279.001 64.616 276.051 66.3171C273.101 68.0182 266.482 74.5746 266.482 74.5746C266.482 74.5746 268.91 78.9692 271.984 81.3259C271.984 81.3259 275.59 79.6868 276.503 79.0312C276.503 79.0312 278.337 87.8735 274.669 93.3135C274.669 93.3135 276.769 95.8032 280.242 96.3259C283.715 96.8486 287.383 96.7866 290.395 98.9485C293.408 101.11 298.325 100.915 300.425 98.9485C300.425 98.9485 302.197 92.1351 300.425 85.7736C298.653 79.421 296.101 75.877 296.101 75.877L297.218 76.7276C297.218 76.7276 301.019 72.5988 301.213 69.3915C301.213 69.3915 296.819 64.8729 293.674 63.1629C290.528 61.4618 287.091 62.0466 284.486 63.1629C281.881 64.2881 280.508 64.2881 280.508 64.2881Z" fill="#108F6E"/>
<path d="M273.677 56.1902C273.703 56.4826 274.456 60.0798 276.211 61.8341C277.965 63.5883 279.329 62.5163 279.808 62.7112C280.295 62.9061 280.587 64.2706 280.587 65.2452C280.587 66.2198 282.147 67.1944 283.609 66.1223C285.071 65.0502 284.291 60.0886 284.291 60.0886C284.291 60.0886 285.097 58.4318 284.495 56.1991C284.495 56.1991 285.239 54.3474 284.716 53.2753C284.193 52.2032 283.414 52.4956 283.024 53.2753C283.024 53.2753 281.172 49.8731 278.452 50.449C275.714 51.0337 273.287 52.4868 273.677 56.1902Z" fill="#FF9A5C"/>
<path d="M286.329 54.1435C285.452 52.974 286.036 49.9616 284.902 48.2073C283.768 46.4531 281.367 47.0378 281.367 47.0378C281.367 47.0378 280.782 44.4064 278.541 44.7962C276.299 45.1861 274.261 48.1985 274.261 48.1985C274.261 48.1985 273.092 47.8086 270.957 48.1985C268.812 48.5883 266.385 50.0502 267.262 52.1855C268.139 54.3296 271.444 54.2056 271.444 54.2056C271.444 54.2056 270.567 58.4141 273.641 57.2445C273.73 57.2091 273.809 57.1648 273.898 57.1205C273.765 56.6155 273.694 56.2522 273.685 56.1725C273.402 53.5145 274.589 52.0083 276.29 51.1577C276.955 50.8299 277.69 50.5907 278.452 50.4223C281.181 49.8376 283.024 53.2487 283.024 53.2487C283.414 52.469 284.193 52.1766 284.716 53.2487C285.239 54.3207 284.495 56.1725 284.495 56.1725C284.822 57.3952 284.725 58.4406 284.574 59.1406C284.681 59.1583 284.796 59.1937 284.902 59.1937C287.746 59.2026 287.197 55.3131 286.329 54.1435Z" fill="#753519"/>
<path d="M273.88 57.1382C273.88 57.1382 277.229 55.7206 277.469 50.7059C277.469 50.7059 278.496 53.8334 283.006 53.2753C283.006 53.2753 282.652 49.0933 278.939 48.0479C275.227 47.0024 272.507 53.1955 272.507 53.1955C272.507 53.1955 272.037 55.6675 273.88 57.1382Z" fill="#753519"/>
<path d="M280.073 133.015C279.374 127.114 278.204 121.231 278.195 121.178L278.682 121.081C278.691 121.143 279.861 127.044 280.57 132.962L280.073 133.015Z" fill="white"/>
<path d="M98.2308 319.536C98.2308 319.536 99.2674 319.554 99.8433 319.66C100.419 319.758 100.791 320.582 100.96 320.909C101.119 321.237 100.402 321.202 100.038 320.75C99.675 320.298 99.6041 320.174 99.6041 320.174C99.6041 320.174 99.0548 320.059 98.7447 320.174C98.4346 320.289 98.0536 319.917 97.9916 319.66C97.9296 319.394 98.2308 319.536 98.2308 319.536Z" fill="#FF9A5C"/>
<path d="M91.3998 325.534C92.3124 326.518 93.4996 327.041 93.4996 327.041C93.5882 327.794 94.0223 328.113 94.2616 328.086C94.5096 328.059 94.5096 326.925 94.5096 326.925C94.7223 327.448 95.5817 327.971 95.6969 327.652C95.8121 327.333 95.6969 326.81 95.6969 326.81C95.6969 326.81 96.0424 327.271 96.3082 327.271C96.5652 327.271 96.8841 327.041 96.7689 326.456C96.6538 325.88 96.3082 325.003 95.9538 324.542C95.6083 324.081 95.4045 323.612 94.6514 323.443C93.8983 323.266 93.6325 323.381 92.7642 323.302C91.8959 323.213 90.5847 323.302 90.5847 323.302L91.3998 325.534Z" fill="#FF9A5C"/>
<path d="M91.701 323.736V323.266C91.701 323.266 93.8185 322.619 94.2438 322.77C94.6691 322.92 95.0589 323.514 95.2893 323.736C95.5197 323.957 91.701 323.736 91.701 323.736Z" fill="#FF9A5C"/>
<path d="M142.832 388.21C147.872 388.21 151.958 384.124 151.958 379.084C151.958 374.044 147.872 369.958 142.832 369.958C137.792 369.958 133.706 374.044 133.706 379.084C133.706 384.124 137.792 388.21 142.832 388.21Z" fill="#0E1A34"/>
<path d="M142.832 383.16C140.582 383.16 138.756 381.335 138.756 379.084C138.756 376.834 140.582 375.009 142.832 375.009C145.083 375.009 146.908 376.834 146.908 379.084C146.908 381.326 145.083 383.16 142.832 383.16ZM142.832 375.505C140.856 375.505 139.253 377.108 139.253 379.084C139.253 381.06 140.856 382.664 142.832 382.664C144.808 382.664 146.412 381.06 146.412 379.084C146.412 377.108 144.808 375.505 142.832 375.505Z" fill="white"/>
<path d="M252.253 230.608C252.253 230.608 250.189 232.478 248.745 234.533C247.3 236.589 251.216 235.561 252.253 235.765C253.281 235.968 253.493 237.457 255.549 236.925C257.613 236.385 255.753 237.005 257.613 236.385C259.465 235.765 260.085 235.968 261.946 235.765C263.807 235.561 263.434 234.214 264.444 233.027C265.454 231.849 265.499 230.812 264.444 229.784C263.39 228.756 262.77 231.849 260.706 229.784C258.641 227.72 258.712 225.948 256.825 226.834C254.938 227.72 255.425 228.03 254.557 228.801C253.697 229.58 252.253 230.608 252.253 230.608Z" fill="#108F6E"/>
<path d="M319.368 250.118C319.368 250.118 313.352 250.534 308.266 245.378C308.266 245.378 304.899 248.124 302.977 251.704C302.977 251.704 306.689 256.036 310.88 258.03C310.88 258.03 308.984 274.004 309.985 279.542C309.985 279.542 316.656 280.782 320.776 281.057C324.896 281.332 329.991 280.029 329.991 280.029L328.821 260.298L329.991 261.671C329.991 261.671 334.252 257.755 334.323 255.62C334.323 255.62 328.245 249.914 325.614 249.019C322.974 248.124 321.928 250.33 319.368 250.118Z" fill="#91B31E"/>
<path d="M324.028 306.866L323.532 306.857C323.541 306.405 323.718 295.853 324.028 294.391C324.329 292.965 326.163 282.997 326.19 282.9L326.677 282.989C326.659 283.086 324.825 293.053 324.515 294.498C324.214 295.915 324.028 306.76 324.028 306.866Z" fill="white"/>
<path d="M245.192 385.056H235.02C235.02 385.056 229.447 347.764 235.02 339.887C240.584 332.011 252.271 334.695 245.192 385.056Z" fill="#FFD200"/>
<path d="M231.716 385.056H222.634C222.634 385.056 210.726 381.343 205.02 372.262C199.315 363.18 207.776 359.326 213.969 363.216C220.153 367.096 231.716 385.056 231.716 385.056Z" fill="#FFD200"/>
<path d="M235.011 385.056H229.439C229.439 385.056 216.228 372.014 214.58 356.243C212.932 340.472 225.522 345.593 231.095 359.441C236.668 373.29 237.289 385.056 237.289 385.056H235.011Z" fill="#91B31E"/>
<path d="M248.488 385.056H257.569C257.569 385.056 269.477 381.343 275.183 372.262C280.889 363.18 272.427 359.326 266.234 363.216C260.05 367.096 248.488 385.056 248.488 385.056Z" fill="#FFD200"/>
<path d="M245.192 385.056H250.765C250.765 385.056 263.975 372.014 265.623 356.243C267.271 340.472 254.681 345.593 249.108 359.441C243.535 373.29 242.915 385.056 242.915 385.056H245.192Z" fill="#91B31E"/>
<path d="M276.476 219.586L277.017 218.488L277.717 219.489L278.815 220.029L277.814 220.729L277.274 221.828L276.574 220.827L275.466 220.286L276.476 219.586Z" fill="white"/>
<path d="M295.8 224.14L296.128 223.476L296.553 224.087L297.226 224.415L296.615 224.84L296.287 225.514L295.862 224.902L295.189 224.574L295.8 224.14Z" fill="white"/>
<path d="M298.919 215.121L299.247 214.456L299.672 215.068L300.345 215.395L299.734 215.821L299.406 216.494L298.972 215.883L298.307 215.555L298.919 215.121Z" fill="white"/>
<path d="M271.816 211.754L272.144 211.09L272.569 211.701L273.242 212.029L272.631 212.454L272.303 213.127L271.869 212.516L271.205 212.188L271.816 211.754Z" fill="white"/>
<path d="M275.856 236.474L276.184 235.809L276.618 236.42L277.283 236.748L276.671 237.174L276.343 237.838L275.918 237.227L275.245 236.899L275.856 236.474Z" fill="white"/>
<path d="M207.289 85.2155L207.085 85.0737C207.28 84.7991 207.395 84.6484 207.395 84.6484L207.59 84.7991C207.59 84.7991 207.483 84.9408 207.289 85.2155Z" fill="white"/>
<path d="M200.67 99.4711L200.431 99.418C200.449 99.3471 200.466 99.2674 200.484 99.1965L200.723 99.2496C200.706 99.3294 200.688 99.4003 200.67 99.4711ZM200.971 98.2485L200.732 98.1864C200.821 97.8498 200.918 97.5131 201.025 97.1853L201.264 97.2561C201.157 97.584 201.06 97.9118 200.971 98.2485ZM201.574 96.2727L201.335 96.1929C201.45 95.8651 201.565 95.5373 201.68 95.2095L201.911 95.2981C201.804 95.617 201.689 95.9449 201.574 96.2727ZM202.3 94.3323L202.07 94.2349C202.203 93.9071 202.336 93.5881 202.469 93.2691L202.699 93.3666C202.566 93.6856 202.433 94.0045 202.3 94.3323ZM203.124 92.4274L202.903 92.3211C203.053 92.0022 203.204 91.6832 203.355 91.382L203.576 91.4883C203.426 91.7984 203.275 92.1085 203.124 92.4274ZM204.037 90.5668L203.815 90.4517C203.984 90.1327 204.143 89.8315 204.303 89.5302L204.524 89.6543C204.365 89.9466 204.205 90.2567 204.037 90.5668ZM205.038 88.7505L204.825 88.6265C205.003 88.3164 205.18 88.0152 205.357 87.7316L205.57 87.8557C205.393 88.1392 205.215 88.4404 205.038 88.7505ZM206.11 86.9785L205.898 86.8456C206.101 86.5178 206.296 86.2254 206.465 85.9685L206.668 86.1103C206.5 86.3672 206.314 86.6596 206.11 86.9785Z" fill="white"/>
<path d="M200.457 100.517L200.209 100.472C200.245 100.304 200.271 100.127 200.307 99.9585L200.555 100.012C200.52 100.18 200.484 100.348 200.457 100.517Z" fill="white"/>
<path d="M209.123 85.8446L208.874 85.8003C208.937 85.4636 208.972 85.2864 208.972 85.2864L209.211 85.3395C209.22 85.3307 209.185 85.5167 209.123 85.8446Z" fill="white"/>
<path d="M207.82 98.2751C207.811 97.9296 207.802 97.5752 207.802 97.2297H208.051C208.051 97.5752 208.059 97.9207 208.068 98.2663L207.82 98.2751ZM208.059 96.193H207.811C207.82 95.8475 207.829 95.4931 207.838 95.1564L208.086 95.1653C208.068 95.502 208.059 95.8475 208.059 96.193ZM208.13 94.1287L207.882 94.1109C207.9 93.7565 207.926 93.411 207.944 93.0743L208.192 93.092C208.175 93.4287 208.148 93.7743 208.13 94.1287ZM208.281 92.0554L208.033 92.0377C208.068 91.6833 208.095 91.3378 208.13 91.0011L208.378 91.0277C208.343 91.3555 208.307 91.701 208.281 92.0554ZM208.494 89.991L208.245 89.9645C208.29 89.6012 208.334 89.2557 208.378 88.9278L208.626 88.9633C208.582 89.2911 208.538 89.6366 208.494 89.991ZM208.768 87.9355L208.52 87.9001C208.573 87.5191 208.635 87.1736 208.68 86.8723L208.928 86.9166C208.883 87.2179 208.83 87.5634 208.768 87.9355Z" fill="white"/>
<path d="M207.953 100.508C207.935 100.331 207.926 100.162 207.909 99.985L208.157 99.9673C208.166 100.144 208.183 100.313 208.201 100.49L207.953 100.508Z" fill="white"/>
<path d="M203.975 104.008C203.966 103.839 203.948 103.662 203.948 103.494L204.196 103.485C204.205 103.653 204.214 103.822 204.223 103.99L203.975 104.008ZM203.913 102.493C203.913 102.36 203.913 102.227 203.913 102.094C203.913 101.89 203.913 101.695 203.922 101.491L204.17 101.5C204.17 101.695 204.161 101.899 204.161 102.094C204.161 102.227 204.161 102.36 204.161 102.493H203.913ZM204.205 100.508L203.957 100.499C203.975 100.162 204.002 99.8346 204.028 99.498L204.276 99.5157C204.25 99.8435 204.223 100.171 204.205 100.508ZM204.374 98.5322L204.126 98.5056C204.161 98.169 204.205 97.8411 204.258 97.5133L204.507 97.5488C204.453 97.8677 204.409 98.1955 204.374 98.5322ZM204.657 96.5653L204.409 96.521C204.471 96.1843 204.533 95.8654 204.595 95.5375L204.843 95.5907C204.781 95.9097 204.719 96.2375 204.657 96.5653ZM205.056 94.6161L204.817 94.5629C204.896 94.2351 204.976 93.9073 205.056 93.5883L205.295 93.6504C205.206 93.9693 205.136 94.2883 205.056 94.6161ZM205.552 92.6935L205.313 92.6226C205.41 92.2948 205.499 91.9758 205.596 91.6657L205.836 91.7366C205.738 92.0556 205.649 92.3657 205.552 92.6935ZM206.146 90.7974L205.906 90.7177C206.022 90.3899 206.128 90.0709 206.243 89.7785L206.473 89.8671C206.367 90.1595 206.252 90.4696 206.146 90.7974ZM206.828 88.9368L206.597 88.8482C206.73 88.5116 206.854 88.2015 206.978 87.9268L207.209 88.0243C207.085 88.2901 206.961 88.6002 206.828 88.9368ZM207.608 87.1028L207.386 86.9965C207.652 86.4206 207.82 86.1016 207.829 86.0928L208.051 86.208C208.033 86.2168 207.864 86.5358 207.608 87.1028Z" fill="white"/>
<path d="M82.2562 312.288C82.1499 312.226 82.0347 312.164 81.9284 312.094C80.1653 310.968 78.5262 309.701 76.5947 308.86C76.515 308.824 76.4529 308.78 76.3732 308.736C75.7619 309.719 75.2568 310.658 74.929 311.429C74.929 311.429 77.7199 313.954 79.6603 315.035C79.6603 315.035 80.8475 314.043 81.8221 313.396C81.9461 313.024 82.0879 312.652 82.2562 312.288Z" fill="#FFD200"/>
</svg>
