<svg width="533" height="369" viewBox="0 0 533 369" fill="none" xmlns="http://www.w3.org/2000/svg">
<path d="M180.695 329.443C180.695 329.443 105.042 344.195 74.3904 323.121C39.6552 299.234 43.4518 254.175 103.869 241.72C183.467 225.32 46.822 175.587 134.57 119.039C171.552 95.2102 145.189 41.0656 198.85 40.6556C244.942 40.303 233.093 131.708 311.633 107.535C368.155 90.1426 392.378 79.6302 407.196 108.043C430.344 152.463 368.598 199.153 400.357 215.488C432.115 231.822 510.598 228.14 490.18 294.314C469.081 362.752 289.69 320.185 180.695 329.443Z" fill="#8BD88B"/>
<path d="M175.775 247.771L173.61 248.763L176.202 254.159L178.317 253.068L175.775 247.771Z" fill="#B0B000"/>
<path d="M172.266 239.719L170.06 240.629L172.413 246.107L174.586 245.139L172.266 239.719Z" fill="#B0B000"/>
<path d="M169.051 231.543L166.821 232.372L168.961 237.931L171.175 237.046L169.051 231.543Z" fill="#B0B000"/>
<path d="M166.206 223.245L163.934 223.967L165.829 229.625L168.075 228.829L166.206 223.245Z" fill="#B0B000"/>
<path d="M163.77 214.832L161.466 215.43C161.958 217.366 162.508 219.276 163.073 221.187L165.353 220.498C164.787 218.612 164.254 216.726 163.77 214.832Z" fill="#B0B000"/>
<path d="M161.86 206.296L159.515 206.73C159.9 208.69 160.277 210.65 160.761 212.585L163.082 212.036C162.606 210.133 162.237 208.214 161.86 206.296Z" fill="#B0B000"/>
<path d="M160.687 197.669L158.309 197.866C158.498 199.859 158.695 201.859 159.031 203.827L161.384 203.467C161.064 201.548 160.876 199.604 160.687 197.669Z" fill="#B0B000"/>
<path d="M160.572 189.026L158.194 188.871C158.022 190.896 158.088 192.905 158.112 194.922L160.49 194.824C160.474 192.889 160.408 190.953 160.572 189.026Z" fill="#B0B000"/>
<path d="M162.032 180.638L159.752 179.933C159.17 181.892 158.711 183.901 158.481 185.919L160.843 186.23C161.056 184.32 161.491 182.45 162.032 180.638Z" fill="#B0B000"/>
<path d="M165.804 173.209L163.934 171.733C162.68 173.405 161.606 175.193 160.786 177.095L162.975 178.038C163.721 176.3 164.689 174.709 165.804 173.209Z" fill="#B0B000"/>
<path d="M172.216 168.034L171.134 165.911C170.24 166.444 169.305 166.911 168.444 167.501L166.001 169.469L167.641 171.2L169.806 169.453C170.576 168.928 171.421 168.51 172.216 168.034Z" fill="#B0B000"/>
<path d="M180.138 166.132L180.129 163.746C178.473 163.738 176.882 163.885 175.201 164.23L175.144 164.238L175.111 164.254L173.914 164.722L174.742 166.96L175.824 166.534L175.734 166.558C177.12 166.271 178.67 166.116 180.138 166.132Z" fill="#B0B000"/>
<path d="M187.985 167.993L189.215 165.952C187.337 164.828 185.254 164.254 183.188 163.926L182.868 166.288C184.689 166.575 186.46 167.075 187.985 167.993Z" fill="#B0B000"/>
<path d="M192.454 174.234L194.75 173.594C194.291 171.528 193.159 169.568 191.716 167.944L189.994 169.592C191.126 170.904 192.06 172.446 192.454 174.234Z" fill="#B0B000"/>
<path d="M192.823 182.54L195.185 182.778C195.414 180.736 195.545 178.703 195.299 176.628L192.93 176.874C193.151 178.744 193.036 180.654 192.823 182.54Z" fill="#B0B000"/>
<path d="M190.707 190.699L192.913 191.577C194.053 189.83 194.266 187.731 194.709 185.738L192.38 185.287C191.962 187.132 191.79 189.092 190.707 190.699Z" fill="#B0B000"/>
<path d="M184.91 196.841L186.73 198.26C188.338 196.98 189.846 195.578 191.158 194.012L189.059 192.938C187.813 194.381 186.402 195.668 184.91 196.841Z" fill="#B0B000"/>
<path d="M177.801 201.466L179.072 203.303C180.867 202.302 182.639 201.253 184.311 200.055L182.655 198.489C181.105 199.588 179.465 200.547 177.801 201.466Z" fill="#B0B000"/>
<path d="M170.035 204.869L170.658 207.001C172.61 206.345 174.512 205.541 176.382 204.672L175.316 202.72C173.586 203.516 171.831 204.254 170.035 204.869Z" fill="#B0B000"/>
<path d="M161.802 206.894L161.737 209.157C163.77 208.887 165.796 208.46 167.772 207.886L167.37 205.697C165.55 206.23 163.68 206.64 161.802 206.894Z" fill="#B0B000"/>
<path d="M153.34 207.05L152.594 209.264C154.627 209.502 156.686 209.6 158.736 209.461L159.031 207.189C157.137 207.329 155.234 207.255 153.34 207.05Z" fill="#B0B000"/>
<path d="M145.337 204.393L143.984 206.345C145.722 207.435 147.682 208.108 149.65 208.665L150.601 206.517C148.781 206.017 146.952 205.41 145.337 204.393Z" fill="#B0B000"/>
<path d="M139.187 198.776L137.243 200.154C138.49 201.818 139.884 203.401 141.507 204.664L143.033 202.835C141.524 201.671 140.31 200.269 139.187 198.776Z" fill="#B0B000"/>
<path d="M135.587 191.175L133.307 191.88C133.898 193.84 134.701 195.726 135.636 197.571L137.735 196.439C136.883 194.75 136.145 193.003 135.587 191.175Z" fill="#B0B000"/>
<path d="M133.947 182.753L131.577 182.999C131.848 184.992 132.028 187.017 132.561 188.985L134.882 188.452C134.382 186.607 134.209 184.664 133.947 182.753Z" fill="#B0B000"/>
<path d="M133.594 174.086L131.208 174.053C131.052 176.062 131.274 178.063 131.389 180.064L133.767 179.908C133.66 177.965 133.439 176.029 133.594 174.086Z" fill="#B0B000"/>
<path d="M134.267 165.443L131.905 165.107C131.651 167.1 131.298 169.084 131.315 171.101L133.693 171.232C133.668 169.289 134.021 167.37 134.267 165.443Z" fill="#B0B000"/>
<path d="M135.981 156.956L133.676 156.317L132.299 162.188L134.644 162.622L135.981 156.956Z" fill="#B0B000"/>
<path d="M138.842 148.781L136.645 147.854C135.735 149.65 135.267 151.626 134.554 153.504L136.817 154.242C137.514 152.422 137.957 150.511 138.842 148.781Z" fill="#B0B000"/>
<path d="M142.729 141.032L140.663 139.843C139.671 141.589 138.629 143.303 137.867 145.173L140.023 146.19C140.753 144.377 141.778 142.721 142.729 141.032Z" fill="#B0B000"/>
<path d="M147.461 133.75L145.55 132.332L142.131 137.284L144.148 138.555L147.461 133.75Z" fill="#B0B000"/>
<path d="M153.028 127.067L151.274 125.46C149.839 126.862 148.666 128.502 147.379 130.027L149.24 131.512C150.503 130.027 151.634 128.428 153.028 127.067Z" fill="#B0B000"/>
<path d="M159.228 120.942L157.629 119.171C156.153 120.524 154.636 121.827 153.299 123.32L155.005 124.984C156.308 123.541 157.793 122.262 159.228 120.942Z" fill="#B0B000"/>
<path d="M165.927 115.358L164.484 113.463L159.802 117.203L161.351 119.015L165.927 115.358Z" fill="#B0B000"/>
<path d="M173.069 110.331L171.774 108.33C170.093 109.404 168.494 110.602 166.845 111.725L168.239 113.66C169.855 112.553 171.421 111.381 173.069 110.331Z" fill="#B0B000"/>
<path d="M180.58 105.846L179.424 103.763C177.653 104.681 175.956 105.731 174.266 106.789L175.521 108.814C177.177 107.781 178.842 106.748 180.58 105.846Z" fill="#B0B000"/>
<path d="M188.362 101.844L187.337 99.6956C185.55 100.573 183.721 101.368 181.991 102.369L183.106 104.476C184.803 103.492 186.607 102.713 188.362 101.844Z" fill="#B0B000"/>
<path d="M196.374 98.2933L195.472 96.0875L189.969 98.4245L190.953 100.598L196.374 98.2933Z" fill="#B0B000"/>
<path d="M204.565 95.1937L203.786 92.9387L198.186 95.0051L199.047 97.2273L204.565 95.1937Z" fill="#B0B000"/>
<path d="M212.929 92.5698L212.273 90.282C210.346 90.7822 208.477 91.4628 206.574 92.045L207.312 94.3082C209.182 93.7342 211.027 93.0618 212.929 92.5698Z" fill="#B0B000"/>
<path d="M221.416 90.3721L220.875 88.0515C218.932 88.4615 217.005 88.9699 215.086 89.5111L215.709 91.8153C217.595 91.2741 219.498 90.7821 221.416 90.3721Z" fill="#B0B000"/>
<path d="M230.002 88.5928L229.575 86.2476C227.624 86.6248 225.656 86.9282 223.721 87.4038L224.221 89.7326C226.131 89.257 228.075 88.9618 230.002 88.5928Z" fill="#B0B000"/>
<path d="M238.661 87.2316L238.358 84.87L232.445 85.7228L232.839 88.068L238.661 87.2316Z" fill="#B0B000"/>
<path d="M247.386 86.2968L247.197 83.9188L241.252 84.5092L241.523 86.8708L247.386 86.2968Z" fill="#B0B000"/>
<path d="M256.135 85.8622L256.078 83.476C254.085 83.4596 252.101 83.6646 250.116 83.7466L250.264 86.1246C252.216 86.0508 254.175 85.8458 256.135 85.8622Z" fill="#B0B000"/>
<path d="M264.893 85.9032L264.967 83.5252C262.974 83.435 260.99 83.394 258.997 83.4514L259.013 85.8376C260.973 85.772 262.933 85.813 264.893 85.9032Z" fill="#B0B000"/>
<path d="M273.626 86.4445L273.847 84.0747C271.863 83.9271 269.878 83.6975 267.886 83.6237L267.763 86.0017C269.731 86.0755 271.674 86.3051 273.626 86.4445Z" fill="#B0B000"/>
<path d="M282.301 87.5351L282.695 85.1899L276.766 84.3699L276.488 86.7397L282.301 87.5351Z" fill="#B0B000"/>
<path d="M290.846 89.3227L291.42 87.0103C289.493 86.4773 287.533 86.0837 285.565 85.7311L285.114 88.0681C287.049 88.4207 288.968 88.8061 290.846 89.3227Z" fill="#B0B000"/>
<path d="M299.21 91.7826L299.997 89.5358C298.086 88.9454 296.2 88.2566 294.265 87.74L293.626 90.036C295.512 90.5362 297.348 91.2004 299.21 91.7826Z" fill="#B0B000"/>
<path d="M307.32 95.0216L308.279 92.8404L302.736 90.569L301.891 92.7994L307.32 95.0216Z" fill="#B0B000"/>
<path d="M315.151 98.851L316.29 96.76L310.977 93.972L309.968 96.1286L315.151 98.851Z" fill="#B0B000"/>
<path d="M322.572 103.377L323.925 101.418C322.244 100.327 320.604 99.1626 318.89 98.1294L317.684 100.188C319.357 101.188 320.948 102.311 322.572 103.377Z" fill="#B0B000"/>
<path d="M329.419 108.683L331.009 106.912L326.385 103.041L324.958 104.952L329.419 108.683Z" fill="#B0B000"/>
<path d="M335.478 114.841L337.315 113.324L333.182 108.904L331.51 110.61L335.478 114.841Z" fill="#B0B000"/>
<path d="M340.251 121.983L342.334 120.827C341.448 118.99 340.267 117.35 339.054 115.727L337.127 117.129C338.291 118.679 339.423 120.237 340.251 121.983Z" fill="#B0B000"/>
<path d="M343.703 129.814L345.983 129.117C345.245 127.223 344.589 125.296 343.752 123.451L341.596 124.468C342.391 126.206 342.998 128.035 343.703 129.814Z" fill="#B0B000"/>
<path d="M345.212 138.203L347.59 138.055C347.368 136.03 347.262 133.98 346.68 132.02L344.359 132.545C344.908 134.39 344.999 136.309 345.212 138.203Z" fill="#B0B000"/>
<path d="M344.662 146.657L346.991 147.149C347.327 145.124 347.68 143.098 347.631 141.048L345.245 140.999C345.302 142.918 344.966 144.779 344.662 146.657Z" fill="#B0B000"/>
<path d="M341.505 154.275L343.432 155.677C344.105 154.832 344.638 153.922 345.031 152.955C345.491 152.012 345.95 151.069 346.188 150.068L343.924 149.322C343.711 150.249 343.293 151.077 342.883 151.913C342.53 152.791 342.071 153.578 341.505 154.275Z" fill="#B0B000"/>
<path d="M335.011 158.924L335.847 161.155C337.848 160.326 339.587 159.449 341.276 158.03L339.783 156.169C338.488 157.309 336.635 158.268 335.011 158.924Z" fill="#B0B000"/>
<path d="M327.582 158.301L326.393 160.367C328.213 161.417 330.485 162.163 332.74 161.909L332.518 159.539C330.821 159.728 329.156 159.195 327.582 158.301Z" fill="#B0B000"/>
<path d="M321.145 152.881L319.382 154.488C320.8 156.038 322.252 157.333 323.867 158.645L325.335 156.768C323.884 155.595 322.375 154.242 321.145 152.881Z" fill="#B0B000"/>
<path d="M318.972 145.575L316.594 145.386C316.52 147.518 316.684 149.732 317.643 151.733L319.825 150.765C319.046 149.199 318.923 147.354 318.972 145.575Z" fill="#B0B000"/>
<path d="M322.055 138.244L320.21 136.735C318.857 138.359 317.832 140.269 317.192 142.311L319.472 142.992C320.03 141.27 320.891 139.646 322.055 138.244Z" fill="#B0B000"/>
<path d="M328.656 133.414L327.688 131.241L324.9 132.635L322.375 134.521L323.925 136.325L326.147 134.669L328.656 133.414Z" fill="#B0B000"/>
<path d="M336.815 131.249L336.503 128.888C334.486 129.183 332.469 129.47 330.526 130.2L331.255 132.471C333.027 131.799 334.921 131.528 336.815 131.249Z" fill="#B0B000"/>
<path d="M345.4 130.97L345.515 128.592C343.514 128.338 341.481 128.601 339.464 128.609L339.619 130.987C341.538 130.987 343.465 130.716 345.4 130.97Z" fill="#B0B000"/>
<path d="M354.019 131.979L354.42 129.626C352.444 129.298 350.484 128.888 348.467 128.806L348.246 131.175C350.181 131.257 352.092 131.659 354.019 131.979Z" fill="#B0B000"/>
<path d="M362.53 133.84L363.129 131.536C361.185 131.077 359.283 130.478 357.307 130.126L356.831 132.463C358.758 132.807 360.628 133.389 362.53 133.84Z" fill="#B0B000"/>
<path d="M370.796 136.514L371.657 134.291C369.763 133.627 367.901 132.807 365.974 132.266L365.318 134.554C367.196 135.079 368.959 135.866 370.796 136.514Z" fill="#B0B000"/>
<path d="M378.602 140.179L379.775 138.104C377.987 137.186 376.298 136.038 374.42 135.316L373.461 137.498C375.265 138.195 376.88 139.302 378.602 140.179Z" fill="#B0B000"/>
<path d="M385.769 144.968L387.245 143.098C385.613 141.917 384.08 140.589 382.366 139.531L381.087 141.54C382.735 142.557 384.203 143.836 385.769 144.968Z" fill="#B0B000"/>
<path d="M392.132 150.79L393.879 149.166L389.607 144.886L388.04 146.682L392.132 150.79Z" fill="#B0B000"/>
<path d="M397.585 157.497L399.545 156.136L395.888 151.323L394.067 152.864L397.585 157.497Z" fill="#B0B000"/>
<path d="M402.054 164.91L404.178 163.828L401.16 158.604L399.143 159.875L402.054 164.91Z" fill="#B0B000"/>
<path d="M405.482 172.872L407.729 172.069C407.056 170.183 406.171 168.371 405.4 166.517L403.235 167.51C403.965 169.297 404.826 171.044 405.482 172.872Z" fill="#B0B000"/>
<path d="M407.884 181.212L410.205 180.679C409.91 178.686 409.131 176.817 408.59 174.881L406.318 175.595C406.835 177.473 407.597 179.285 407.884 181.212Z" fill="#B0B000"/>
<path d="M409.319 189.773L411.689 189.51C411.566 187.501 411.214 185.533 410.779 183.565L408.442 184.008C408.852 185.919 409.205 187.829 409.319 189.773Z" fill="#B0B000"/>
<path d="M409.787 198.448L412.173 198.457C412.165 196.448 412.247 194.439 411.968 192.446L409.59 192.626C409.861 194.553 409.787 196.497 409.787 198.448Z" fill="#B0B000"/>
<path d="M409.278 207.107L411.648 207.394C411.812 205.394 412.14 203.401 412.165 201.4L409.787 201.302C409.762 203.245 409.434 205.172 409.278 207.107Z" fill="#B0B000"/>
<path d="M407.753 215.635L410.066 216.218L411.287 210.314L408.934 209.936L407.753 215.635Z" fill="#B0B000"/>
<path d="M404.998 223.811L407.196 224.737C408.114 222.933 408.532 220.941 409.221 219.047L406.941 218.35C406.269 220.17 405.875 222.097 404.998 223.811Z" fill="#B0B000"/>
<path d="M400.931 231.371L402.915 232.691C404.055 231.01 405.162 229.305 405.933 227.427L403.793 226.377C403.063 228.173 402.005 229.78 400.931 231.371Z" fill="#B0B000"/>
<path d="M294.364 208.788C252.027 204.541 133.767 212.831 130.372 308.533C130.068 317.02 130.839 325.679 132.274 334.486L409.221 335.355C423.218 260.703 340.981 213.454 294.364 208.788Z" fill="#468DF5"/>
<path d="M208.272 217.554C208.272 217.554 198.005 270.198 253.167 278.136C253.167 278.136 308.927 278.931 330.206 218.333C330.206 218.325 273.511 191.232 208.272 217.554Z" fill="#A56745"/>
<path d="M253.167 278.136C239.374 278.136 228.329 273.831 220.334 265.336C203.852 247.829 205.968 219.473 206.066 218.259L208.28 217.562C208.255 217.849 206.214 247.033 221.999 263.794C229.813 272.092 240.768 276.143 254.544 275.856C304.45 274.807 320.21 236.586 326.95 220.268C327.369 219.252 327.762 218.3 328.123 217.448L330.214 218.333C329.853 219.186 329.468 220.121 329.05 221.129C322.145 237.857 305.983 277.045 254.594 278.128C254.11 278.128 253.634 278.136 253.167 278.136Z" fill="white"/>
<path d="M194.438 334.478C194.438 334.478 197.423 272.888 151.511 275.126C105.6 277.365 59.8272 277.898 59.8272 277.898C59.8272 277.898 49.815 304.778 119.613 302.006C131.38 301.539 157.383 300.833 145.017 334.478H194.438Z" fill="#A56745"/>
<path d="M265.098 244.188C265.098 248.977 261.17 252.863 256.332 252.863C251.494 252.863 247.566 248.977 247.566 244.188C247.566 239.399 251.494 235.512 256.332 235.512C261.17 235.512 265.098 239.391 265.098 244.188Z" fill="#959900"/>
<path d="M256.324 235.512C254.151 235.512 252.166 236.299 250.633 237.595C249.813 238.915 249.337 240.465 249.337 242.121C249.337 246.918 253.265 250.797 258.103 250.797C260.284 250.797 262.269 250.01 263.794 248.714C264.614 247.394 265.09 245.852 265.09 244.188C265.098 239.391 261.17 235.512 256.324 235.512Z" fill="#AEAE01"/>
<path d="M282.629 244.188C282.629 248.977 278.702 252.863 273.864 252.863C269.017 252.863 265.098 248.977 265.098 244.188C265.098 239.399 269.026 235.512 273.864 235.512C278.702 235.512 282.629 239.391 282.629 244.188Z" fill="#959900"/>
<path d="M265.098 244.188C265.098 245.844 265.582 247.394 266.393 248.714C267.927 250.01 269.911 250.805 272.084 250.805C276.93 250.805 280.858 246.918 280.858 242.13C280.858 240.473 280.374 238.923 279.554 237.603C278.021 236.308 276.037 235.52 273.864 235.52C269.017 235.512 265.098 239.391 265.098 244.188Z" fill="#AEAE01"/>
<path d="M248.501 240.26C248.501 244.024 245.418 247.074 241.613 247.074C237.808 247.074 234.725 244.024 234.725 240.26C234.725 236.496 237.808 233.438 241.613 233.438C245.418 233.446 248.501 236.496 248.501 240.26Z" fill="#959900"/>
<path d="M241.613 233.446C239.899 233.446 238.341 234.069 237.144 235.086C236.496 236.119 236.119 237.341 236.119 238.645C236.119 242.408 239.202 245.459 243.015 245.459C244.721 245.459 246.279 244.844 247.484 243.819C248.132 242.786 248.509 241.572 248.509 240.268C248.501 236.496 245.418 233.446 241.613 233.446Z" fill="#AEAE01"/>
<path d="M237.726 232.249C237.726 235.406 235.135 237.972 231.945 237.972C228.747 237.972 226.164 235.406 226.164 232.249C226.164 229.092 228.747 226.525 231.945 226.525C235.135 226.525 237.726 229.083 237.726 232.249Z" fill="#959900"/>
<path d="M231.945 226.525C230.51 226.525 229.198 227.042 228.19 227.903C227.648 228.772 227.337 229.789 227.337 230.887C227.337 234.053 229.92 236.611 233.118 236.611C234.553 236.611 235.865 236.094 236.873 235.233C237.415 234.364 237.726 233.347 237.726 232.249C237.726 229.083 235.135 226.525 231.945 226.525Z" fill="#AEAE01"/>
<path d="M231.224 223.893C231.224 226.656 228.96 228.903 226.164 228.903C223.368 228.903 221.105 226.664 221.105 223.893C221.105 221.121 223.368 218.883 226.164 218.883C228.952 218.883 231.224 221.129 231.224 223.893Z" fill="#959900"/>
<path d="M226.164 218.883C224.91 218.883 223.762 219.334 222.876 220.088C222.409 220.851 222.13 221.744 222.13 222.704C222.13 225.467 224.393 227.714 227.189 227.714C228.444 227.714 229.592 227.263 230.477 226.509C230.953 225.746 231.224 224.852 231.224 223.901C231.224 221.129 228.952 218.883 226.164 218.883Z" fill="#AEAE01"/>
<path d="M295.167 239.998C295.167 243.909 291.961 247.082 288.009 247.082C284.056 247.082 280.858 243.909 280.858 239.998C280.858 236.086 284.064 232.921 288.009 232.921C291.961 232.913 295.167 236.086 295.167 239.998Z" fill="#959900"/>
<path d="M280.858 239.998C280.858 241.351 281.252 242.613 281.916 243.696C283.171 244.754 284.786 245.401 286.565 245.401C290.518 245.401 293.732 242.236 293.732 238.317C293.732 236.964 293.339 235.701 292.666 234.627C291.412 233.569 289.796 232.921 288.017 232.921C284.056 232.913 280.858 236.086 280.858 239.998Z" fill="#AEAE01"/>
<path d="M228.862 221.195C229.157 220.867 229.6 219.653 229.6 219.653C229.6 219.653 230.272 220.777 230.633 221.047C230.994 221.318 232.331 221.712 232.331 221.712C232.331 221.712 231.092 222.327 230.797 222.655C230.502 222.983 230.059 224.196 230.059 224.196C230.059 224.196 229.379 223.073 229.026 222.802C228.673 222.532 227.329 222.138 227.329 222.138C227.329 222.138 228.567 221.515 228.862 221.195Z" fill="white"/>
<path d="M228.862 221.195C229.157 220.867 229.6 219.653 229.6 219.653C229.6 219.653 230.272 220.777 230.633 221.047C230.994 221.318 232.331 221.712 232.331 221.712C232.331 221.712 231.092 222.327 230.797 222.655C230.502 222.983 230.059 224.196 230.059 224.196C230.059 224.196 229.379 223.073 229.026 222.802C228.673 222.532 227.329 222.138 227.329 222.138C227.329 222.138 228.567 221.515 228.862 221.195Z" fill="white"/>
<path d="M228.862 221.195C229.157 220.867 229.6 219.653 229.6 219.653C229.6 219.653 230.272 220.777 230.633 221.047C230.994 221.318 232.331 221.712 232.331 221.712C232.331 221.712 231.092 222.327 230.797 222.655C230.502 222.983 230.059 224.196 230.059 224.196C230.059 224.196 229.379 223.073 229.026 222.802C228.673 222.532 227.329 222.138 227.329 222.138C227.329 222.138 228.567 221.515 228.862 221.195Z" fill="white"/>
<path d="M289.263 243.86C289.64 243.442 290.206 241.875 290.206 241.875C290.206 241.875 291.075 243.327 291.535 243.663C291.994 244.007 293.716 244.516 293.716 244.516C293.716 244.516 292.125 245.311 291.74 245.721C291.354 246.139 290.797 247.706 290.797 247.706C290.797 247.706 289.919 246.262 289.468 245.918C289.009 245.574 287.287 245.065 287.287 245.065C287.287 245.065 288.878 244.278 289.263 243.86Z" fill="white"/>
<path d="M303.482 204.688C303.482 207.132 301.473 209.116 299.005 209.116C296.537 209.116 294.528 207.132 294.528 204.688C294.528 202.245 296.528 200.26 299.005 200.26C301.473 200.252 303.482 202.237 303.482 204.688Z" fill="#959900"/>
<path d="M294.528 204.688C294.528 205.533 294.774 206.328 295.192 207.001C295.971 207.665 296.988 208.067 298.095 208.067C300.563 208.067 302.572 206.082 302.572 203.639C302.572 202.794 302.326 201.999 301.916 201.335C301.129 200.67 300.112 200.269 299.005 200.269C296.528 200.252 294.528 202.237 294.528 204.688Z" fill="#AEAE01"/>
<path d="M295.758 201.048C296.118 200.654 296.651 199.178 296.651 199.178C296.651 199.178 297.471 200.539 297.906 200.867C298.341 201.195 299.964 201.679 299.964 201.679C299.964 201.679 298.464 202.425 298.103 202.811C297.742 203.204 297.209 204.68 297.209 204.68C297.209 204.68 296.389 203.319 295.963 202.991C295.52 202.663 293.896 202.187 293.896 202.187C293.896 202.187 295.397 201.441 295.758 201.048Z" fill="white"/>
<path d="M328.541 335.347C328.541 335.347 325.556 273.757 371.468 275.996C417.38 278.234 472.755 276.135 472.755 276.135C472.755 276.135 477.486 298.685 407.688 295.922C395.921 295.454 365.589 301.711 377.954 335.347H328.541Z" fill="#A56745"/>
<path d="M314.167 249.354C313.691 243.909 322.506 245.951 325.261 246.279C344.179 248.509 355.429 234.29 360.037 231.109C362.301 229.543 364.58 229.297 365.335 228.952C368.319 227.616 368.311 225.434 369.976 222.925C371.255 220.99 371.493 225.943 371.157 226.91C370.484 228.862 369.246 230.379 367.934 231.953C368.155 232.782 368.172 233.626 367.967 234.315C365.728 241.851 357.93 258.521 337.602 259.94C319.554 261.203 314.454 252.708 314.167 249.354Z" fill="#FFD600"/>
<path d="M367.975 234.315C365.736 241.851 357.938 258.521 337.61 259.94C319.554 261.203 314.454 252.708 314.158 249.354C331.813 263.392 343.957 253.724 359.652 234.356C362.612 230.699 364.81 232.642 365.433 232.085C366.081 231.511 368.18 233.618 367.975 234.315Z" fill="#FFAC00"/>
<path d="M316.249 246.057C316.249 246.057 316.397 247.337 315.708 248.058C315.019 248.78 314.306 249.944 314.167 249.362C314.044 248.821 313.765 246.935 316.249 246.057Z" fill="#855041"/>
<path d="M319.956 263.712C318.185 258.538 327.237 258.407 329.984 258.07C348.885 255.701 357.512 238.489 360.825 233.979C361.12 233.577 361.407 233.249 361.702 232.954C362.596 232.068 363.555 231.912 364.318 231.601C365.728 231.019 368.656 227.484 369.443 224.573C370.238 221.613 371.616 224.778 371.517 225.795C371.337 227.853 368.877 232.093 367.991 233.938C368.401 234.684 368.623 235.504 368.59 236.226C368.221 244.081 364.638 262.129 345.253 268.378C328.025 273.929 321.046 266.902 319.956 263.712Z" fill="#FFD600"/>
<path d="M369.517 225.836C369.148 233.692 364.646 262.121 345.261 268.37C328.033 273.921 321.046 266.902 319.956 263.712C348.008 277.718 356.282 254.315 363.982 236.39C364.523 235.127 367.499 232.847 367.942 231.945C369.156 229.452 369.541 225.311 369.517 225.836Z" fill="#FFAC00"/>
<path d="M336.462 277.841C333.084 273.544 341.579 270.428 344.064 269.198C361.12 260.711 363.563 241.613 365.195 236.258C365.335 235.783 365.507 235.373 365.687 235.004C366.245 233.872 366.95 233.192 367.713 232.864C368.475 231.552 369.115 229.526 368.893 226.517C368.664 223.458 371.001 224.68 371.255 225.672C371.763 227.673 371.78 230.535 371.78 232.298C371.78 233.151 373.067 235.11 373.272 235.799C375.519 243.335 378.11 261.555 361.882 273.864C347.45 284.811 338.537 280.489 336.462 277.841Z" fill="#FFD600"/>
<path d="M373.272 235.807C375.519 243.343 378.11 261.564 361.882 273.872C347.459 284.811 338.545 280.497 336.462 277.841C377.618 281.014 373.272 235.807 373.272 235.807Z" fill="#FFAC00"/>
<path d="M336.397 273.946C336.397 273.946 337.225 274.938 337.036 275.914C336.856 276.898 336.889 278.259 336.462 277.841C336.069 277.463 334.798 276.037 336.397 273.946Z" fill="#855041"/>
<path d="M372.419 234.151C372.419 234.151 372.198 229.715 373.395 226.131C374.592 222.548 376.798 221.884 375.617 221.146C374.437 220.408 370.566 220.867 369.738 223.483C368.91 226.099 369.057 229.616 366.097 234.29C363.916 237.734 372.419 234.151 372.419 234.151Z" fill="#FFD600"/>
<path d="M371.862 220.933C371.534 221.08 370.87 221.466 370.861 221.941C370.853 222.482 372.813 222.573 373.83 222.31C374.847 222.048 376.454 222.089 375.945 221.441C375.445 220.801 373.412 220.236 371.862 220.933Z" fill="#855041"/>
<path d="M365.113 261.154C365.113 261.154 368.065 254.003 364.966 253.708C361.874 253.413 358.832 260.908 355.7 264.245C353.215 266.894 348.311 269.846 345.138 270.879C341.973 271.912 343.244 273.609 345.63 273.462C348.016 273.314 358.701 272.355 365.113 261.154Z" fill="#FFE25C"/>
<path d="M348.656 257.66C348.656 257.66 352.862 252.544 350.402 251.527C347.942 250.51 343.58 255.881 340.177 257.841C337.479 259.391 332.723 260.58 329.87 260.629C327.016 260.678 327.639 262.392 329.624 262.867C331.608 263.335 340.603 265.229 348.656 257.66Z" fill="#FFE25C"/>
<path d="M337.348 251.42C337.348 251.42 342.383 248.739 340.759 247.115C339.136 245.491 333.896 248.329 330.542 248.755C327.885 249.099 323.711 248.468 321.424 247.566C319.136 246.664 319.062 248.23 320.489 249.264C321.916 250.305 328.443 254.782 337.348 251.42Z" fill="#FFE25C"/>
<path d="M472.283 208.839L432.702 208.987L432.962 278.941L472.544 278.794L472.283 208.839Z" fill="#855041"/>
<g opacity="0.2">
<path d="M445.381 210.097L433.769 210.14L433.83 226.376L445.441 226.333L445.381 210.097Z" fill="black"/>
</g>
<g opacity="0.2">
<path d="M444.499 211.527L434.922 211.563L434.973 225.421L444.551 225.385L444.499 211.527Z" fill="black"/>
</g>
<path d="M443.877 211.528L434.923 211.562L434.972 224.936L443.927 224.903L443.877 211.528Z" fill="#855041"/>
<path d="M435.707 224.016L441.718 224.081L436.847 223.089L435.666 214.766L435.707 224.016Z" fill="#AA6D60"/>
<g opacity="0.1">
<path d="M436.527 211.552C436.429 211.995 436.379 212.462 436.379 212.929C436.396 216.521 438.593 218.702 442.185 218.686C442.784 218.686 443.349 218.596 443.899 218.44L443.874 211.519L436.527 211.552Z" fill="#CB9E95"/>
</g>
<g opacity="0.2">
<path d="M458.255 210.047L446.643 210.091L446.704 226.327L458.315 226.283L458.255 210.047Z" fill="black"/>
</g>
<g opacity="0.2">
<path d="M457.373 211.478L447.796 211.514L447.847 225.372L457.425 225.336L457.373 211.478Z" fill="black"/>
</g>
<path d="M456.751 211.479L447.797 211.513L447.847 224.887L456.801 224.853L456.751 211.479Z" fill="#855041"/>
<path d="M448.573 223.967L454.592 224.032L449.721 223.04L448.54 214.717L448.573 223.967Z" fill="#AA6D60"/>
<g opacity="0.1">
<path d="M449.393 211.511C449.294 211.954 449.245 212.421 449.245 212.888C449.262 216.472 451.459 218.661 455.051 218.645C455.649 218.645 456.215 218.555 456.765 218.399L456.74 211.478L449.393 211.511Z" fill="#CB9E95"/>
</g>
<g opacity="0.2">
<path d="M471.129 209.998L459.517 210.041L459.578 226.277L471.189 226.234L471.129 209.998Z" fill="black"/>
</g>
<g opacity="0.2">
<path d="M470.247 211.429L460.67 211.464L460.721 225.322L470.299 225.287L470.247 211.429Z" fill="black"/>
</g>
<path d="M469.617 211.43L460.663 211.463L460.712 224.838L469.667 224.804L469.617 211.43Z" fill="#855041"/>
<path d="M461.447 223.917L467.466 223.991L462.587 222.991L461.414 214.668L461.447 223.917Z" fill="#AA6D60"/>
<g opacity="0.1">
<path d="M462.267 211.462C462.168 211.904 462.119 212.372 462.119 212.839C462.136 216.431 464.333 218.612 467.925 218.596C468.523 218.596 469.089 218.505 469.639 218.35L469.614 211.429L462.267 211.462Z" fill="#CB9E95"/>
</g>
<g opacity="0.2">
<path d="M445.446 227.259L433.835 227.303L433.895 243.539L445.507 243.495L445.446 227.259Z" fill="black"/>
</g>
<g opacity="0.2">
<path d="M444.565 228.69L434.987 228.726L435.039 242.584L444.617 242.548L444.565 228.69Z" fill="black"/>
</g>
<path d="M443.943 228.691L434.988 228.724L435.038 242.099L443.992 242.065L443.943 228.691Z" fill="#855041"/>
<path d="M435.764 241.178L441.783 241.244L436.912 240.252L435.732 231.929L435.764 241.178Z" fill="#AA6D60"/>
<g opacity="0.1">
<path d="M436.584 228.714C436.486 229.157 436.437 229.625 436.437 230.092C436.453 233.675 438.651 235.865 442.242 235.848C442.841 235.848 443.407 235.758 443.956 235.602L443.932 228.682L436.584 228.714Z" fill="#CB9E95"/>
</g>
<g opacity="0.2">
<path d="M458.32 227.21L446.709 227.253L446.769 243.489L458.381 243.446L458.32 227.21Z" fill="black"/>
</g>
<g opacity="0.2">
<path d="M457.439 228.641L447.861 228.676L447.913 242.534L457.491 242.499L457.439 228.641Z" fill="black"/>
</g>
<path d="M456.808 228.642L447.854 228.675L447.904 242.049L456.858 242.016L456.808 228.642Z" fill="#855041"/>
<path d="M448.638 241.129L454.657 241.195L449.778 240.203L448.606 231.88L448.638 241.129Z" fill="#AA6D60"/>
<g opacity="0.1">
<path d="M449.458 228.673C449.36 229.116 449.311 229.584 449.311 230.051C449.327 233.634 451.525 235.824 455.116 235.807C455.715 235.807 456.281 235.717 456.83 235.561L456.806 228.641L449.458 228.673Z" fill="#CB9E95"/>
</g>
<g opacity="0.2">
<path d="M471.186 227.161L459.575 227.204L459.635 243.44L471.247 243.397L471.186 227.161Z" fill="black"/>
</g>
<g opacity="0.2">
<path d="M470.305 228.592L460.727 228.627L460.779 242.485L470.357 242.45L470.305 228.592Z" fill="black"/>
</g>
<path d="M469.683 228.593L460.728 228.626L460.778 242L469.732 241.967L469.683 228.593Z" fill="#855041"/>
<path d="M461.512 241.08L467.523 241.154L462.652 240.153L461.48 231.83L461.512 241.08Z" fill="#AA6D60"/>
<g opacity="0.1">
<path d="M462.332 228.624C462.234 229.067 462.185 229.534 462.185 230.002C462.201 233.593 464.399 235.775 467.99 235.758C468.589 235.758 469.155 235.668 469.704 235.512L469.68 228.591L462.332 228.624Z" fill="#CB9E95"/>
</g>
<g opacity="0.2">
<path d="M445.512 244.422L433.901 244.465L433.961 260.701L445.572 260.658L445.512 244.422Z" fill="black"/>
</g>
<g opacity="0.2">
<path d="M444.631 245.853L435.053 245.888L435.105 259.746L444.682 259.711L444.631 245.853Z" fill="black"/>
</g>
<path d="M444 245.854L435.046 245.887L435.095 259.261L444.05 259.228L444 245.854Z" fill="#855041"/>
<path d="M435.83 258.341L441.849 258.407L436.97 257.414L435.797 249.091L435.83 258.341Z" fill="#AA6D60"/>
<g opacity="0.1">
<path d="M436.65 245.885C436.552 246.328 436.502 246.795 436.502 247.263C436.519 250.846 438.716 253.035 442.308 253.019C442.907 253.019 443.472 252.929 444.022 252.773L443.997 245.852L436.65 245.885Z" fill="#CB9E95"/>
</g>
<g opacity="0.2">
<path d="M458.378 244.373L446.766 244.416L446.827 260.652L458.438 260.609L458.378 244.373Z" fill="black"/>
</g>
<g opacity="0.2">
<path d="M457.496 245.803L447.919 245.839L447.97 259.697L457.548 259.661L457.496 245.803Z" fill="black"/>
</g>
<path d="M456.874 245.805L447.92 245.838L447.969 259.212L456.924 259.179L456.874 245.805Z" fill="#855041"/>
<path d="M448.704 258.292L454.715 258.366L449.844 257.365L448.671 249.042L448.704 258.292Z" fill="#AA6D60"/>
<g opacity="0.1">
<path d="M449.524 245.836C449.426 246.279 449.376 246.746 449.376 247.214C449.393 250.805 451.59 252.986 455.182 252.97C455.781 252.97 456.346 252.88 456.896 252.724L456.871 245.803L449.524 245.836Z" fill="#CB9E95"/>
</g>
<g opacity="0.2">
<path d="M471.252 244.324L459.64 244.367L459.701 260.603L471.312 260.56L471.252 244.324Z" fill="black"/>
</g>
<g opacity="0.2">
<path d="M470.37 245.754L460.793 245.79L460.844 259.648L470.422 259.612L470.37 245.754Z" fill="black"/>
</g>
<path d="M469.748 245.764L460.794 245.797L460.844 259.171L469.798 259.138L469.748 245.764Z" fill="#855041"/>
<path d="M461.578 258.243L467.589 258.316L462.718 257.316L461.545 248.993L461.578 258.243Z" fill="#AA6D60"/>
<g opacity="0.1">
<path d="M462.398 245.787C462.3 246.229 462.25 246.697 462.25 247.164C462.267 250.748 464.464 252.937 468.056 252.921C468.655 252.921 469.22 252.831 469.77 252.675L469.745 245.754L462.398 245.787Z" fill="#CB9E95"/>
</g>
<g opacity="0.2">
<path d="M445.569 261.585L433.958 261.628L434.018 277.864L445.629 277.821L445.569 261.585Z" fill="black"/>
</g>
<g opacity="0.2">
<path d="M444.688 263.015L435.11 263.051L435.162 276.909L444.739 276.873L444.688 263.015Z" fill="black"/>
</g>
<path d="M444.066 263.017L435.111 263.05L435.161 276.424L444.115 276.391L444.066 263.017Z" fill="#855041"/>
<path d="M435.896 275.504L441.906 275.569L437.035 274.577L435.863 266.254L435.896 275.504Z" fill="#AA6D60"/>
<g opacity="0.1">
<path d="M436.716 263.048C436.617 263.49 436.568 263.958 436.568 264.425C436.584 268.017 438.782 270.198 442.374 270.182C442.972 270.182 443.538 270.091 444.087 269.936L444.063 263.015L436.716 263.048Z" fill="#CB9E95"/>
</g>
<g opacity="0.2">
<path d="M458.443 261.536L446.832 261.579L446.892 277.815L458.504 277.772L458.443 261.536Z" fill="black"/>
</g>
<g opacity="0.2">
<path d="M457.562 262.966L447.984 263.002L448.036 276.86L457.614 276.824L457.562 262.966Z" fill="black"/>
</g>
<path d="M456.94 262.967L447.985 263.001L448.035 276.375L456.99 276.341L456.94 262.967Z" fill="#855041"/>
<path d="M448.77 275.454L454.78 275.528L449.909 274.528L448.737 266.205L448.77 275.454Z" fill="#AA6D60"/>
<g opacity="0.1">
<path d="M449.59 262.999C449.491 263.441 449.442 263.909 449.442 264.376C449.458 267.959 451.656 270.149 455.248 270.132C455.846 270.132 456.412 270.042 456.961 269.887L456.937 262.966L449.59 262.999Z" fill="#CB9E95"/>
</g>
<g opacity="0.2">
<path d="M471.317 261.487L459.706 261.53L459.767 277.766L471.378 277.723L471.317 261.487Z" fill="black"/>
</g>
<g opacity="0.2">
<path d="M470.436 262.917L460.858 262.953L460.91 276.811L470.488 276.775L470.436 262.917Z" fill="black"/>
</g>
<path d="M469.814 262.926L460.859 262.96L460.909 276.334L469.864 276.301L469.814 262.926Z" fill="#855041"/>
<path d="M461.644 275.405L467.654 275.479L462.783 274.479L461.603 266.156L461.644 275.405Z" fill="#AA6D60"/>
<g opacity="0.1">
<path d="M462.455 262.949C462.357 263.392 462.308 263.86 462.308 264.327C462.324 267.919 464.522 270.1 468.113 270.083C468.712 270.083 469.278 269.993 469.827 269.837L469.803 262.917L462.455 262.949Z" fill="#CB9E95"/>
</g>
<path d="M473.649 251.161L430.525 251.322L430.629 279.021L473.752 278.861L473.649 251.161Z" fill="#5E5099"/>
<path d="M430.607 273.412L473.739 273.248L473.681 261.695L430.549 261.85L430.607 273.412Z" fill="#FFEAD1"/>
<path d="M473.657 251.158L464.407 262.384L446.474 251.929L427.556 255.036L431.41 242.736L473.657 251.158Z" fill="#504184"/>
<path d="M404.473 238.604C405.072 237.915 406.039 236.734 408.098 238.013C410.156 239.292 415.699 238.366 417.036 233.643C418.38 228.919 425.072 230.092 422.997 226.23C420.922 222.359 417.872 224.942 415.986 225.803C414.1 226.656 413.108 225.475 410.213 225.844C405.556 226.443 402.882 230.199 403.522 233.06C404.162 235.906 402.423 238.727 399.102 241.785L399.799 242.999C399.807 243.007 403.768 239.424 404.473 238.604Z" fill="#979B00"/>
<path d="M400.316 241.908C400.324 241.892 401.226 240.219 404.645 235.799C408.073 231.363 415.338 228.764 415.412 228.739L415.469 228.895C415.396 228.919 408.18 231.511 404.777 235.906C401.365 240.309 400.472 241.974 400.463 241.99L400.316 241.908Z" fill="#B0B000"/>
<path d="M413.813 230.158C413.526 229.969 413.329 229.739 413.239 229.469C412.903 228.509 413.961 227.435 414.01 227.394L414.125 227.509C414.116 227.517 413.1 228.55 413.395 229.411C413.608 230.026 414.428 230.412 415.83 230.576L415.814 230.74C414.928 230.641 414.256 230.445 413.813 230.158Z" fill="#B0B000"/>
<path d="M412.066 231.002C411.779 230.814 411.583 230.584 411.492 230.313C411.156 229.354 412.214 228.28 412.263 228.239L412.378 228.354C412.37 228.362 411.353 229.395 411.648 230.256C411.861 230.871 412.681 231.265 414.084 231.42L414.067 231.584C413.173 231.486 412.509 231.289 412.066 231.002Z" fill="#B0B000"/>
<path d="M410.18 231.847C409.885 231.658 409.697 231.429 409.598 231.158C409.262 230.199 410.32 229.124 410.369 229.083L410.484 229.198C410.476 229.206 409.459 230.24 409.754 231.101C409.967 231.716 410.787 232.101 412.189 232.265L412.173 232.429C411.287 232.331 410.623 232.134 410.18 231.847Z" fill="#B0B000"/>
<path d="M408.524 232.97C408.229 232.782 408.04 232.552 407.942 232.281C407.606 231.322 408.663 230.248 408.713 230.207L408.827 230.322C408.819 230.33 407.802 231.363 408.098 232.224C408.311 232.839 409.131 233.224 410.533 233.388L410.517 233.552C409.631 233.462 408.967 233.265 408.524 232.97Z" fill="#B0B000"/>
<path d="M406.63 234.069C406.499 233.987 406.392 233.88 406.31 233.757C405.72 232.929 406.441 231.601 406.466 231.543L406.613 231.625C406.605 231.642 405.916 232.913 406.441 233.659C406.818 234.184 407.712 234.34 409.106 234.102L409.131 234.266C407.975 234.471 407.138 234.405 406.63 234.069Z" fill="#B0B000"/>
<path d="M405.351 235.43C405.219 235.34 405.113 235.242 405.023 235.119C404.44 234.29 405.162 232.962 405.187 232.913L405.334 232.995C405.326 233.011 404.629 234.282 405.154 235.028C405.523 235.553 406.425 235.709 407.819 235.479L407.843 235.643C406.687 235.824 405.851 235.758 405.351 235.43Z" fill="#B0B000"/>
<path d="M404.686 238.817C403.538 238.587 401.603 238.259 401.718 235.143C401.833 232.027 397.274 226.435 391.148 227.944C385.023 229.452 385.064 225.656 381.152 227.566C378.323 228.944 378.225 233.602 380.382 235.16C382.538 236.718 381.8 241.064 386.794 240.514C392.796 239.85 392.944 249.026 399.11 243.392C401.874 240.867 406.13 241.006 411.665 242.777L412.575 241.228C412.567 241.219 406.039 239.079 404.686 238.817Z" fill="#B0B000"/>
<path d="M410.681 241.187C410.656 241.187 408.221 241.121 401.169 239.743C394.1 238.366 386.917 231.527 386.843 231.461L386.991 231.306C387.065 231.371 394.199 238.169 401.21 239.53C408.237 240.9 410.664 240.965 410.689 240.965L410.681 241.187Z" fill="#979B00"/>
<path d="M389.402 232.47C389.352 232.913 389.197 233.265 388.942 233.528C388.032 234.463 386.187 233.872 386.113 233.848L386.179 233.643C386.195 233.651 387.975 234.217 388.787 233.38C389.369 232.782 389.344 231.617 388.721 229.903L388.926 229.83C389.32 230.912 389.475 231.798 389.402 232.47Z" fill="#979B00"/>
<path d="M391.378 233.995C391.329 234.438 391.173 234.791 390.919 235.053C390.008 235.988 388.163 235.397 388.09 235.373L388.155 235.168C388.172 235.176 389.951 235.742 390.763 234.905C391.345 234.307 391.32 233.142 390.697 231.429L390.902 231.355C391.296 232.437 391.46 233.323 391.378 233.995Z" fill="#979B00"/>
<path d="M393.444 235.668C393.395 236.111 393.239 236.463 392.985 236.734C392.075 237.669 390.23 237.078 390.156 237.054L390.222 236.849C390.238 236.857 392.017 237.423 392.829 236.586C393.411 235.988 393.387 234.823 392.764 233.11L392.969 233.036C393.362 234.118 393.518 234.996 393.444 235.668Z" fill="#979B00"/>
<path d="M395.691 236.923C395.642 237.365 395.486 237.718 395.232 237.989C394.322 238.923 392.477 238.333 392.403 238.308L392.468 238.103C392.485 238.112 394.264 238.677 395.076 237.841C395.658 237.242 395.634 236.078 395.01 234.364L395.215 234.29C395.609 235.365 395.765 236.25 395.691 236.923Z" fill="#979B00"/>
<path d="M398.044 238.456C398.02 238.653 397.962 238.841 397.88 239.005C397.265 240.162 395.33 240.104 395.248 240.096L395.256 239.883C395.273 239.883 397.142 239.94 397.692 238.907C398.077 238.177 397.733 237.054 396.659 235.586L396.831 235.455C397.725 236.685 398.126 237.685 398.044 238.456Z" fill="#979B00"/>
<path d="M400.34 239.153C400.316 239.358 400.258 239.538 400.168 239.711C399.553 240.867 397.618 240.801 397.536 240.793L397.544 240.58C397.561 240.58 399.43 240.645 399.98 239.612C400.373 238.882 400.029 237.759 398.955 236.291L399.127 236.16C400.021 237.382 400.431 238.382 400.34 239.153Z" fill="#979B00"/>
<path d="M371.608 247.246C371.608 247.246 364.99 282.506 405.949 281.178C443.71 279.956 438.569 247.246 438.569 247.246H371.608Z" fill="#00A1DF"/>
<path d="M438.807 247.246C438.807 249.952 423.678 252.15 405.014 252.15C386.351 252.15 371.222 249.952 371.222 247.246C371.222 244.54 386.351 242.343 405.014 242.343C423.669 242.343 438.807 244.54 438.807 247.246Z" fill="#008DC3"/>
<path d="M435.691 247.369C435.691 249.19 422.111 250.666 405.351 250.666C388.598 250.666 375.011 249.19 375.011 247.369C375.011 245.549 388.59 244.073 405.351 244.073C422.103 244.081 435.691 245.549 435.691 247.369Z" fill="#B0B000"/>
<path d="M418.831 240.924C418.831 240.924 419.135 236.718 422.357 236.718C425.572 236.718 426.187 237.939 428.942 237.48C431.697 237.021 432.616 234.692 434.305 235.471C435.994 236.25 439.208 242.613 435.682 245.18C432.156 247.747 425.35 248.353 423.678 247.361C422.005 246.377 416.076 246.205 418.831 240.924Z" fill="#855041"/>
<path d="M379.594 242.146C379.594 242.146 379.898 237.939 383.12 237.939C386.335 237.939 386.95 239.161 389.705 238.702C392.46 238.243 393.379 235.914 395.068 236.693C396.757 237.472 399.971 243.835 396.445 246.402C392.919 248.968 386.113 249.575 384.441 248.583C382.768 247.599 376.839 247.427 379.594 242.146Z" fill="#855041"/>
<path d="M405.351 247.369C405.351 247.369 406.007 242.285 407.958 242.343C409.902 242.392 411.632 247.656 413.165 247.246C414.699 246.836 418.372 240.096 420.676 241.014C422.972 241.933 421.636 243.876 423.612 244.745C425.58 245.615 429.565 241.679 432.476 242.343C435.387 243.007 436.871 246.353 435.691 247.369C432.32 250.28 403.358 253.421 405.351 247.369Z" fill="#979B00"/>
<path d="M422.71 245.779C425.014 243.901 426.097 241.219 426.449 239.415C426.154 236.914 422.94 238.768 421.439 239.178C418.544 239.965 419.332 234.487 417.068 233.667C414.805 232.847 409.131 232.601 407.983 234.922C406.843 237.242 409.131 242.581 406.195 241.4C403.26 240.219 400.48 238.686 396.896 237.521C393.313 236.365 389.828 233.06 389.926 235.389C390.008 237.3 393.379 241.761 391.968 244.491C402.267 248.28 409.049 248.575 413.247 249.182C418.905 250.002 420.562 247.517 422.71 245.779Z" fill="#979B00"/>
<path d="M378.389 243.163C378.389 243.163 376.413 238.694 379.307 237.644C382.202 236.603 385.523 234.274 387.548 236.267C389.574 238.259 390.164 243.852 392.239 244.081C394.313 244.311 394.174 239.473 397.388 239.784C400.603 240.096 401.677 243.163 407.04 245.155C412.403 247.148 411.829 243.171 414.723 242.556C417.618 241.941 424.588 247.591 423.587 249.731C422.595 251.879 404.112 250.977 399.602 250.674C395.084 250.362 378.979 246.812 378.389 243.163Z" fill="#B0B000"/>
<path d="M375.019 247.369C375.019 247.369 369.672 233.848 373.19 235.069C376.716 236.291 375.15 241.219 379.012 241.654C382.874 242.097 381.546 232.462 384.031 233.684C386.515 234.905 385.449 245.172 389.738 246.016C394.026 246.861 402.604 245.779 403.219 249.305C403.834 252.847 376.478 249.87 375.019 247.369Z" fill="#979B00"/>
<path d="M380.66 249.346C380.66 249.346 380.078 244.942 382.374 245.967C384.67 246.984 385.195 249.69 387.54 249.255C389.885 248.821 397.864 247.878 399.602 249.255C401.349 250.633 408.188 251.002 408.188 251.002C408.188 251.002 397.331 252.322 380.66 249.346Z" fill="#855041"/>
<g opacity="0.53">
<path d="M405.949 281.178C436.109 280.202 438.897 259.153 438.798 250.715C432.107 259.866 416.06 271.559 377.758 271.822C382.71 277.431 391.271 281.654 405.949 281.178Z" fill="black"/>
</g>
<path d="M410.976 247.132C411.984 246.205 413.575 244.417 416.445 246.681C419.315 248.944 425.424 252.142 428.237 245.295C431.049 238.456 440.873 241.351 438.421 235.209C435.969 229.067 430.967 232.421 427.999 233.38C425.031 234.348 422.964 229.977 419.356 232.47C415.748 234.963 414.305 236.537 412.271 240.465C410.238 244.393 410.525 246.041 405.023 250.059L405.933 251.191C405.925 251.199 409.779 248.23 410.976 247.132Z" fill="#B0B000"/>
<path d="M406.736 250.141C406.753 250.125 408.319 248.247 413.772 243.556C419.241 238.85 429.065 237.447 429.163 237.431L429.196 237.644C429.098 237.661 419.332 239.055 413.911 243.72C408.483 248.394 406.917 250.264 406.9 250.28L406.736 250.141Z" fill="#979B00"/>
<path d="M426.785 238.809C426.466 238.497 426.285 238.153 426.236 237.792C426.064 236.496 427.671 235.414 427.737 235.373L427.851 235.553C427.835 235.561 426.285 236.603 426.441 237.767C426.548 238.595 427.482 239.301 429.213 239.866L429.147 240.071C428.065 239.711 427.269 239.292 426.785 238.809Z" fill="#979B00"/>
<path d="M424.358 239.424C424.038 239.112 423.858 238.768 423.809 238.407C423.637 237.111 425.244 236.029 425.309 235.988L425.424 236.168C425.408 236.176 423.858 237.218 424.014 238.382C424.129 239.21 425.055 239.916 426.785 240.481L426.72 240.686C425.637 240.326 424.842 239.907 424.358 239.424Z" fill="#979B00"/>
<path d="M421.767 240.006C421.447 239.694 421.267 239.35 421.218 238.989C421.045 237.693 422.653 236.611 422.726 236.57L422.841 236.75C422.825 236.759 421.275 237.8 421.431 238.964C421.546 239.793 422.472 240.498 424.202 241.064L424.137 241.269C423.038 240.908 422.251 240.481 421.767 240.006Z" fill="#979B00"/>
<path d="M419.389 240.998C419.069 240.686 418.889 240.342 418.84 239.981C418.667 238.686 420.275 237.603 420.348 237.562L420.463 237.743C420.447 237.751 418.897 238.792 419.053 239.957C419.168 240.785 420.094 241.49 421.824 242.056L421.759 242.261C420.668 241.9 419.873 241.474 419.389 240.998Z" fill="#979B00"/>
<path d="M416.724 241.892C416.585 241.752 416.47 241.597 416.396 241.416C415.871 240.219 417.118 238.735 417.167 238.669L417.331 238.809C417.314 238.825 416.117 240.252 416.593 241.326C416.929 242.089 418.02 242.507 419.84 242.572L419.832 242.786C418.315 242.745 417.273 242.441 416.724 241.892Z" fill="#979B00"/>
<path d="M414.756 243.269C414.608 243.13 414.502 242.966 414.428 242.794C413.903 241.597 415.158 240.112 415.207 240.055L415.371 240.194C415.355 240.211 414.157 241.638 414.625 242.712C414.961 243.474 416.052 243.901 417.872 243.966L417.864 244.18C416.339 244.122 415.305 243.819 414.756 243.269Z" fill="#979B00"/>
<path d="M460.906 263.999L450.656 267.927L451.107 270.682L464.637 266.836L460.906 263.999Z" fill="#979B00"/>
<path d="M446.351 268.484L457.863 262.556L460.11 257.275L461.84 257.931L459.167 262.474L463.899 260.243L464.309 261.637L459.397 263.54L465.407 264.335L464.505 265.147L458.077 264.45L447.433 269.698L446.351 268.484Z" fill="#777300"/>
<path d="M446.957 270.961L459.79 269.206L463.669 264.975L465.071 266.172L461.053 269.559L466.252 269.034L466.178 270.485L460.914 270.641L466.309 273.396L465.194 273.855L459.356 271.059L447.581 272.47L446.957 270.961Z" fill="#898900"/>
<path d="M451.746 271.928C451.746 271.928 451.41 265.86 448.581 264.13C443.341 260.924 437.126 264.278 426.589 267.189C416.937 269.862 394.092 277.881 400.98 279.915C419.373 285.36 453.583 282.81 451.746 271.928Z" fill="#FFA400"/>
<path d="M446.621 277.463C446.621 277.463 448.622 273.29 444.145 267.837C444.137 267.837 449.918 272.47 446.621 277.463Z" fill="#FFAE36"/>
<path d="M430.311 280.202C430.311 280.202 432.312 276.02 427.827 270.575C427.827 270.575 433.608 275.208 430.311 280.202Z" fill="#FFAE36"/>
<path d="M436.56 275.29C436.56 275.29 437.946 271.707 433.887 267.5C433.895 267.5 438.962 270.953 436.56 275.29Z" fill="#FFAE36"/>
<path d="M442.07 268.87C442.07 268.87 442.554 266.672 440.217 264.671C440.217 264.671 442.029 267.139 442.07 268.87Z" fill="#FFAE36"/>
<path d="M407.778 279.317C407.778 279.317 408.139 277.636 406.359 276.11C406.359 276.119 407.745 278.005 407.778 279.317Z" fill="#FFAE36"/>
<path d="M412.722 278.374C412.722 278.374 413.378 275.61 410.976 273.536C410.976 273.536 414.223 274.782 412.722 278.374Z" fill="#FFAE36"/>
<path d="M421.513 278.562C421.513 278.562 422.915 275.635 419.774 271.83C419.783 271.838 423.817 275.077 421.513 278.562Z" fill="#FFAE36"/>
<path d="M467.597 262.564C469.032 264.737 466.35 269.46 468.359 272.953C470.368 276.438 471.467 272.371 471.205 271.313C470.942 270.256 473.894 272.691 473.944 271.289C473.993 269.878 473.361 269.386 473.935 268.886C474.509 268.386 475.961 270.305 476.19 268.624C476.428 266.943 473.427 267.049 474.362 265.434C474.731 264.786 478.888 267.927 482.332 266.123C485.768 264.319 482.529 263.769 481.143 264.056C479.757 264.335 482.578 262.662 481.217 261.49C479.856 260.317 478.536 263.187 478.232 262.285C477.601 260.342 475.534 262.974 475.1 261.334C474.673 259.686 479.118 261.334 479.29 258.948C479.462 256.553 471.754 260.301 474.772 257.177C476.1 255.799 479.257 254.036 478.298 253.134C476.846 251.756 475.288 254.175 474.805 255.143C474.329 256.102 471.943 256.447 471.918 254.913C471.894 253.38 470.737 255.25 469.794 257.505C468.86 259.768 467.539 260.178 466.268 260.047C464.989 259.915 461.865 259.571 461.865 259.571L461.594 261.186C461.586 261.186 466.752 261.277 467.597 262.564Z" fill="#979B00"/>
<path d="M464.358 259.801C466.826 260.629 467.621 266.008 471.352 267.525C475.083 269.042 473.443 265.155 472.582 264.483C471.73 263.81 475.551 263.917 474.723 262.777C473.894 261.637 473.099 261.629 473.238 260.883C473.378 260.137 475.698 260.76 474.854 259.284C474.001 257.808 471.705 259.743 471.451 257.898C471.344 257.16 476.559 257.078 478.158 253.536C479.757 250.002 476.863 251.568 475.944 252.642C475.026 253.716 476.223 250.658 474.427 250.576C472.632 250.494 473.361 253.577 472.566 253.044C470.869 251.904 470.86 255.25 469.516 254.216C468.163 253.183 472.681 251.74 471.344 249.764C470.008 247.771 466.236 255.471 466.687 251.15C466.883 249.239 468.294 245.91 466.974 245.787C464.981 245.598 465.243 248.46 465.457 249.518C465.67 250.576 463.997 252.306 463.038 251.117C462.07 249.92 462.308 252.109 462.964 254.471C463.62 256.832 462.841 257.964 461.75 258.644C460.668 259.325 458.06 264.458 458.06 264.458L459.421 264.606C459.43 264.598 462.898 259.309 464.358 259.801Z" fill="#979B00"/>
<path d="M463.062 261.932C465.112 261.654 467.564 265.196 470.746 264.958C473.927 264.72 471.402 262.539 470.557 262.367C469.712 262.195 472.468 260.924 471.484 260.399C470.491 259.882 469.926 260.161 469.762 259.579C469.598 258.997 471.475 258.62 470.352 257.873C469.229 257.127 468.277 259.308 467.449 258.087C467.121 257.603 470.787 255.709 470.68 252.634C470.573 249.559 469.073 251.682 468.794 252.773C468.523 253.864 468.294 251.272 466.99 251.838C465.686 252.404 467.285 254.339 466.531 254.241C464.932 254.036 466.096 256.406 464.776 256.151C463.456 255.897 466.154 253.281 464.514 252.338C462.865 251.395 462.898 258.185 461.693 254.954C461.16 253.527 460.996 250.674 460.02 251.043C458.536 251.609 459.733 253.552 460.25 254.224C460.774 254.897 460.2 256.717 459.093 256.209C457.986 255.692 458.929 257.168 460.217 258.611C461.504 260.055 461.348 261.137 460.824 262.006C460.291 262.875 458.962 264.991 458.962 264.991L460.028 265.737C460.012 265.754 461.849 262.105 463.062 261.932Z" fill="#898900"/>
<path d="M466.293 270.985C466.678 273.56 462.25 276.717 462.603 280.727C462.956 284.745 465.67 281.506 465.875 280.448C466.08 279.382 467.736 282.834 468.368 281.58C469.007 280.325 468.646 279.612 469.376 279.39C470.106 279.185 470.606 281.53 471.533 280.104C472.459 278.677 469.688 277.512 471.213 276.438C471.82 276.012 474.272 280.612 478.15 280.423C482.029 280.235 479.323 278.373 477.945 278.045C476.568 277.717 479.839 277.389 479.093 275.749C478.347 274.118 475.936 276.159 476.051 275.216C476.297 273.191 473.312 274.708 473.616 273.035C473.919 271.362 477.265 274.724 478.421 272.642C479.585 270.542 471.016 270.698 475.075 269.132C476.863 268.443 480.463 268.173 479.979 266.943C479.241 265.081 476.805 266.623 475.969 267.295C475.133 267.968 472.82 267.271 473.452 265.868C474.083 264.466 472.238 265.672 470.434 267.328C468.63 268.984 467.269 268.804 466.162 268.148C465.055 267.492 462.365 265.86 462.365 265.86L461.439 267.213C461.43 267.205 466.063 269.46 466.293 270.985Z" fill="#898900"/>
<path d="M464.522 267.115C466.408 268.911 464.866 274.118 467.613 277.07C470.36 280.013 470.508 275.799 470.016 274.831C469.516 273.863 472.943 275.569 472.673 274.183C472.402 272.806 471.68 272.461 472.123 271.846C472.566 271.223 474.411 272.773 474.263 271.075C474.116 269.378 471.213 270.165 471.754 268.386C471.976 267.672 476.732 269.788 479.675 267.254C482.619 264.72 479.339 264.917 478.044 265.508C476.756 266.098 479.126 263.827 477.543 262.99C475.953 262.162 475.313 265.253 474.813 264.442C473.755 262.695 472.336 265.729 471.549 264.22C470.754 262.711 475.461 263.31 475.092 260.948C474.714 258.579 468.048 263.974 470.286 260.243C471.27 258.595 473.944 256.168 472.804 255.504C471.074 254.495 470.106 257.201 469.852 258.251C469.606 259.3 467.359 260.169 466.99 258.677C466.621 257.185 465.916 259.267 465.514 261.686C465.112 264.097 463.923 264.794 462.652 264.958C461.381 265.122 461.849 265.057 461.849 265.057L461.406 266.688C461.414 266.688 463.407 266.049 464.522 267.115Z" fill="#B0B000"/>
<path d="M462.447 268.501C464.415 269.107 465.153 273.355 468.138 274.487C471.131 275.618 469.745 272.568 469.056 272.051C468.368 271.535 471.393 271.543 470.721 270.657C470.04 269.772 469.409 269.78 469.507 269.189C469.606 268.591 471.459 269.042 470.754 267.894C470.049 266.746 468.269 268.32 468.031 266.869C467.941 266.287 472.058 266.114 473.255 263.285C474.452 260.448 472.189 261.744 471.484 262.621C470.778 263.49 471.664 261.047 470.237 261.014C468.819 260.981 469.45 263.408 468.81 262.998C467.441 262.129 467.507 264.778 466.416 263.991C465.325 263.195 468.876 261.965 467.785 260.424C466.687 258.866 463.849 265.048 464.12 261.613C464.243 260.096 465.293 257.431 464.243 257.365C462.669 257.25 462.923 259.522 463.12 260.35C463.316 261.178 462.021 262.588 461.234 261.662C460.446 260.735 460.676 262.465 461.242 264.319C461.799 266.172 461.201 267.082 460.356 267.648C459.512 268.214 458.347 267.148 458.347 267.148L456.83 269.066C456.847 269.05 461.283 268.14 462.447 268.501Z" fill="#979B00"/>
<g opacity="0.2">
<path d="M400.988 279.915C399.865 279.579 399.545 279.087 399.816 278.497C430.607 282.064 448.294 271.182 451.328 269.116C451.672 270.657 451.746 271.928 451.746 271.928C453.583 282.81 419.373 285.36 400.988 279.915Z" fill="black"/>
</g>
<path d="M350.591 286.073C350.591 286.073 343.309 282.597 347.819 275.93C351.198 270.936 365.326 259.792 381.021 258.866C384.408 258.669 387.54 257.39 390.254 259.432C394.387 262.539 397.044 268.935 395.748 275.676C393.633 286.656 383.088 291.756 370.968 288.435C362.94 286.237 358.119 288.829 350.591 286.073Z" fill="#979B00"/>
<path d="M349.993 284.548C348.18 283.589 346.803 281.932 346.45 279.973C346.212 278.644 346.368 277.012 347.5 275.184C350.771 269.87 362.44 257.136 379.037 256.217C382.62 256.02 387.434 256.791 390.287 258.915C393.362 261.203 396.175 265.245 395.133 272.24C393.051 286.237 381.767 288.066 369.664 286.516C364.72 285.877 356.971 288.255 349.993 284.548Z" fill="#DEDA74"/>
<path d="M351.14 283.835C349.427 282.925 348.131 281.358 347.795 279.505C347.565 278.251 347.721 276.709 348.787 274.979C351.887 269.96 363.375 258.013 379.053 257.136C382.44 256.947 386.532 257.587 389.221 259.596C392.132 261.76 394.789 265.573 393.805 272.191C391.837 285.417 381.169 287.148 369.73 285.68C365.064 285.089 357.741 287.336 351.14 283.835Z" fill="#F0EE90"/>
<path d="M367.122 276.422C365.859 275.897 363.465 274.643 364.679 271.535C365.892 268.427 372.592 262.252 381.333 263.86C390.074 265.467 387.565 273.437 387.565 273.437C387.565 273.437 385.261 283.933 367.122 276.422Z" fill="#DEDA74"/>
<path d="M366.466 275.143C366.466 275.143 363.342 274.233 364.556 271.125C365.769 268.017 372.026 260.342 380.775 261.941C389.516 263.548 387.007 271.518 387.007 271.518C387.007 271.518 385.023 281.555 366.466 275.143Z" fill="#855041"/>
<g opacity="0.26">
<path d="M371.042 267.082C370.64 266.205 373.108 264.36 376.323 263.745C378.586 263.31 383.891 263.614 383.727 265.877C383.489 269.181 379.43 265.024 376.815 266.074C372.551 267.779 371.312 267.673 371.042 267.082Z" fill="#FFEF93"/>
</g>
<path d="M420.799 214.379C425.57 208.153 424.39 199.238 418.163 194.468C411.937 189.697 403.022 190.877 398.252 197.104C393.481 203.33 394.661 212.245 400.888 217.015C407.114 221.786 416.029 220.606 420.799 214.379Z" fill="#FF3D51"/>
<path d="M409.172 205.156C409.106 203.877 409.024 202.343 409.032 201.203H408.991C408.68 202.278 408.303 203.417 407.835 204.68L406.22 209.125H405.326L403.842 204.762C403.407 203.475 403.038 202.294 402.784 201.203H402.759C402.735 202.343 402.669 203.877 402.587 205.254L402.341 209.182H401.218L401.857 200.023H403.366L404.924 204.451C405.301 205.574 405.613 206.583 405.851 207.534H405.892C406.121 206.607 406.449 205.607 406.859 204.451L408.491 200.023H410L410.574 209.182H409.418L409.172 205.156Z" fill="white"/>
<path d="M417.995 202.606C417.97 203.081 417.938 203.614 417.938 204.41V208.231C417.938 209.74 417.642 210.666 417.003 211.232C416.363 211.831 415.445 212.019 414.608 212.019C413.821 212.019 412.952 211.831 412.419 211.478L412.714 210.568C413.149 210.838 413.829 211.084 414.641 211.084C415.863 211.084 416.757 210.445 416.757 208.788V208.059H416.732C416.363 208.674 415.658 209.157 414.641 209.157C413.009 209.157 411.845 207.772 411.845 205.951C411.845 203.721 413.296 202.458 414.805 202.458C415.945 202.458 416.568 203.057 416.855 203.598H416.88L416.937 202.606H417.995ZM416.757 205.197C416.757 204.992 416.74 204.82 416.691 204.656C416.478 203.967 415.888 203.393 415.018 203.393C413.879 203.393 413.059 204.36 413.059 205.877C413.059 207.165 413.715 208.239 415.002 208.239C415.74 208.239 416.404 207.78 416.658 207.017C416.724 206.812 416.757 206.583 416.757 206.378V205.197Z" fill="white"/>
<path d="M271.486 86.182C271.486 86.182 233.405 68.8554 211.503 104.197C189.625 139.548 226.55 189.764 258.817 194.43C261.908 194.889 238.653 154.201 241.613 142.008C241.925 140.737 242.712 139.498 242.933 138.236C243.114 137.325 242.95 136.292 243.032 135.382C243.212 132.865 243.556 130.364 244.007 127.912C244.868 123.115 246.213 118.433 247.952 113.89C250.682 106.887 254.331 100.065 259.276 94.3574C261.162 92.1598 263.236 90.118 265.639 88.5272C266.672 87.8056 270.075 85.5588 271.486 86.182Z" fill="#552B19"/>
<path d="M235.619 151.134C235.619 151.134 281.432 158.818 278.685 163.401C275.93 167.977 283.843 176.087 283.925 185.049C284.04 194.766 290.387 201.581 297.881 211.437C303.129 218.333 293.011 230.535 284.655 232.298C248.673 239.891 226.673 212.585 226.673 212.585C240.432 194.053 235.619 151.134 235.619 151.134Z" fill="#A56745"/>
<path d="M283.925 185.049C283.843 176.087 275.93 167.977 278.685 163.401C281.432 158.826 235.619 151.134 235.619 151.134C235.619 151.134 242.244 160.31 243.548 174.471C260.301 187.337 274.602 191.683 287.828 197.669C286.205 193.725 283.966 188.559 283.925 185.049Z" fill="#8E5436"/>
<path d="M233.864 108.404C233.864 108.404 213.905 55.7026 177.489 69.208C141.065 82.7462 136.276 21.8858 71.3072 40.508C48.4702 47.0516 30.0202 83.3858 44.7474 109.691C56.2192 130.159 115.358 150.232 181.409 125.083C247.476 99.9334 228.641 125.878 228.641 125.878L233.864 108.404Z" fill="#552B19"/>
<path d="M272.002 90.6756C287.164 103.074 322.276 157.973 296.487 184.221C285.499 195.447 251.707 182.097 232.97 157.137C225.295 146.895 223.401 123.139 232.601 101.942C236.742 92.3402 254.544 76.1124 272.002 90.6756Z" fill="#A56745"/>
<path d="M273.716 103.386C273.716 103.386 262.22 152.766 225.967 152.889C225.967 152.889 211.355 110.118 244.032 86.6002C244.032 86.6002 292.494 66.2888 306.672 132.537C306.672 132.537 282.334 137.014 273.716 103.386Z" fill="#552B19"/>
<path d="M247.533 151.733C247.533 151.733 237.71 139.646 230.871 141.557C224.016 143.443 230.1 162.335 243.597 162.065C257.062 161.786 250.641 155.054 247.533 151.733Z" fill="#A56745"/>
<path d="M242.318 193.635L241.752 191.076L242.015 192.364L240.703 192.331C240.695 191.642 239.899 183.122 239.194 175.611C238.743 170.814 238.284 165.902 237.948 162.204C237.882 161.483 238.407 160.851 239.128 160.786H239.137C239.858 160.72 240.498 161.253 240.563 161.975C240.9 165.665 241.359 170.576 241.81 175.365C243.483 193.356 243.483 193.356 242.318 193.635Z" fill="#F2D23A"/>
<path d="M233.946 193.044C233.667 193.069 233.372 193.012 233.118 192.848C232.503 192.462 232.322 191.642 232.716 191.035C234.774 187.772 235.889 183.91 236.209 178.858C236.34 176.858 236.34 174.857 236.349 172.864C236.357 170.568 236.365 168.182 236.562 165.812C236.66 164.689 236.808 163.36 237.341 162.048C237.62 161.384 238.382 161.056 239.055 161.343C239.727 161.614 240.047 162.385 239.776 163.049C239.383 164.016 239.26 165.099 239.186 166.034C238.997 168.305 238.989 170.626 238.981 172.881C238.973 174.922 238.964 176.972 238.833 179.031C238.481 184.533 237.242 188.797 234.93 192.446C234.709 192.798 234.331 193.003 233.946 193.044Z" fill="#F2D23A"/>
<path d="M250.813 187.542L249.042 185.607L249.911 186.583L248.722 187.116C248.665 187.001 248.476 186.665 248.189 186.156C246.041 182.311 239.514 170.634 237.816 163.451C237.652 162.737 238.087 162.032 238.792 161.868C239.448 161.671 240.203 162.139 240.367 162.844C241.433 167.378 244.836 174.791 250.469 184.877C251.248 186.255 251.576 186.821 250.813 187.542Z" fill="#F2D23A"/>
<path d="M243.31 161.704C243.056 159.055 240.703 157.12 238.062 157.366C235.414 157.62 233.47 159.974 233.725 162.622C233.979 165.271 236.332 167.206 238.973 166.952C241.629 166.698 243.565 164.353 243.31 161.704Z" fill="#F2D23A"/>
<path d="M261.76 147.379C261.383 147.174 262.187 147.567 262.334 147.625C262.966 147.854 263.589 148.067 264.27 148.141C266.861 148.436 268.083 146.755 268.747 144.566C269.165 143.197 271.322 144.017 270.903 145.378C269.427 150.224 264.803 151.561 260.391 149.166C259.087 148.469 260.481 146.682 261.76 147.379Z" fill="#1E100C"/>
<path d="M286.041 139.31C286.639 139.9 287.41 140.425 288.181 140.778C290.698 141.934 292.158 140.4 293.125 138.162C293.699 136.842 295.856 137.653 295.282 138.974C294.134 141.622 292.125 143.967 288.845 143.344C287.082 143.008 285.467 141.926 284.228 140.712C283.195 139.687 285.007 138.293 286.041 139.31Z" fill="#1E100C"/>
<path d="M290.444 127.633C286.68 126.78 283.622 128.617 282.187 132.168C281.514 133.832 279.021 132.602 279.686 130.954C281.588 126.264 285.95 123.763 290.985 124.911C292.732 125.304 292.191 128.035 290.444 127.633Z" fill="#552B19"/>
<path d="M268.009 136.505C264.614 134.66 261.17 135.603 258.825 138.629C257.726 140.048 255.66 138.186 256.75 136.784C259.85 132.783 264.729 131.561 269.263 134.029C270.838 134.882 269.575 137.358 268.009 136.505Z" fill="#552B19"/>
<path d="M277.439 137.088C276.914 139.58 276.799 142.426 277.726 144.804C279.079 148.272 283.236 149.502 285.696 152.249C289.075 156.021 286.27 158.686 281.49 160.49C280.333 160.925 279.636 159.482 280.793 159.047C291.51 154.996 278.226 150.437 276.16 145.993C274.864 143.221 274.897 139.876 275.528 136.899C275.741 135.89 277.652 136.071 277.439 137.088Z" fill="#8E5436"/>
<path d="M273.642 167.255C273.642 167.255 272.904 176.784 280.817 176.849C288.73 176.915 289.624 168.371 289.624 168.371L273.642 167.255Z" fill="#FAFFFF"/>
<path d="M257.562 164.738C258.751 167.469 261.924 168.723 264.655 167.542C267.386 166.353 268.64 163.18 267.459 160.449C266.27 157.719 263.097 156.464 260.366 157.645C257.636 158.834 256.381 162.007 257.562 164.738Z" fill="#8E5436"/>
<path d="M301.53 147.715C299.029 146.034 295.635 146.69 293.954 149.191C292.273 151.692 292.929 155.087 295.43 156.768C297.931 158.449 301.325 157.793 303.006 155.292C304.696 152.791 304.031 149.396 301.53 147.715Z" fill="#8E5436"/>
<path d="M230.961 214.135C230.961 216.898 228.69 219.145 225.902 219.145C223.106 219.145 220.842 216.898 220.842 214.135C220.842 211.363 223.106 209.125 225.902 209.125C228.69 209.125 230.961 211.363 230.961 214.135Z" fill="#959900"/>
<path d="M225.902 209.125C224.647 209.125 223.499 209.576 222.614 210.33C222.138 211.093 221.859 211.986 221.859 212.946C221.859 215.709 224.131 217.956 226.919 217.956C228.173 217.956 229.321 217.497 230.207 216.751C230.682 215.988 230.953 215.094 230.953 214.135C230.961 211.363 228.69 209.125 225.902 209.125Z" fill="#AEAE01"/>
<path d="M232.085 206.804C232.085 208.518 230.682 209.904 228.952 209.904C227.222 209.904 225.82 208.518 225.82 206.804C225.82 205.09 227.222 203.704 228.952 203.704C230.682 203.704 232.085 205.09 232.085 206.804Z" fill="#959900"/>
<path d="M228.952 203.704C228.173 203.704 227.468 203.983 226.919 204.451C226.623 204.918 226.451 205.476 226.451 206.066C226.451 207.78 227.853 209.166 229.584 209.166C230.363 209.166 231.068 208.887 231.617 208.419C231.904 207.944 232.076 207.394 232.076 206.804C232.085 205.09 230.682 203.704 228.952 203.704Z" fill="#AEAE01"/>
<path d="M303.712 231.568C303.712 234.93 300.956 237.661 297.553 237.661C294.15 237.661 291.403 234.93 291.403 231.568C291.403 228.206 294.159 225.475 297.553 225.475C300.956 225.475 303.712 228.198 303.712 231.568Z" fill="#959900"/>
<path d="M291.403 231.568C291.403 232.732 291.74 233.815 292.314 234.741C293.388 235.652 294.782 236.201 296.307 236.201C299.71 236.201 302.457 233.47 302.457 230.108C302.457 228.944 302.121 227.853 301.547 226.935C300.473 226.025 299.079 225.467 297.553 225.467C294.159 225.475 291.403 228.198 291.403 231.568Z" fill="#AEAE01"/>
<path d="M307.303 222.499C307.303 225.451 304.884 227.853 301.891 227.853C298.906 227.853 296.479 225.459 296.479 222.499C296.479 219.547 298.898 217.144 301.891 217.144C304.884 217.144 307.303 219.547 307.303 222.499Z" fill="#959900"/>
<path d="M296.487 222.499C296.487 223.524 296.783 224.475 297.283 225.287C298.226 226.09 299.456 226.574 300.801 226.574C303.785 226.574 306.204 224.18 306.204 221.22C306.204 220.195 305.909 219.243 305.409 218.423C304.466 217.62 303.236 217.136 301.891 217.136C298.906 217.144 296.487 219.547 296.487 222.499Z" fill="#AEAE01"/>
<path d="M307.467 212.905C307.467 215.586 305.27 217.767 302.555 217.767C299.841 217.767 297.644 215.586 297.644 212.905C297.644 210.223 299.841 208.042 302.555 208.042C305.27 208.042 307.467 210.215 307.467 212.905Z" fill="#959900"/>
<path d="M297.644 212.905C297.644 213.84 297.914 214.701 298.373 215.439C299.226 216.168 300.341 216.603 301.563 216.603C304.277 216.603 306.475 214.43 306.475 211.749C306.475 210.814 306.204 209.953 305.753 209.215C304.892 208.485 303.777 208.042 302.564 208.042C299.849 208.042 297.644 210.215 297.644 212.905Z" fill="#AEAE01"/>
<path d="M304.597 223.278C304.876 222.974 305.286 221.843 305.286 221.843C305.286 221.843 305.917 222.892 306.245 223.138C306.573 223.393 307.828 223.762 307.828 223.762C307.828 223.762 306.672 224.336 306.401 224.631C306.122 224.934 305.712 226.066 305.712 226.066C305.712 226.066 305.081 225.024 304.753 224.77C304.417 224.524 303.17 224.155 303.17 224.155C303.17 224.155 304.327 223.573 304.597 223.278Z" fill="white"/>
<path d="M111.782 232.437C112.799 229.698 118.269 225.836 126.879 228.78C134.062 231.24 137.99 244.032 135.497 253.421C133.004 262.81 127.157 266.27 121.335 265.901C115.522 265.541 102.123 258.521 111.782 232.437Z" fill="#F07500"/>
<path d="M99.466 233.528C101.401 231.347 107.986 227.484 114.989 233.216C120.868 238.021 122.549 250.51 118.088 259.145C113.627 267.779 107.322 267.369 101.565 268.279C93.0372 269.608 84.8126 250.034 99.466 233.528Z" fill="#FBB433"/>
<path d="M123.451 238.973C123.722 236.07 127.994 230.912 137.071 231.519C144.648 232.027 151.766 243.36 151.798 253.077C151.831 262.794 147.083 267.648 141.368 268.804C135.653 269.969 120.893 266.672 123.451 238.973Z" fill="#FBB433"/>
<path d="M109.749 235.242C111.659 234.725 117.637 234.987 117.67 232.937C117.711 230.887 115.727 220.195 119.048 219.268C122.369 218.341 123.574 220.687 122.459 223.081C121.344 225.475 119.646 230.445 123.73 232.216C127.805 233.987 128.223 232.101 128.97 232.913C129.822 233.848 125.952 234.643 127.444 235.742C128.945 236.841 127.362 237.743 126.567 237.972C121.278 239.547 104.968 236.537 109.749 235.242Z" fill="#989B10"/>
<path d="M122.336 239.809C123.271 236.931 128.174 232.88 135.8 236.045C142.163 238.694 146.796 252.183 144.476 262.088C142.155 271.994 136.842 274.602 131.667 274.175C126.493 273.749 113.455 267.295 122.336 239.809Z" fill="#F07500"/>
<path d="M100.573 239.916C102.894 235.512 107.535 234.479 112.496 236.66C118.769 239.407 122.229 251.994 119.917 261.367C117.604 270.739 112.381 273.823 107.19 273.749C100.065 273.634 87.3628 264.999 100.573 239.916Z" fill="#F07500"/>
<path d="M111.438 240.014C112.799 237.119 117.285 232.667 124.911 236.012C131.274 238.809 134.603 253.159 132.274 263.655C129.945 274.151 127.854 275.84 119.745 276.52C107.863 277.513 100.097 264.106 111.438 240.014Z" fill="#FBB433"/>
<path d="M164.566 266.943C160.433 263.802 163.196 257.226 168.33 257.98C176.292 259.145 183.811 261.145 183.385 260.727C182.516 259.874 179.646 256.955 177.456 254.659C175.267 252.363 165.796 252.265 164 252.363C162.204 252.462 156.226 251.765 153.529 250.157C151.774 249.108 147.616 249.428 144.927 249.772C142.606 250.075 140.778 251.945 140.589 254.282C140.54 254.913 140.523 255.651 140.573 256.488C140.868 262.072 139.876 266.254 143.164 270.543C146.452 274.831 147.953 276.028 148.846 279.218C149.74 282.408 150.544 284.999 155.923 284.802C161.31 284.606 164.992 283.925 168.289 284.811C171.577 285.696 176.964 289.485 179.154 287.09C179.482 286.729 179.834 286.369 180.195 286.008C182.36 283.851 182.147 280.284 179.711 278.439L164.566 266.943Z" fill="#5E4C28"/>
<path d="M165.902 267.066C162.065 264.155 164.631 258.046 169.396 258.743C176.792 259.825 183.77 261.678 183.377 261.293C182.573 260.506 179.908 257.792 177.866 255.66C175.833 253.528 166.993 253.888 165.369 253.528C154.267 251.068 155.382 254.421 152.881 252.929C151.257 251.953 150.158 250.797 147.666 251.125C145.509 251.404 142.746 253.364 142.565 255.528C142.516 256.119 142.86 256.48 142.901 257.259C143.18 262.441 142.967 266.426 146.026 270.411C149.084 274.397 150.47 275.504 151.306 278.464C152.143 281.424 152.881 283.835 157.883 283.646C162.885 283.458 166.304 282.834 169.363 283.654C172.421 284.474 177.415 287.992 179.457 285.77C179.76 285.434 180.088 285.098 180.425 284.77C182.434 282.769 182.237 279.456 179.974 277.734L165.902 267.066Z" fill="#4C3C1E"/>
<path d="M144.049 252.97C144.336 252.65 146.829 250.822 152.249 253.569C155.702 255.315 156.899 252.281 160.589 253.503C164.271 254.725 174.644 254.725 176.489 256.66C178.334 258.595 183.368 259.366 184.631 262.359C185.894 265.352 189.576 266.902 188.895 270.477C188.215 274.052 189.379 279.267 186.378 282.26C183.377 285.253 181.433 289.312 178.235 287.377C175.037 285.442 172.421 284.089 171.159 282.351C169.896 280.612 166.895 284.474 163.016 283.318C159.137 282.162 151.29 279.161 149.248 273.462C147.206 267.763 140.179 257.242 144.049 252.97Z" fill="white"/>
<path d="M145.583 254.159C145.821 253.897 147.83 252.421 152.208 254.643C154.996 256.053 155.972 253.601 158.941 254.594C161.917 255.578 170.298 255.578 171.79 257.144C173.282 258.702 177.35 259.333 178.366 261.752C179.383 264.171 182.36 265.418 181.81 268.312C181.261 271.199 182.204 275.413 179.777 277.832C177.35 280.251 175.783 283.531 173.2 281.973C170.617 280.415 168.502 279.317 167.485 277.914C166.468 276.512 164.041 279.628 160.909 278.693C157.776 277.759 151.429 275.34 149.789 270.731C148.141 266.115 142.459 257.619 145.583 254.159Z" fill="#E2D5D0"/>
<path d="M145.476 257.718C145.476 257.718 147.108 265.639 149.732 268.173C152.356 270.707 155.439 275.422 159.605 275.873C163.77 276.324 164.681 277.595 167.485 278.136C170.289 278.677 176.636 277.595 175.726 273.7C174.824 269.805 174.914 265.09 169.838 261.924C164.771 258.751 144.394 248.714 145.476 257.718Z" fill="#A59C8F"/>
<path d="M158.17 256.25C158.17 256.25 165.328 258.833 165.484 261.039C165.64 263.245 165.878 264.425 168.002 265.368C170.125 266.311 170.445 265.68 171.864 267.656C173.282 269.624 174.381 270.649 173.127 272.699C171.864 274.749 173.364 277.578 169.896 276.168C166.427 274.749 166.116 273.568 164.459 274.675C162.803 275.774 161.942 276.488 159.81 275.225C157.686 273.962 155.005 273.65 155.005 273.65C155.005 273.65 157.35 276.389 162.475 276.438C162.475 276.438 165.468 278.037 167.485 278.16C169.502 278.283 173.553 279.185 175.816 275.512C178.079 271.846 173.463 265.5 173.004 264.893C172.553 264.27 170.355 260.35 158.17 256.25Z" fill="#84796A"/>
<path opacity="0.28" d="M148.592 254.897C148.592 254.897 151.077 254.979 153.119 256.627C155.169 258.284 158.752 259.464 158.785 261.67C158.818 263.876 160.868 265.016 163.902 265.45C166.936 265.885 171.897 269.149 171.38 271.436C170.872 273.724 169.289 273.363 167.321 272.576C165.353 271.789 164.394 271.945 163.262 272.732C162.122 273.519 159.449 273.044 157.161 272.06C154.89 271.076 141.507 257.373 148.592 254.897Z" fill="#E2D5D0"/>
<path d="M133.685 280.53C133.947 278.857 132.799 277.275 131.126 277.012L64.698 266.566C63.0252 266.303 61.4426 267.451 61.1802 269.124C60.9178 270.797 62.0658 272.379 63.7386 272.642L130.167 283.089C131.84 283.351 133.422 282.203 133.685 280.53Z" fill="#989B10"/>
<path d="M112.553 274.765C113.308 273.273 110.438 270.944 107.264 270.674C104.091 270.395 104.091 270.395 104.091 270.395C104.091 270.395 109.355 281.129 112.553 274.765Z" fill="#AFAF14"/>
<path d="M104.427 276.086C103.804 274.528 100.163 275.135 97.8506 277.324C95.5382 279.513 95.5382 279.513 95.5382 279.513C95.5382 279.513 107.067 282.703 104.427 276.086Z" fill="#AFAF14"/>
<path d="M97.1454 271.83C97.9654 270.37 95.202 267.919 92.045 267.5C88.888 267.082 88.888 267.082 88.888 267.082C88.888 267.082 93.6604 278.037 97.1454 271.83Z" fill="#7C790D"/>
<path d="M84.337 270.69C85.1324 269.222 82.3444 266.803 79.1792 266.426C76.014 266.049 76.014 266.049 76.014 266.049C76.014 266.049 80.934 276.947 84.337 270.69Z" fill="#AFAF14"/>
<path d="M73.3326 270.133C74.21 268.402 70.8972 265.705 67.2236 265.368C63.55 265.032 63.55 265.032 63.55 265.032C63.55 265.032 69.5934 277.488 73.3326 270.133Z" fill="#AFAF14"/>
<path d="M68.6914 269.764C69.1834 267.804 65.19 265.836 61.3852 266.344C57.5804 266.861 57.5804 266.861 57.5804 266.861C57.5804 266.861 66.6086 278.087 68.6914 269.764Z" fill="#BCB81D"/>
<path d="M68.224 270.354C68.0682 268.689 64.3946 268.247 61.5656 269.706C58.7284 271.166 58.7284 271.166 58.7284 271.166C58.7284 271.166 68.8964 277.447 68.224 270.354Z" fill="#AFAF14"/>
<path d="M72.529 270.379C71.914 268.829 68.265 269.427 65.9526 271.617C63.6402 273.806 63.6402 273.806 63.6402 273.806C63.6402 273.806 75.1694 276.996 72.529 270.379Z" fill="#7C790D"/>
<path d="M78.4002 271.092C79.4662 269.805 77.1948 266.894 74.1608 265.91C71.1268 264.926 71.1268 264.926 71.1268 264.926C71.1268 264.926 73.8574 276.578 78.4002 271.092Z" fill="#BCB81D"/>
<path d="M76.8094 271.715C76.178 270.165 72.5372 270.797 70.2412 273.011C67.9452 275.217 67.9452 275.217 67.9452 275.217C67.9452 275.217 79.4908 278.316 76.8094 271.715Z" fill="#AFAF14"/>
<path d="M84.337 270.69C85.1324 269.222 82.3444 266.803 79.1792 266.426C76.014 266.049 76.014 266.049 76.014 266.049C76.014 266.049 80.934 276.947 84.337 270.69Z" fill="#7C790D"/>
<path d="M80.5568 271.633C80.729 269.969 77.2194 268.812 74.1526 269.682C71.0858 270.551 71.0858 270.551 71.0858 270.551C71.0858 270.551 79.827 278.718 80.5568 271.633Z" fill="#898910"/>
<path d="M83.3202 272.74C82.6888 271.19 79.048 271.822 76.752 274.036C74.456 276.242 74.456 276.242 74.456 276.242C74.456 276.242 86.0016 279.333 83.3202 272.74Z" fill="#BCB81D"/>
<path d="M137.194 275.7C137.694 274.085 136.792 272.355 135.177 271.846L70.9874 251.806C69.372 251.305 67.6418 252.207 67.1334 253.823C66.6332 255.438 67.5352 257.168 69.1506 257.677L133.34 277.718C134.956 278.226 136.686 277.316 137.194 275.7Z" fill="#989B10"/>
<path d="M117.129 266.91C118.088 265.541 115.587 262.826 112.496 262.088C109.396 261.35 109.396 261.35 109.396 261.35C109.396 261.35 113.037 272.74 117.129 266.91Z" fill="#AFAF14"/>
<path d="M108.896 267.033C108.511 265.409 104.821 265.467 102.213 267.296C99.6054 269.124 99.6054 269.124 99.6054 269.124C99.6054 269.124 110.536 273.962 108.896 267.033Z" fill="#AFAF14"/>
<path d="M102.32 261.752C103.345 260.432 100.967 257.603 97.908 256.726C94.8494 255.848 94.8494 255.848 94.8494 255.848C94.8494 255.848 97.9654 267.386 102.32 261.752Z" fill="#7C790D"/>
<path d="M89.8064 258.751C90.815 257.414 88.4042 254.618 85.3292 253.782C82.2542 252.945 82.2542 252.945 82.2542 252.945C82.2542 252.945 85.526 264.442 89.8064 258.751Z" fill="#AFAF14"/>
<path d="M79.007 256.594C80.1304 255.012 77.244 251.855 73.6606 250.986C70.0772 250.116 70.0772 250.116 70.0772 250.116C70.0772 250.116 74.2346 263.318 79.007 256.594Z" fill="#AFAF14"/>
<path d="M74.4724 255.545C75.2432 253.683 71.586 251.141 67.7484 251.1C63.9108 251.051 63.9108 251.051 63.9108 251.051C63.9108 251.051 71.1924 263.482 74.4724 255.545Z" fill="#BCB81D"/>
<path d="M73.9148 256.07C73.9968 254.397 70.438 253.429 67.4204 254.454C64.4028 255.479 64.4028 255.479 64.4028 255.479C64.4028 255.479 73.554 263.179 73.9148 256.07Z" fill="#AFAF14"/>
<path d="M78.1788 256.717C77.7934 255.094 74.1034 255.151 71.4958 256.98C68.8882 258.808 68.8882 258.808 68.8882 258.808C68.8882 258.808 79.8188 263.646 78.1788 256.717Z" fill="#7C790D"/>
<path d="M83.886 258.284C85.1324 257.169 83.3038 253.954 80.4502 252.544C77.5966 251.133 77.5966 251.133 77.5966 251.133C77.5966 251.133 78.5806 263.04 83.886 258.284Z" fill="#BCB81D"/>
<path d="M82.2132 258.669C81.8114 257.045 78.1214 257.136 75.5302 258.989C72.939 260.842 72.939 260.842 72.939 260.842C72.939 260.842 83.9024 265.59 82.2132 258.669Z" fill="#AFAF14"/>
<path d="M89.8064 258.751C90.815 257.414 88.4042 254.618 85.3292 253.782C82.2542 252.945 82.2542 252.945 82.2542 252.945C82.2542 252.945 85.526 264.442 89.8064 258.751Z" fill="#7C790D"/>
<path d="M85.936 259.128C86.346 257.505 83.0496 255.856 79.8926 256.266C76.7356 256.676 76.7356 256.676 76.7356 256.676C76.7356 256.676 84.173 266.033 85.936 259.128Z" fill="#898910"/>
<path d="M88.5026 260.629C88.1008 259.005 84.4108 259.096 81.8196 260.949C79.2284 262.802 79.2284 262.802 79.2284 262.802C79.2284 262.802 90.2 267.55 88.5026 260.629Z" fill="#BCB81D"/>
<path d="M140.761 281.49C140.761 281.49 141.13 280.834 142.59 281.194C144.049 281.563 149.019 282.146 150.7 278.201C152.381 274.257 152.889 281.268 150.7 283.605C148.51 285.942 147.854 286.377 144.779 286.164C141.712 285.942 140.031 282.802 140.761 281.49Z" fill="#CCD8EE"/>
<path opacity="0.3" d="M151.315 277.16C151.356 277.431 151.388 277.693 151.388 277.972C151.388 281.629 147.305 284.589 142.27 284.589C142.049 284.589 141.827 284.573 141.614 284.565C142.336 285.393 143.426 286.065 144.779 286.155C147.846 286.377 148.502 285.934 150.7 283.597C152.594 281.588 152.471 276.094 151.315 277.16Z" fill="black"/>
<path d="M131.036 282.154C131.036 282.154 130.88 282.703 130.519 282.9C130.15 283.105 131.233 282.982 131.233 282.982L131.651 283.138L132.118 283.195C132.118 283.195 132.077 283.138 132.414 283.228C132.75 283.318 133.43 283.343 133.43 283.343L133.791 283.195L134.201 282.982L135.005 283.072L135.825 282.695L136.079 282.72C136.079 282.72 135.398 282.318 135.472 281.604L131.036 282.154Z" fill="#A3552F"/>
<path d="M131.208 252.453C130.913 248.936 133.881 258.48 139.671 263.778C143.926 267.664 152.348 278.431 135.595 282.269C131.085 283.302 119.236 282.375 120.966 272.625C121.926 267.205 131.905 260.727 131.208 252.453Z" fill="#CCD8EE"/>
<path d="M132.701 258.161C132.701 258.161 136.989 263.122 139.482 266.853C141.975 270.584 143.566 275.627 137.99 279.423C137.99 279.423 143.877 274.159 132.701 258.161Z" fill="white"/>
<path opacity="0.3" d="M130.897 260.727C130.897 260.727 127.83 265.09 125.632 268.37C123.443 271.65 120.86 275.536 126.247 279.423C126.247 279.423 120.335 274.979 130.897 260.727Z" fill="black"/>
<path d="M131.807 261.842C131.807 261.842 135.3 272.371 131.307 280.555C131.307 280.563 136.694 273.076 131.807 261.842Z" fill="white"/>
<path opacity="0.3" d="M129.166 280.063C126.674 280.063 124.304 279.587 122.139 278.726C125.124 282.72 132.307 283.015 135.595 282.26C145.402 280.014 146.575 275.397 145.017 271.166C141.975 276.463 136.022 280.063 129.166 280.063Z" fill="black"/>
<path d="M130.897 260.727C130.897 260.727 127.125 265.09 124.935 268.37C122.746 271.65 121.344 276.078 126.247 279.423C126.247 279.423 118.941 275.536 130.897 260.727Z" fill="white"/>
<path d="M145.272 205.251C153.052 198.176 153.623 186.134 146.548 178.355C139.473 170.575 127.431 170.004 119.651 177.079C111.872 184.154 111.301 196.196 118.376 203.975C125.451 211.755 137.493 212.326 145.272 205.251Z" fill="#618BF0"/>
<path d="M123.041 197.103L130.364 186.394V186.337H123.672V184.91H132.578V185.951L125.296 196.62V196.677H132.676V198.104H123.049V197.103H123.041Z" fill="white"/>
<path d="M134.701 191.191C134.701 190.215 134.685 189.412 134.619 188.625H136.145L136.243 190.191H136.284C136.751 189.289 137.85 188.411 139.416 188.411C140.728 188.411 142.762 189.19 142.762 192.446V198.104H141.04V192.643C141.04 191.117 140.474 189.846 138.851 189.846C137.719 189.846 136.833 190.65 136.538 191.609C136.456 191.823 136.423 192.118 136.423 192.413V198.112H134.701V191.191Z" fill="white"/>
</svg>
