<svg width="750" height="500" viewBox="0 0 750 500" fill="none" xmlns="http://www.w3.org/2000/svg">
<path opacity="0.33" d="M566.6 246.5C576.75 175.44 568.79 92.7299 495.65 58.3499C458.66 40.9599 413.34 42.5299 377.64 62.4199C324.26 92.1699 299.09 154.28 257.66 199.2C238.44 220.04 215.64 237.19 192.98 254.22C178.27 265.27 163.48 276.38 147.14 284.83C128.56 294.44 108.15 300.53 90.63 311.95C66.22 327.87 48.74 354.05 43.41 382.7C38.08 411.35 44.97 442.07 62.02 465.7H548.02C538.4 429.53 542.51 387.31 548.24 350.32C553.22 318.21 561.49 282.29 566.6 246.5Z" fill="#F8E7C4"/>
<path d="M381.05 145.31H364.6V204.33H381.05V145.31Z" fill="#A98F6E"/>
<path d="M273.17 87.46L315.36 145.43C319.43 151.02 325.93 154.33 332.85 154.33H423.16C430.7 154.33 437.69 150.36 441.56 143.88L474.26 89.05L273.17 87.46Z" fill="#C7AC88"/>
<path d="M491.11 98.91H245.26C238.34 98.91 232.67 93.25 232.67 86.32C232.67 79.4 238.33 73.73 245.26 73.73H491.11C498.03 73.73 503.7 79.39 503.7 86.32C503.7 93.25 498.04 98.91 491.11 98.91Z" fill="#E5CEA7"/>
<path d="M438.19 196.79H276.19L69.38 410.9C64.47 415.98 61.72 422.87 61.72 430.06V467.51H460.19V219.56C460.19 206.99 450.34 196.79 438.19 196.79Z" fill="#C7AC88"/>
<path d="M500.19 360.48C478.6 342.26 476.64 309.06 495.82 286.34C515 263.61 548.05 259.96 569.64 278.19C591.23 296.41 593.19 329.61 574.01 352.33C554.83 375.05 521.78 378.71 500.19 360.48Z" fill="#DD562B"/>
<path d="M507.31 279.57C449.59 287.07 468.76 378.79 521.65 367.2Z" fill="#DD562B"/>
<path d="M521.48 274.63C554.31 220.6 640.43 309.83 568.47 354.64Z" fill="#DD562B"/>
<path d="M501.9 297.42C495.18 305.38 483.73 328.3 494.43 337.33Z" fill="#DD562B"/>
<path d="M505.12 344.29C505.12 344.29 478.21 313.65 501 291.14" stroke="#89361C" stroke-width="2.0537" stroke-miterlimit="10" stroke-linecap="round" stroke-linejoin="round"/>
<path d="M533.48 283.9C533.48 283.9 565.28 290.08 568.95 326.45" stroke="#89361C" stroke-width="2.0537" stroke-miterlimit="10" stroke-linecap="round" stroke-linejoin="round"/>
<path d="M504.49 277.19C504.48 278.13 504.45 279.41 504 280.22C502.92 282.18 495.93 284.29 494.01 285.93C489.74 289.56 485.86 292.66 483.44 298.05C482.92 299.2 480.82 306.88 481.83 307.73C482.28 308.11 481.99 306.54 482.25 306.01C482.87 304.75 483.65 303.49 484.37 302.28C486.36 298.92 487.74 295.33 490.84 292.57C493.77 289.96 498.04 287.47 501.98 287.14C504.03 286.97 506.56 288.45 508.31 289.04C509.78 289.53 511.42 289.43 512.86 289.78C515.67 290.46 515.07 295.89 515.41 297.79C516.15 301.95 516.79 306.22 517.96 310.29C518.56 312.37 519.86 314.2 520.52 316.25C521.1 318.05 521.81 320.46 521.6 322.33C521.57 322.63 521.03 325.43 521.68 325.5C521.96 325.53 522.21 325.28 522.39 325.07C525.7 321.15 523.77 312.14 523.17 307.8C522.75 304.75 522.96 302.25 521.7 299.32C519.78 294.85 519.47 293.66 519.5 288.84C519.5 288.32 519.07 285.26 519.36 284.92C519.39 284.88 521.26 285.67 521.48 285.68C523.07 285.72 525.26 285.33 526.82 284.67C529.01 283.73 530.51 281.41 532.82 280.42C538.44 278 543.74 275.2 549.87 274.11C552.78 273.6 555.72 275.01 558.57 275.24C558.8 275.26 560.44 275.74 560.63 275.25C561.01 274.31 555.37 271.35 554.48 271.1C550.1 269.83 544.67 269.31 540.15 269.69C538.77 269.81 537 270.69 535.59 271.01C534.74 271.2 534.44 272.09 533.66 272.48C531.18 273.73 528.16 275.57 525.34 275.8C524.44 275.88 523.79 275.62 522.91 275.82C522.67 275.88 522.19 276.13 522.17 275.88C522.15 275.6 522.67 275.63 522.88 275.45C524.74 273.87 526.88 272.08 528.21 269.95C529.96 267.15 529.6 263.58 530.6 260.58C532.44 255.03 535.34 250.06 538.66 245.31C540.73 242.35 542.25 239.42 544.65 236.57C544.79 236.4 548.1 232.69 546.73 232.47C542.53 231.79 535.78 238.09 533.41 240.89C531.71 242.91 529.91 244.88 528.51 247.1C526.73 249.95 526.54 253.74 525.78 256.87C524.4 262.59 519.72 271.15 514.1 273.57C512.5 274.26 510.15 270.18 508.55 269.92C501.36 268.76 493.41 271.43 486.52 268.23C483.86 267 480.46 265.53 478.28 263.69C478.08 263.52 475.52 261.67 475.49 261.68C474.52 262.1 477.41 265.28 477.69 265.61C478.62 266.7 478.84 268.3 479.69 269.37C481.4 271.52 483.99 273.65 486.51 274.78C488.02 275.46 489.79 275.18 491.43 275.49C493.54 275.88 495.9 276.79 498.07 276.61C499.5 276.49 500.82 275.82 502.29 275.69C503.4 275.6 504.5 276.14 504.49 277.19Z" fill="#637822" fill-opacity="0.9865"/>
<path d="M507.69 279.39L528.46 278.77" stroke="#414D1A" stroke-opacity="0.9865" stroke-width="2.0537" stroke-miterlimit="10" stroke-linecap="round" stroke-linejoin="round"/>
<path d="M520.36 273.51L510.7 286.83" stroke="#414D1A" stroke-opacity="0.9865" stroke-width="2.0537" stroke-miterlimit="10" stroke-linecap="round" stroke-linejoin="round"/>
<path d="M482.41 338C482.41 338 475.25 325.89 478.57 312.11" stroke="#F9EACE" stroke-opacity="0.9865" stroke-width="4.0783" stroke-miterlimit="10" stroke-linecap="round" stroke-linejoin="round"/>
<path d="M486.15 343.29C486.39 344.63 491.51 350.92 492.76 351.55" stroke="#F9EACE" stroke-opacity="0.9865" stroke-width="4.0783" stroke-miterlimit="10" stroke-linecap="round" stroke-linejoin="round"/>
<path d="M604.07 199.24C608.77 201.73 612.91 206.43 616.97 214.58C621.88 224.44 618.2 243.9 625.05 258.32C661.67 275.13 658.49 334.92 607.84 334.78C600.28 334.76 594.17 332.89 589.27 329.66C585.6 330.9 581.51 331.61 576.81 331.52C525.53 330.59 524.12 269.16 562.55 254.05C562.79 253.95 563.07 253.56 563.36 253.03C565.79 228.14 567.96 195.5 594.89 196.87C598.24 197.05 601.25 197.75 604.07 199.24Z" fill="#E9D64C" fill-opacity="0.9865"/>
<path d="M625.05 258.33C623.48 255.03 622.47 251.46 621.77 247.8C617.85 248.28 614.03 249.51 610.8 251.86C608.52 253.52 606.45 255.75 605.39 258.4C604.42 260.82 604.35 263.43 604.61 266C605.13 271.18 606.78 276.34 605.45 281.54C604.89 283.74 603.89 285.91 602.22 287.48C600.7 288.91 598.8 289.82 596.86 290.54C592.73 292.07 588.21 292.69 584.38 294.97C582.2 296.27 580.6 298.17 579.15 300.23C577.53 302.53 576.16 305.02 575.09 307.61C572.01 315.03 571 323.13 571.17 331.17C572.98 331.38 574.86 331.51 576.82 331.55C581.52 331.64 585.61 330.93 589.28 329.69C594.18 332.91 600.29 334.78 607.85 334.81C658.5 334.93 661.68 275.14 625.05 258.33Z" fill="#BAA62B" fill-opacity="0.9865"/>
<path d="M594.03 202.31C594.03 202.31 596.14 173.01 581.24 162.04" stroke="#4D3414" stroke-opacity="0.9865" stroke-width="2.7528" stroke-miterlimit="10" stroke-linecap="round" stroke-linejoin="round"/>
<path d="M526.7 212.42C528.23 208.13 532.44 204.23 535.31 200.85C543.1 191.67 550.92 180.86 562.06 175.57C567.17 173.14 575.75 170.1 580.41 174.96C585.37 180.13 581.28 189.91 575.16 192.07C573.45 192.67 571.32 191.97 569.7 192.74C568.39 193.36 569.58 195.76 568.83 197C567.39 199.4 564.83 201.77 562.19 202.7C557.99 204.19 553.16 201.93 549.85 205.1C547.1 207.74 546.66 215.06 542.8 218.76C538.33 223.05 531.43 224.04 525.79 225.65C522.53 226.58 521.64 226.89 518.8 228.72C516.86 229.97 515.89 231.02 514.81 232.14C512.49 234.56 512.48 234.57 512.47 234.48C512.3 233.05 517.39 219.96 517.78 218.61C519.88 211.35 520.28 207.19 521.33 203.39C526.45 184.83 526.27 169.67 545.39 159.17C555.88 153.41 570.01 156.98 568.19 171.63C567.32 178.67 562.25 185.36 558.05 190.72" fill="#637822" fill-opacity="0.9865"/>
<path d="M590.28 174.68C590.28 174.68 582.15 166.41 568.5 172.5C563.88 174.56 538.64 190.79 511.9 234.8" stroke="#1B160B" stroke-opacity="0.9865" stroke-width="0.9697" stroke-miterlimit="10" stroke-linecap="round" stroke-linejoin="round"/>
<path d="M586.32 202.22C586.32 202.22 600.34 200.38 603.27 214.92" stroke="#BAA62B" stroke-opacity="0.9865" stroke-width="2.0537" stroke-miterlimit="10" stroke-linecap="round" stroke-linejoin="round"/>
<path d="M602.15 329.35C602.15 329.35 591.38 331.34 581.21 326.27" stroke="#BAA62B" stroke-opacity="0.9865" stroke-width="2.0537" stroke-miterlimit="10" stroke-linecap="round" stroke-linejoin="round"/>
<path d="M566.78 271.05C567.51 269.71 567.08 268.07 565.8 267.37C564.53 266.67 562.9 267.19 562.17 268.52C561.44 269.86 561.87 271.5 563.14 272.2C564.42 272.9 566.05 272.39 566.78 271.05Z" fill="#BAA62B" fill-opacity="0.9865"/>
<path d="M558.13 284.87C559.15 283.02 558.36 280.64 556.37 279.55C554.38 278.46 551.95 279.07 550.93 280.92C549.91 282.77 550.7 285.15 552.69 286.25C554.68 287.33 557.11 286.72 558.13 284.87Z" fill="#BAA62B" fill-opacity="0.9865"/>
<path d="M575.45 268.05C576.01 267.03 575.65 265.76 574.65 265.22C573.65 264.67 572.38 265.05 571.83 266.06C571.27 267.08 571.63 268.34 572.63 268.89C573.62 269.45 574.89 269.07 575.45 268.05Z" fill="#BAA62B" fill-opacity="0.9865"/>
<path d="M568.99 283.8C569.59 282.71 569.22 281.34 568.15 280.76C567.09 280.18 565.74 280.59 565.13 281.68C564.53 282.78 564.9 284.14 565.97 284.72C567.04 285.31 568.39 284.9 568.99 283.8Z" fill="#BAA62B" fill-opacity="0.9865"/>
<path d="M544.88 283.81C545.39 282.88 545.07 281.72 544.17 281.22C543.27 280.72 542.12 281.08 541.61 282.01C541.1 282.94 541.41 284.1 542.32 284.6C543.22 285.1 544.37 284.74 544.88 283.81Z" fill="#BAA62B" fill-opacity="0.9865"/>
<path d="M559.87 295.92C560.48 294.82 560.05 293.42 558.91 292.79C557.77 292.17 556.36 292.56 555.76 293.66C555.15 294.76 555.58 296.16 556.72 296.79C557.85 297.41 559.27 297.02 559.87 295.92Z" fill="#BAA62B" fill-opacity="0.9865"/>
<path d="M546.68 295.05C547.54 293.49 546.88 291.49 545.22 290.58C543.56 289.67 541.52 290.19 540.66 291.75C539.8 293.31 540.45 295.31 542.12 296.22C543.78 297.13 545.82 296.61 546.68 295.05Z" fill="#BAA62B" fill-opacity="0.9865"/>
<path d="M567.31 288.82C567.67 288.17 567.41 287.33 566.73 286.96C566.05 286.59 565.2 286.81 564.84 287.47C564.48 288.12 564.74 288.96 565.42 289.33C566.1 289.71 566.95 289.48 567.31 288.82Z" fill="#BAA62B" fill-opacity="0.9865"/>
<path d="M581.46 272.5C581.86 271.77 581.59 270.84 580.84 270.43C580.1 270.02 579.16 270.28 578.76 271.02C578.36 271.75 578.63 272.68 579.38 273.09C580.13 273.5 581.06 273.24 581.46 272.5Z" fill="#BAA62B" fill-opacity="0.9865"/>
<path d="M547.26 272.27C547.26 272.27 554.01 262.99 561.79 259.36" stroke="#F9EACE" stroke-opacity="0.9865" stroke-width="3.9126" stroke-miterlimit="10" stroke-linecap="round" stroke-linejoin="round"/>
<path d="M571.02 236.68C570.1 242.24 569.49 247.85 569.02 253.46" stroke="#F9EACE" stroke-width="4.0783" stroke-miterlimit="10" stroke-linecap="round" stroke-linejoin="round"/>
<path d="M577.04 216.71C574.63 219.86 573.74 223.92 572.83 227.7" stroke="#F9EACE" stroke-width="4.0783" stroke-miterlimit="10" stroke-linecap="round" stroke-linejoin="round"/>
<path d="M662.94 279.42C643.74 287.46 639.84 325.39 628.53 343.31C622.7 352.54 611.75 360.75 601.79 364.96C594.09 368.21 585.22 371.59 576.99 370.13L580.17 377.14C580.17 377.14 596.47 384.93 619.25 380.35C619.25 380.35 678.63 364.87 686.28 306.37C685.16 292.08 678.33 282.55 666.31 278.42C665.15 278.67 664.01 278.97 662.94 279.42Z" fill="#F3D46B"/>
<path d="M653.96 230.32L639.69 234.56C641.22 236.79 642.62 239.07 644.39 241.22C649.81 247.81 654.34 263.44 653.82 271.67C653.42 277.98 642.43 278.05 640.13 284.51L557.93 375.02C564.74 377.44 571.36 378.56 577.68 378.74C603.52 379.47 624.28 364.52 632.15 359.08C647.67 348.34 666.84 322.18 669.47 310.65C674.25 289.71 668.76 282.6 664.55 277.08C663.04 275.09 659.57 273.57 658.11 273.55C658.73 270.24 658.79 258.88 658.77 257.76C658.65 250.52 657.53 238.75 653.96 230.32Z" fill="#EBC751"/>
<path d="M628.47 237.9C634.93 242.39 642.82 251.78 641.55 270.6C641.55 270.6 636.72 267.49 635.42 267.13C602.52 258.05 599.75 309.63 585.96 331.47C580.13 340.7 569.17 348.93 559.21 353.13C551.51 356.38 542.64 359.75 534.41 358.3L537.59 365.31C537.59 365.31 553.89 373.09 576.67 368.51C576.67 368.51 649 349.77 644.39 275.16C644.39 275.16 654.14 254.61 645.06 232.97L628.47 237.9Z" fill="#F3D46B"/>
<path d="M534.6 358.51L537.78 365.52C537.78 365.52 544.59 368.72 555.48 369.79C555.29 369.32 554.69 367.91 554.6 367.69C552.74 363.18 551.75 360.42 550.27 356.73C545.07 358.37 539.72 359.42 534.6 358.51Z" fill="#5B3817"/>
<path d="M534.6 358.51L537.78 365.52C537.78 365.52 544.59 368.72 555.48 369.79C555.29 369.32 554.69 367.91 554.6 367.69C552.74 363.18 551.75 360.42 550.27 356.73C545.07 358.37 539.72 359.42 534.6 358.51Z" fill="#5B3817"/>
<path d="M644.35 278.15C644.35 278.15 649.47 314.51 620.6 343.16" stroke="#DFBA42" stroke-width="3.0206" stroke-miterlimit="10" stroke-linecap="round" stroke-linejoin="round"/>
<path d="M660.8 274.65C667.01 277.81 669.82 284.21 670.98 290.67C673.75 306.2 666.34 319.1 657.02 330.91" stroke="#DFBA42" stroke-width="3.0206" stroke-miterlimit="10" stroke-linecap="round" stroke-linejoin="round"/>
<path d="M650.2 341.82C647.55 345.18 644.87 347.68 641.61 350.45C639.27 352.44 637.2 354.51 634.27 355.63" stroke="#DFBA42" stroke-width="3.0206" stroke-miterlimit="10" stroke-linecap="round" stroke-linejoin="round"/>
<path d="M590.39 377.49C596.87 376.72 604.44 374.9 616.89 367.71" stroke="#DFBA42" stroke-width="3.0206" stroke-miterlimit="10" stroke-linecap="round" stroke-linejoin="round"/>
<path d="M555.6 369.73L557.95 375.07C557.95 375.07 567.49 378.38 573.53 378.2L571.64 369.44L555.6 369.73Z" fill="#5B3817"/>
<path d="M642.28 271.42C635.44 269.31 630.19 276.26 626.88 281.31" stroke="#DFBA42" stroke-width="3.0206" stroke-miterlimit="10" stroke-linecap="round" stroke-linejoin="round"/>
<path d="M623.92 285.64C623.92 285.64 621.22 298.93 613.28 312.45" stroke="#804A19" stroke-width="3.0206" stroke-miterlimit="10" stroke-linecap="round" stroke-linejoin="round"/>
<path d="M569.45 358.17C569.45 358.17 590.33 353.3 599.02 341.41" stroke="#804A19" stroke-width="3.0206" stroke-miterlimit="10" stroke-linecap="round" stroke-linejoin="round"/>
<path d="M659.67 284.33C661.43 290.25 659.31 295.16 656.87 300.84" stroke="#804A19" stroke-width="3.0206" stroke-miterlimit="10" stroke-linecap="round" stroke-linejoin="round"/>
<path d="M654.58 309.23C653.2 311.77 652.08 314.39 650.46 316.83" stroke="#804A19" stroke-width="3.0206" stroke-miterlimit="10" stroke-linecap="round" stroke-linejoin="round"/>
<path d="M607.8 363.79C612.7 360.36 617.19 356.55 621.79 352.73" stroke="#804A19" stroke-width="3.0206" stroke-miterlimit="10" stroke-linecap="round" stroke-linejoin="round"/>
<path d="M652.25 354.78C652.25 354.78 659.73 351.58 668.7 336.24" stroke="#804A19" stroke-width="3.0206" stroke-miterlimit="10" stroke-linecap="round" stroke-linejoin="round"/>
<path d="M411.32 411.74H532.96L568.16 352.91H446.51L411.32 411.74Z" fill="#2D201B"/>
<path d="M640.61 352.54H447.6V470.32H640.61V352.54Z" fill="#90380D"/>
<path d="M688.32 352.54H563.84V470.32H688.32V352.54Z" fill="#5A2B17"/>
<path d="M725.66 411.43H604.02L568.82 352.6H690.46L725.66 411.43Z" fill="#90380D"/>
<path d="M387.94 370.22L396.02 356.6C397.08 354.81 395.79 352.54 393.71 352.54H384.06C383.15 352.54 382.31 353 381.81 353.76L365.7 378.36" stroke="#8E867D" stroke-width="1.9211" stroke-miterlimit="10" stroke-linecap="round" stroke-linejoin="round"/>
<path d="M209.02 168.86C211.23 170.54 214.56 169.96 216.97 171.24C216.05 170.99 214.62 171.19 214.18 170.5C215.75 175.69 222.07 177.97 227.47 177.47C232.87 176.97 237.89 174.51 243.21 173.46C250.92 171.94 259.37 173.63 265.44 178.64C268.23 180.95 270.43 183.98 271.82 187.32C293.84 167.62 322.63 163.78 336.61 178.89C346.9 190.02 346.33 208.35 336.78 225.4C350.83 223.49 363.7 226.83 372.08 235.9C388.99 254.18 381.3 288.78 354.92 313.19C328.53 337.6 293.43 342.57 276.53 324.29C266.49 313.43 265.12 296.81 271.2 279.99H209.03V168.86H209.02Z" fill="#2D201B"/>
<path d="M216.96 171.24C217.25 171.32 217.5 171.45 217.64 171.67C217.43 171.5 217.2 171.37 216.96 171.24Z" fill="#2D201B"/>
<path d="M282.8 305.61L401.73 297.91L405.38 297.67C414.71 297.07 421.96 289.6 422.54 280.51L433.51 111.72C433.73 108.36 431.18 105.46 427.83 105.24C424.82 105.04 413.82 101.18 413.15 104.02L382.08 274.4L402.89 257.01L284.59 242.6C267.23 240.49 251.45 252.84 249.34 270.2C247.23 287.56 259.58 303.34 276.94 305.45C278.85 305.68 280.93 305.72 282.8 305.61Z" fill="#90380D"/>
<path d="M249.33 270.2C251.44 252.84 267.23 240.49 284.58 242.6L379.92 254.21L403.56 156.56C410.17 161.37 421.58 175.68 429.17 178.51L422.54 280.52C421.96 289.61 414.71 297.07 405.38 297.68L401.73 297.92L282.8 305.62C280.93 305.73 278.85 305.69 276.93 305.45C259.58 303.33 247.22 287.55 249.33 270.2Z" fill="#F8E7C4"/>
<path d="M211.79 161.74C210.29 162.88 208.27 162.98 206.38 163.33C206.22 163.51 206.04 163.67 205.87 163.83C206.2 163.75 206.48 163.62 206.64 163.38C205.07 168.57 198.75 170.85 193.35 170.35C187.95 169.85 182.93 167.39 177.61 166.34C169.9 164.82 161.45 166.51 155.38 171.52C152.59 173.83 150.39 176.86 149 180.2C126.98 160.5 98.19 156.66 84.21 171.77C73.92 182.9 74.49 201.23 84.04 218.28C69.99 216.37 57.12 219.71 48.74 228.78C31.83 247.06 39.52 281.66 65.9 306.07C92.29 330.48 127.39 335.45 144.29 317.17C154.33 306.31 155.7 289.69 149.62 272.87H211.79V161.74Z" fill="#2D201B"/>
<path d="M298.97 468.67C295.39 448.98 276.28 403.82 273.87 383.99L235.56 409.38C231.66 409.45 227.77 409.5 223.87 409.54C214.85 409.62 205.83 409.6 196.81 409.5C196.3 410.28 195.78 411.05 195.24 411.81C186.29 424.58 174.69 435.74 166.09 448.7C161.98 454.89 158.53 461.63 155.78 468.68H298.97V468.67Z" fill="#2D201B"/>
<path d="M295.2 248.13H155.61C148.65 260.3 146.32 274.91 150.56 290.34C156.04 310.31 165.55 328.53 167.36 349.41C168.55 363.15 166.42 377.2 168.64 390.89C173.32 419.79 192.97 428.71 221 429.7C244.99 430.55 266.81 426.28 279.73 403.74C292.21 381.97 288.1 356.91 294.37 333.5C299.38 314.81 303.94 296.25 303.06 276.47C302.58 265.55 299.75 256.12 295.2 248.13Z" fill="#F0C764"/>
<path d="M170.1 397.62C176.62 421.19 195.27 428.79 220.99 429.69C244.98 430.54 266.8 426.27 279.72 403.73C280.87 401.72 281.88 399.68 282.77 397.62H170.1Z" fill="#2D201B"/>
<path d="M232.34 377.3C232.99 358.74 232.85 340.04 230.37 321.61C228.08 304.6 223.72 287.6 215.56 272.41C210.68 263.32 204.44 255.16 197.07 248.13H155.62C148.66 260.3 146.33 274.91 150.57 290.34C156.05 310.31 165.56 328.53 167.37 349.41C168.56 363.15 166.43 377.2 168.65 390.89C173.33 419.79 192.98 428.71 221.01 429.7C223.72 429.8 226.39 429.82 229.03 429.77C230.32 412.29 231.72 394.82 232.34 377.3Z" fill="#F8E7C4"/>
<path d="M303.06 276.46C302.57 265.54 299.75 256.12 295.19 248.13H252.49C253.75 253.27 253.21 258.68 252.51 263.93C252.08 267.14 251.61 270.3 251.48 273.53C251.32 277.42 251.23 281.31 251.11 285.21C250.7 299.05 249.86 312.86 249.53 326.7C249.2 340.62 249.05 354.55 248.9 368.47C248.75 382.24 248.42 396 248.16 409.77C248.05 415.71 247.88 451.02 247.57 456.95C260.59 453.82 271.82 417.51 279.72 403.73C292.2 381.96 288.09 356.9 294.36 333.49C299.37 314.8 303.94 296.24 303.06 276.46Z" fill="#F8E7C4"/>
<path d="M192.18 189.27C192.47 193.93 196.49 197.47 201.15 197.18C205.81 196.89 209.35 192.87 209.06 188.21C208.77 183.55 204.75 180.01 200.09 180.3C195.42 180.59 191.88 184.61 192.18 189.27Z" fill="#90380D"/>
<path d="M428.14 96.36C427.94 97.04 427.82 97.44 427.82 97.44C427.82 97.44 427.93 97.03 428.1 96.31C425.93 93 424.14 89.51 422.93 85.78C421.71 91.41 420.99 96.51 420.99 96.51C420.99 96.51 421.54 89.54 421.42 83H414.93C413.62 92.31 413.14 104.03 413.14 104.03C413.14 104.03 403.46 90.82 400.73 92.58C396.11 95.56 419.51 131.3 419.51 131.3L431.53 127.38C435.01 123.72 441.84 114.36 443.37 98.9C439.31 94.75 431.3 101.17 428.14 96.36Z" fill="#90380D"/>
<path d="M431.54 91.2901C433.48 90.0201 436.27 90.7201 437.96 92.3801C439.66 94.0501 440.45 96.4501 440.82 98.8001C441.65 104.05 440.63 109.55 437.98 114.06C436.19 117.12 433.07 119.94 429.57 119.34C426.61 118.84 424.52 116.1 423.02 113.44C419.44 107.1 414.02 94.1501 418.02 87.1101C421.46 81.0801 434.59 83.3801 431.54 91.2901Z" fill="#90380D"/>
<path d="M241.18 240.58C234.43 232.37 230.92 220.47 230.72 209.44L208.81 197.34C213.86 216.35 206.41 239.97 194.33 247.09C195.34 248.41 196.47 249.63 197.69 250.76C205.24 257.77 216.37 261.19 226.19 260.91C235.49 260.67 245.07 257.34 251.98 250.76C252.79 249.98 253.57 249.16 254.3 248.3C249.36 247.25 244.83 245.02 241.18 240.58Z" fill="#90380D"/>
<path d="M218.37 207.42C219.85 213.91 225.57 218.86 231.82 219.54C231.02 215.5 230.65 211.38 230.72 207.42H218.37Z" fill="#2D201B"/>
<path d="M235.98 211.49C234 212.28 231.86 212.78 229.64 212.92C228.05 213.02 226.5 212.94 224.98 212.68C223.46 212.43 221.99 212.01 220.59 211.45C213.42 208.54 208.13 201.71 207.61 193.51L206.91 182.42L205.72 163.46C205.36 157.76 207.37 152.43 210.89 148.44C214.41 144.45 219.45 141.79 225.14 141.43C235.16 140.8 244.05 147.48 246.52 156.86C246.87 158.13 247.09 159.48 247.17 160.85L248.75 185.78L249.07 190.89C249.63 200.06 244.09 208.25 235.98 211.49Z" fill="#90380D"/>
<path d="M181.99 291.36L166.5 331.9" stroke="#422E22" stroke-width="0.8909" stroke-miterlimit="10" stroke-linecap="round" stroke-linejoin="round"/>
<path d="M303.06 276.46L297.03 317.1" stroke="#422E22" stroke-width="0.8909" stroke-miterlimit="10" stroke-linecap="round" stroke-linejoin="round"/>
<path d="M200.99 227.75C203.398 227.75 205.35 220.81 205.35 212.25C205.35 203.69 203.398 196.75 200.99 196.75C198.582 196.75 196.63 203.69 196.63 212.25C196.63 220.81 198.582 227.75 200.99 227.75Z" stroke="white" stroke-width="1.0337" stroke-miterlimit="10"/>
<path d="M254.35 210.47C254.35 219.52 252.4 226.86 249.99 226.86C247.58 226.86 245.63 219.52 245.63 210.47C245.63 201.42 247.58 194.08 249.99 194.08C252.4 194.08 254.35 201.42 254.35 210.47Z" stroke="white" stroke-width="1.063" stroke-miterlimit="10"/>
<path d="M223.92 188.25V190.33C223.92 195.07 227.8 198.94 232.53 198.94C237.27 198.94 241.14 195.06 241.14 190.33V188.25H223.92Z" fill="#F7EDEA"/>
<path d="M248.74 185.78C245.52 185.64 242.36 184.46 239.9 182.4C236.52 179.58 235.14 175.8 235.3 171.47C234.78 177.78 230.43 183.66 224.5 185.92C218.61 188.17 211.49 186.72 206.9 182.42L205.71 163.46C205.35 157.76 207.36 152.43 210.88 148.44C214.4 144.45 219.44 141.79 225.13 141.43C235.15 140.8 244.04 147.48 246.51 156.86C246.86 158.13 247.08 159.48 247.16 160.85L248.74 185.78Z" fill="#2D201B"/>
<path d="M176.02 248.25C176.02 248.25 187.97 288.16 223.92 303.44" stroke="#422E22" stroke-width="0.8909" stroke-miterlimit="10" stroke-linecap="round" stroke-linejoin="round"/>
<path d="M271.85 248.92C271.85 248.92 281.13 289.81 250.47 303.44" stroke="#422E22" stroke-width="0.8909" stroke-miterlimit="10" stroke-linecap="round" stroke-linejoin="round"/>
<path d="M261.82 317.1H292.5" stroke="#422E22" stroke-width="0.8909" stroke-miterlimit="10" stroke-linecap="round" stroke-linejoin="round"/>
<path d="M294.37 333.49L298.97 468.67H247.57L250.47 331.9L294.37 333.49Z" fill="#F8E7C4"/>
<path d="M232.67 362.51V470.64L131.82 468.67C131.82 468.67 157.84 380.68 179.32 361.27L232.67 362.51Z" fill="#F8E7C4"/>
<path d="M403.3 72.74C401.96 79.78 401.3 87.53 404.98 93.68C405.2 94.05 405.48 94.45 405.89 94.57C406.85 94.86 407.52 93.62 407.74 92.64C408.69 88.46 409.27 84.19 409.47 79.9C409.97 79.43 410.67 80.2 410.9 80.85C413.45 88.19 413.75 96.3 411.74 103.81C412.74 105.36 413.5 106.07 414.5 107.62C418.1 98.97 421.3 89.73 420.18 80.43C419.86 77.74 419.15 75.05 417.65 72.79C416.15 70.53 413.78 68.76 411.09 68.44C408.39 68.12 403.8 70.08 403.3 72.74Z" fill="#90380D"/>
<path d="M421.05 85.87C421.4 77.75 422.05 69.63 422.98 61.56C423.13 60.25 423.34 58.85 424.25 57.9C424.53 57.61 424.9 57.37 425.3 57.4C425.68 57.43 425.99 57.69 426.25 57.97C427.61 59.42 428.07 61.48 428.42 63.44C430.09 72.91 430.33 82.63 429.13 92.18C427.35 89.34 424.12 87.19 421.05 85.87Z" fill="#90380D"/>
<path d="M428.86 92.62C429.21 84.5 429.86 76.38 430.79 68.31C430.94 67 431.15 65.6 432.06 64.65C432.34 64.36 432.71 64.12 433.11 64.15C433.49 64.18 433.8 64.44 434.06 64.72C435.42 66.17 435.88 68.23 436.23 70.19C437.9 79.66 438.14 89.38 436.94 98.93C435.16 96.09 431.93 93.94 428.86 92.62Z" fill="#90380D"/>
<path d="M435.33 107.61C435.68 99.4901 438.69 85.9701 439.63 77.8901C439.78 76.5801 439.99 75.1801 440.9 74.2301C441.18 73.9401 441.55 73.7001 441.95 73.7301C442.33 73.7601 442.64 74.0201 442.9 74.3001C444.26 75.7501 444.34 82.3701 444.37 84.3501C444.58 102.99 441.02 110.03 439.48 115.27C437.32 112.28 435.33 107.61 435.33 107.61Z" fill="#90380D"/>
<path d="M433.07 96.27C426.04 99.59 421.07 106.34 419.96 114.03" stroke="#662A10" stroke-width="0.9606" stroke-miterlimit="10"/>
<path d="M421.05 85.8701L433.53 89.0601" stroke="#662A10" stroke-width="0.9606" stroke-miterlimit="10"/>
<path d="M46.61 469.33H705.25" stroke="#2D201B" stroke-width="3.0328" stroke-miterlimit="10" stroke-linecap="round" stroke-linejoin="round"/>
<path d="M342.57 370.22L350.65 356.6C351.71 354.81 350.42 352.54 348.34 352.54H338.69C337.78 352.54 336.94 353 336.44 353.76L320.33 378.36" stroke="#8E867D" stroke-width="1.9211" stroke-miterlimit="10" stroke-linecap="round" stroke-linejoin="round"/>
<path d="M368.7 470.16L420.42 382.99C423.84 377.23 419.68 369.94 412.98 369.95L317.35 370.11C310.98 370.12 305.06 373.43 301.72 378.85L245.38 470.16H368.7Z" fill="#5A2B17"/>
<path d="M382.51 422.75C373.7 426.22 367.05 433.28 362.17 441.2C361.74 441.9 360.91 442.07 360.2 441.72C353.02 438.2 344.69 438.01 337.09 440.2C331.52 441.8 326.03 443.9 321.34 447.36C317.69 450.06 314.75 453.6 312.5 457.52C310.21 461.51 308.51 465.79 307.03 470.17H368.7L398.46 420C393.03 419.97 387.61 420.74 382.51 422.75Z" fill="#2D201B"/>
<path d="M384.89 390.7H331.34C327.17 390.7 324.59 386.14 326.74 382.57L334.33 369.96H403.24L393.79 385.67C391.91 388.79 388.53 390.7 384.89 390.7Z" fill="#BFB2A3"/>
<path d="M394.03 373.75H343.32C341.73 373.75 340.44 372.45 340.44 370.87V370.53C340.44 368.94 341.74 367.65 343.32 367.65H394.03C395.62 367.65 396.91 368.95 396.91 370.53V370.87C396.91 372.45 395.62 373.75 394.03 373.75Z" fill="#8E867D"/>
<path d="M334.66 387.13C336.085 387.13 337.24 385.975 337.24 384.55C337.24 383.125 336.085 381.97 334.66 381.97C333.235 381.97 332.08 383.125 332.08 384.55C332.08 385.975 333.235 387.13 334.66 387.13Z" fill="#8E867D"/>
<path d="M387.54 384.55C387.54 385.97 386.39 387.13 384.96 387.13C383.54 387.13 382.38 385.98 382.38 384.55C382.38 383.13 383.53 381.97 384.96 381.97C386.39 381.97 387.54 383.13 387.54 384.55Z" fill="#8E867D"/>
<path d="M275.37 431.88L306.99 380.68C308.99 377.44 312.52 375.47 316.33 375.47H325.96" stroke="#2B1D17" stroke-width="0.8909" stroke-miterlimit="10" stroke-linecap="round" stroke-linejoin="round"/>
<path d="M121.47 274.04L99.51 390.86L98.85 394.35C97.04 403.97 103.06 413.28 112.37 415.76L267.98 463.22C272.1 464.31 275.59 455.33 276.67 451.22C277.65 447.51 275.75 443.71 272.35 442.21L125.92 377.21L138.79 402.11L181.98 291.37C188.32 275.1 180.28 256.77 164.01 250.43C147.74 244.09 129.42 252.13 123.07 268.4C122.38 270.19 121.83 272.2 121.47 274.04Z" fill="#90380D"/>
<path d="M98.85 394.35L99.51 390.86L121.47 274.04C121.83 272.2 122.38 270.2 123.09 268.39C129.43 252.12 147.76 244.08 164.03 250.42C180.3 256.76 188.34 275.09 182 291.36L145.19 385.75L194.45 407.61C188.4 415.61 187.07 428.15 184.25 437.68L112.39 415.76C103.07 413.27 97.04 403.97 98.85 394.35Z" fill="#F8E7C4"/>
<path d="M309.7 444.41C309.97 448.22 290.86 450.73 290.86 450.73C290.86 450.73 323.29 470.19 320.99 474.63C320.9 474.81 320.76 474.94 320.59 475.06C319.3 475 318.01 474.97 316.71 474.97C309.05 472.77 294.17 463.06 294.17 463.06C294.17 463.06 299.03 466.68 304.15 471.11C299.62 470.25 295 470.12 290.36 470.49C289.72 469.91 289.35 469.56 289.35 469.56C289.35 469.56 289.7 469.9 290.28 470.49C283.53 471.03 276.75 472.61 270.16 474.44C261.54 466.21 249.15 453.4 249.15 453.4L268.39 441.67C268.4 441.66 309.23 437.98 309.7 444.41Z" fill="#90380D"/>
<path d="M293.61 476.84C293.82 479.56 291.53 482.03 288.85 482.83C286.17 483.64 283.24 483.1 280.61 482.15C274.72 480.04 269.62 475.89 266.46 470.62C264.32 467.05 263.17 462.25 265.77 458.98C267.96 456.21 271.97 455.61 275.56 455.56C284.12 455.45 300.57 457.18 305.56 465.27C309.85 472.23 300.05 484.45 293.61 476.84Z" fill="#90380D"/>
<path d="M563.84 352.6V465.45" stroke="#422E22" stroke-width="0.8909" stroke-miterlimit="10" stroke-linecap="round" stroke-linejoin="round"/>
<path d="M108.342 117.709C122.139 103.912 122.139 81.5421 108.342 67.745C94.5449 53.9479 72.1754 53.9479 58.3783 67.745C44.5812 81.5421 44.5812 103.912 58.3783 117.709C72.1754 131.506 94.5449 131.506 108.342 117.709Z" fill="#F8E7C4"/>
<path d="M83.36 123.43C100.315 123.43 114.06 109.685 114.06 92.73C114.06 75.7749 100.315 62.03 83.36 62.03C66.4049 62.03 52.66 75.7749 52.66 92.73C52.66 109.685 66.4049 123.43 83.36 123.43Z" stroke="#C7AC88" stroke-width="1.0006" stroke-miterlimit="10" stroke-linecap="round" stroke-linejoin="round"/>
<path d="M88.56 93.9001C88.56 97.5201 85.62 100.46 82 100.46C78.38 100.46 75.44 97.5201 75.44 93.9001C75.44 90.2801 78.38 87.3401 82 87.3401C85.62 87.3401 88.56 90.2701 88.56 93.9001Z" fill="#C7AC88"/>
<path d="M82 90.6002L96.53 68.1902L86.17 93.9002L82 90.6002Z" fill="#C7AC88"/>
<path d="M201.8 146.28C201.81 145.91 201.83 145.54 201.83 145.16C201.83 125.65 186.01 109.83 166.5 109.83C146.99 109.83 131.17 125.65 131.17 145.16C131.17 145.54 131.19 145.91 131.2 146.28H201.8Z" fill="#F8E7C4"/>
<path d="M164.85 151.44C168.473 151.44 171.41 148.503 171.41 144.88C171.41 141.257 168.473 138.32 164.85 138.32C161.227 138.32 158.29 141.257 158.29 144.88C158.29 148.503 161.227 151.44 164.85 151.44Z" fill="#C7AC88"/>
<path d="M164.85 141.58L179.39 119.17L169.03 144.88L164.85 141.58Z" fill="#C7AC88"/>
<path d="M135.93 145.59C135.93 145.59 138.57 120.8 162.3 116.47" stroke="#C7AC88" stroke-width="1.0006" stroke-miterlimit="10" stroke-linecap="round" stroke-linejoin="round"/>
<path d="M197.08 145.59C197.08 145.59 194.44 120.8 170.71 116.47" stroke="#C7AC88" stroke-width="1.0006" stroke-miterlimit="10" stroke-linecap="round" stroke-linejoin="round"/>
<path d="M201.8 95.6199C201.81 95.2499 201.83 94.8799 201.83 94.4999C201.83 74.9899 186.01 59.1699 166.5 59.1699C146.99 59.1699 131.17 74.9899 131.17 94.4999C131.17 94.8799 131.19 95.2499 131.2 95.6199H201.8Z" fill="#F8E7C4"/>
<path d="M172.54 94.0297C172.54 97.6497 169.6 100.59 165.98 100.59C162.36 100.59 159.42 97.6497 159.42 94.0297C159.42 90.4097 162.36 87.4698 165.98 87.4698C169.6 87.4598 172.54 90.3997 172.54 94.0297Z" fill="#C7AC88"/>
<path d="M165.98 90.7298L180.52 68.3098L170.16 94.0298L165.98 90.7298Z" fill="#C7AC88"/>
<path d="M136.76 93.9598C136.76 93.9598 139.4 69.1698 163.13 64.8398" stroke="#C7AC88" stroke-width="1.0006" stroke-miterlimit="10" stroke-linecap="round" stroke-linejoin="round"/>
<path d="M197.91 93.9598C197.91 93.9598 195.27 69.1698 171.54 64.8398" stroke="#C7AC88" stroke-width="1.0006" stroke-miterlimit="10" stroke-linecap="round" stroke-linejoin="round"/>
<path d="M639.75 161.72C660.67 152.33 681.79 143.37 702.21 132.97C708.4 123.2 712 111.63 712 99.2C712 64.31 683.71 36.02 648.82 36.02C613.93 36.02 585.64 64.31 585.64 99.2C585.64 131.01 609.16 157.32 639.75 161.72Z" fill="#9DB34D"/>
<path d="M624.04 96.7L642.55 119.48L680.05 78.27" stroke="white" stroke-width="10.3351" stroke-miterlimit="10" stroke-linecap="round" stroke-linejoin="round"/>
<path d="M702.05 133.43C695.43 133.32 689.34 129.98 682.93 128.3C674.84 126.17 665.85 126.82 658.66 131.09C647.95 137.46 643.13 150.21 639.22 162.04L702.05 133.43Z" fill="#637822" fill-opacity="0.9865"/>
<path d="M519.28 370.7H460.19V429.79H519.28V370.7Z" fill="#F8E7C4"/>
<path d="M474.91 405.84C473.4 399.05 477.9 392.28 484.95 390.71C492 389.14 498.94 393.38 500.45 400.16C501.96 406.95 497.46 413.72 490.41 415.29C483.36 416.86 476.42 412.62 474.91 405.84Z" fill="#2D201B"/>
<path d="M496.46 396.29C494.49 395.5 492.89 393.93 491.88 392.06C490.87 390.19 490.44 388.05 490.45 385.93C490.45 385.66 490.56 384.96 490.56 384.96C494.22 386.03 497.3 389.56 498.16 393.28C499.48 391.72 501.69 391.11 503.73 391.15C505.05 391.17 506.97 391.35 506.97 391.35C506.97 391.35 506.49 392 505.96 392.58C503.74 395 499.52 397.52 496.46 396.29Z" fill="#2D201B"/>
<path d="M475.51 407.17C475.27 406.75 474.72 406.63 474.24 406.64C473.93 406.64 473.59 406.69 473.38 406.93C473.28 407.04 473.23 407.18 473.2 407.32C473.1 407.83 473.33 408.38 473.73 408.71C474.13 409.04 474.68 409.16 475.2 409.11C474.87 409.75 474.88 410.55 475.21 411.18C475.35 411.45 475.55 411.69 475.82 411.83C476.09 411.97 476.42 412 476.69 411.86C477.17 411.61 477.26 410.98 477.27 410.45" fill="#2D201B"/>
<path d="M530.1 435.51H460.19V445.08H530.1V435.51Z" stroke="#2D201B" stroke-width="1.0006" stroke-miterlimit="10"/>
<path d="M530.1 450.79H460.19V460.36H530.1V450.79Z" stroke="#2D201B" stroke-width="1.0006" stroke-miterlimit="10"/>
<path d="M490.45 373.98H465.22V377.22H490.45V373.98Z" stroke="#2D201B" stroke-width="1.0006" stroke-miterlimit="10"/>
<path d="M556.38 361.91H536.22V415.61H556.38V361.91Z" stroke="#2D201B" stroke-width="1.0006" stroke-miterlimit="10"/>
<path d="M635.34 429.79H573.02V460.36H635.34V429.79Z" stroke="#2D201B" stroke-width="1.0006" stroke-miterlimit="10"/>
<path d="M181.99 291.36L166.5 331.9" stroke="#422E22" stroke-width="0.8909" stroke-miterlimit="10" stroke-linecap="round" stroke-linejoin="round"/>
</svg>
